<svg width="47" height="30" viewBox="0 0 47 30" fill="none" xmlns="http://www.w3.org/2000/svg">
<path d="M8.78099 4.91706C9.35546 5.10243 9.81108 5.41462 10.1478 5.85364C10.4846 6.28291 10.653 6.8195 10.653 7.4634C10.653 8.3512 10.3063 9.039 9.61299 9.52681C8.91966 10.0049 7.90937 10.2439 6.58214 10.2439H1.41187V0H6.285C7.51318 0 8.45909 0.239024 9.1227 0.717072C9.78632 1.18536 10.1181 1.83414 10.1181 2.66341C10.1181 3.17072 9.99927 3.6195 9.76156 4.00975C9.52385 4.39999 9.19699 4.70243 8.78099 4.91706ZM3.34329 1.49268V4.31706H6.077C6.75052 4.31706 7.26557 4.19999 7.62214 3.96584C7.98861 3.72194 8.17185 3.37072 8.17185 2.91219C8.17185 2.4439 7.98861 2.09268 7.62214 1.85853C7.26557 1.61463 6.75052 1.49268 6.077 1.49268H3.34329ZM6.46328 8.7512C7.9589 8.7512 8.70671 8.25852 8.70671 7.27315C8.70671 6.28779 7.9589 5.79511 6.46328 5.79511H3.34329V8.7512H6.46328Z" fill="white"/>
<path d="M19.4594 7.87315H14.2594L13.2343 10.2439H11.2434L15.9234 0H17.8251L22.52 10.2439H20.4994L19.4594 7.87315ZM18.8206 6.38047L16.8594 1.90243L14.9131 6.38047H18.8206Z" fill="white"/>
<path d="M33.0837 0V10.2439H31.494L25.7592 3.30731V10.2439H23.8426V0H25.4323L31.1672 6.93657V0H33.0837Z" fill="white"/>
<path d="M39.451 5.95608L37.8019 7.62437V10.2439H35.8705V0H37.8019V5.25365L42.9425 0H45.1116L40.7436 4.58048L45.379 10.2439H43.1208L39.451 5.95608Z" fill="white"/>
<path fill-rule="evenodd" clip-rule="evenodd" d="M46.4285 14.2686H0V30.0002H46.4285V14.2686ZM15.6244 26.7074L18.7266 17.4879H17.0685L14.6751 24.5342L12.3083 17.4879H10.7038L8.28354 24.4947L5.95691 17.4879H4.15178L7.25394 26.7074H9.11256L11.4659 19.885L13.7792 26.7074H15.6244ZM21.881 17.4879H20.1427V26.7074H21.881V17.4879ZM30.5368 26.7074L28.6247 24.0074C28.5444 24.0162 28.4241 24.0206 28.2636 24.0206H26.151V26.7074H24.4127V17.4879H28.2636C29.0748 17.4879 29.7791 17.6196 30.3763 17.883C30.9825 18.1464 31.446 18.524 31.7669 19.0157C32.0879 19.5074 32.2483 20.0913 32.2483 20.7674C32.2483 21.461 32.0745 22.0581 31.7268 22.5586C31.3881 23.0591 30.8978 23.4323 30.256 23.6781L32.4088 26.7074H30.5368ZM30.4967 20.7674C30.4967 20.1791 30.3005 19.7269 29.9083 19.4108C29.5161 19.0947 28.9411 18.9367 28.1834 18.9367H26.151V22.6113H28.1834C28.9411 22.6113 29.5161 22.4532 29.9083 22.1371C30.3005 21.8123 30.4967 21.3557 30.4967 20.7674ZM41.2131 26.7074V25.2718H35.9314V22.7298H40.4509V21.3206H35.9314V18.9235H41.0259V17.4879H34.1931V26.7074H41.2131Z" fill="white"/>
</svg>
