<svg width="71" height="16" viewBox="0 0 71 16" fill="none" xmlns="http://www.w3.org/2000/svg">
<path d="M66.2958 9.12826C66.6013 7.90623 66.9832 6.76057 67.2887 5.61491C67.4414 5.08027 67.5942 4.46926 67.7469 3.93462C67.8233 3.70549 67.8997 3.62911 68.1288 3.62911C69.0453 3.62911 69.8855 3.62911 70.802 3.62911C71.0311 3.62911 71.0312 3.70549 70.9548 3.93462C69.8091 6.9897 68.6635 10.0448 67.5178 13.0999C66.9068 14.7038 65.7611 15.3912 64.0808 15.3912C57.9707 15.3912 51.9369 15.3912 45.8267 15.3912C45.5212 15.3912 45.4448 15.3148 45.5212 15.0093C45.674 14.551 45.7503 14.0164 45.8267 13.5581C45.9031 13.2526 45.9795 13.1762 46.285 13.1762C49.2637 13.1762 52.2424 13.1762 55.2211 13.1762C57.8179 13.1762 60.4147 13.1762 63.0879 13.1762C63.4698 13.1762 63.7753 13.0999 64.0808 12.9471C64.5391 12.6416 64.6919 12.107 64.4627 11.5723C63.3934 9.05189 62.3242 6.53144 61.2549 4.011C61.1021 3.55273 61.1021 3.55273 61.5604 3.55273C62.4769 3.55273 63.3171 3.55273 64.2336 3.55273C64.4627 3.55273 64.6155 3.62911 64.6918 3.85824C65.1501 5.38578 65.6084 6.91332 66.143 8.44087C66.143 8.74638 66.0666 8.97551 66.2958 9.12826Z" fill="#989898"/>
<path d="M16.9557 5.84398C16.803 6.07311 16.4975 6.07311 16.2683 5.99673C15.5046 5.84398 15.1227 6.14949 14.7408 6.91326C13.977 8.59355 13.1369 10.1975 12.2967 11.8014C12.2203 12.0305 12.0676 12.0305 11.8384 12.0305C10.6164 11.8778 9.39438 11.8014 8.09597 11.725C6.64481 11.5723 5.19364 11.4959 3.74248 11.3431C3.6661 11.3431 3.58972 11.3431 3.51335 11.1904C3.81885 11.1904 4.04799 11.114 4.35349 11.114C5.88104 11.114 7.48495 11.114 9.0125 11.114C9.24163 11.114 9.39438 11.0376 9.47076 10.8085C9.92902 9.96834 10.3109 9.05182 10.7692 8.21167C10.9219 7.90616 10.8455 7.90616 10.54 7.82978C8.55424 7.60065 6.56843 7.37152 4.58263 7.06601C3.20784 6.91326 1.75667 6.7605 0.381885 6.53137C0.229131 6.53137 0.152754 6.45499 0 6.37862C0.152754 6.37862 0.305508 6.37862 0.458263 6.37862C3.97161 6.37862 7.56133 6.37862 11.0747 6.37862C11.2274 6.37862 11.3802 6.37862 11.4566 6.37862C11.6857 6.30224 11.6857 6.14948 11.7621 5.99673C11.7621 5.7676 11.6093 5.84398 11.4566 5.84398C10.2345 5.61485 9.0125 5.38571 7.79046 5.15658C6.87394 5.00383 5.88104 4.7747 4.96451 4.62194C4.88813 4.62194 4.81176 4.62194 4.659 4.46919C5.27002 4.46919 5.80466 4.46919 6.3393 4.46919C7.86684 4.46919 9.31801 4.46919 10.8455 4.46919C11.1511 4.46919 11.3802 4.39281 11.4566 4.0873C11.6093 3.55266 11.9912 3.32353 12.5258 3.47629C12.6022 3.47629 12.6022 3.47629 12.6786 3.47629C12.8314 3.47629 13.0605 3.47629 13.0605 3.24716C13.0605 3.01802 12.8314 3.0944 12.6786 3.0944C10.6164 2.86527 8.55423 2.55976 6.41568 2.33063C5.04089 2.17788 3.58972 2.02512 2.21494 1.71961C2.36769 1.71961 2.59682 1.71961 2.74958 1.71961C6.3393 1.71961 9.92902 1.71961 13.5187 1.71961C13.6715 1.71961 13.7479 1.71961 13.9006 1.71961C14.0534 1.64324 14.2825 1.56686 14.2825 1.33773C14.2825 1.1086 14.0534 1.26135 13.9006 1.18497C11.1511 0.803088 8.40148 0.497581 5.65191 0.192072C5.57553 0.192072 5.57553 0.192073 5.49915 0.115696C10.3109 0.115696 15.1227 -0.189813 20.0108 0.192072C19.7053 0.803089 19.247 1.33773 18.9415 1.87237C18.7888 2.1015 18.636 2.25425 18.3305 2.17788C17.3376 2.02512 16.803 2.33063 16.3447 3.17078C16.2683 3.24716 16.1919 3.39991 16.2683 3.47629C16.3447 3.55266 16.4975 3.55267 16.5738 3.55267C16.9557 3.47629 17.2612 3.47629 17.6431 3.47629C17.414 4.24006 16.9557 4.85107 16.7266 5.53847C16.9557 5.69122 16.9557 5.7676 16.9557 5.84398Z" fill="white"/>
<path d="M44.2984 3.7054C44.7567 3.62902 45.2149 3.7054 45.6732 3.62902C45.8259 3.62902 45.8259 3.78178 45.8259 3.85816C45.8259 4.16366 45.8259 4.46917 45.8259 4.77468C45.9787 4.77468 45.9787 4.6983 46.0551 4.62193C46.9716 3.62902 48.0409 3.32352 49.3393 3.62902C50.4849 3.85816 51.096 4.62193 51.5542 5.61483C52.1652 6.91324 52.1652 8.28803 51.8597 9.66282C51.2487 12.1833 48.3464 13.1762 46.2842 11.5722C46.1315 11.4195 45.9787 11.3431 45.9787 11.6486C45.7496 12.7943 45.4441 14.0163 45.2149 15.162C45.1386 15.3911 45.0622 15.4675 44.833 15.4675C43.7638 15.4675 42.6945 15.4675 41.6252 15.4675C41.3961 15.4675 41.3197 15.3911 41.3961 15.162C41.6252 14.1691 41.8543 13.1762 42.0835 12.1833C42.3126 11.9541 42.389 11.6486 42.5417 11.3431C43.3819 9.58644 44.222 7.82977 44.9094 6.07309C45.3677 5.00381 45.2913 4.24004 44.2984 3.7054ZM46.0551 7.90614C46.0551 8.3644 46.0551 8.74629 46.2842 9.12818C46.5897 9.66282 47.048 9.89195 47.659 9.89195C48.1936 9.89195 48.5755 9.51006 48.7283 8.97542C48.9574 8.28803 48.881 7.60063 48.7283 6.98962C48.5755 6.3786 48.1173 5.99671 47.5062 5.99671C46.8952 5.99671 46.437 6.30222 46.2078 6.98962C46.0551 7.14237 46.0551 7.52426 46.0551 7.90614Z" fill="#989898"/>
<path d="M17.032 5.69127C17.1848 5.76764 17.1848 5.61489 17.2611 5.53851C18.1777 4.39285 19.3997 3.78184 20.8509 3.55271C22.1493 3.32358 23.5241 3.32358 24.8225 3.55271C25.8918 3.78184 26.35 4.46923 26.1209 5.46213C26.0445 5.84402 25.8917 6.14953 25.739 6.53141C25.128 7.75345 24.517 9.05186 23.8296 10.2739C23.6004 10.7322 23.3713 11.1904 23.3713 11.7251C23.3713 11.9542 23.2949 12.0306 23.0658 12.0306C22.302 12.0306 21.4619 12.0306 20.6981 12.0306C20.3926 12.0306 20.2398 11.9542 20.3162 11.6487C20.3162 11.4959 20.3926 11.3432 20.3926 11.114C20.0107 11.3432 19.6288 11.5723 19.2469 11.7251C18.1777 12.1833 17.032 12.4124 15.81 12.1833C14.5116 11.9542 14.1297 11.0377 14.7407 9.89201C15.5808 8.21171 17.032 7.60069 18.7123 7.29518C19.9343 7.06605 21.1564 6.9133 22.302 6.53141C22.6075 6.45504 22.913 6.07315 22.8367 5.76764C22.7603 5.38576 22.4548 5.38576 22.2256 5.38576C21.3855 5.30938 20.6217 5.53851 20.0871 6.22591C19.9343 6.30228 19.7816 6.30228 19.6288 6.30228C18.7887 6.2259 17.9485 6.14953 17.1084 6.07315C16.9556 6.07315 16.8793 5.99677 16.8793 5.84402C17.032 5.76764 17.1084 5.76764 17.032 5.69127ZM21.7674 8.05895C20.8509 8.28809 20.0107 8.51722 19.1706 8.74635C18.9414 8.82273 18.7123 8.8991 18.5595 9.05186C18.254 9.35736 17.9485 9.66287 18.0249 10.1211C18.1013 10.4266 18.5595 10.503 19.0942 10.4266C20.3926 10.1211 21.2327 9.35736 21.7674 8.05895Z" fill="white"/>
<path d="M58.581 11.1137C57.2826 12.3358 55.7551 12.4885 54.1511 12.183C52.6236 11.8775 51.8598 10.5027 52.3945 9.05155C52.6236 8.36416 53.1582 7.90589 53.8456 7.67676C54.6858 7.37125 55.6023 7.2185 56.5188 7.06575C56.9771 6.98937 57.5117 6.83661 57.97 6.68386C58.1227 6.60748 58.4283 6.60748 58.4283 6.37835C58.4283 6.07284 58.3519 5.84371 58.1227 5.61458C57.4354 5.15632 56.1369 5.53821 55.7551 6.2256C55.6787 6.37835 55.6023 6.45473 55.4495 6.45473C54.6094 6.37835 53.6929 6.30198 52.7764 6.2256C52.5472 6.2256 52.5472 6.07284 52.6236 5.92009C52.8527 4.92719 53.5401 4.2398 54.533 3.93429C55.8314 3.5524 57.1298 3.5524 58.5046 3.62878C58.7338 3.62878 59.0393 3.70515 59.2684 3.70515C60.8723 4.01066 61.7125 5.00356 61.7888 6.68386C61.7888 7.90589 61.7888 9.12793 61.7888 10.35C61.7888 10.8846 61.8652 11.4192 62.0944 11.9539C62.1707 12.1066 62.1707 12.183 61.9416 12.183C61.1015 12.183 60.1849 12.183 59.3448 12.183C59.192 12.183 59.1156 12.1066 59.0393 11.9539C58.7338 11.6484 58.6574 11.4192 58.581 11.1137ZM58.4283 8.66966C58.4283 8.59329 58.4283 8.44053 58.4283 8.36416C58.4283 8.2114 58.4283 8.13503 58.2755 8.2114C57.5881 8.51691 56.748 8.59329 56.0606 8.8988C55.6787 9.12793 55.5259 9.43343 55.6023 9.81532C55.6787 10.1972 55.9842 10.4263 56.3661 10.5027C57.2062 10.5791 58.5046 10.1208 58.4283 8.66966Z" fill="#989898"/>
<path d="M44.299 3.70511C45.2919 4.23975 45.3683 5.00353 44.91 6.0728C44.2226 7.90585 43.3824 9.58615 42.5423 11.3428C42.3895 11.6483 42.3132 11.9538 42.084 12.183C40.0219 12.3357 38.036 12.4121 35.9739 12.2593C35.4392 12.183 34.8282 12.183 34.2936 12.0302C33.5298 11.7247 33.2243 10.9609 33.6062 10.1972C33.9117 9.66253 34.0644 9.12789 34.5227 8.66962C35.2101 7.90585 36.1266 7.60035 37.1195 7.37122C38.6471 6.98933 40.1746 7.06571 41.7022 6.98933C41.8549 6.98933 41.9313 6.98933 42.084 6.98933C42.7714 7.06571 43.0769 6.60744 43.3061 6.0728C43.4588 5.69092 43.3824 5.38541 42.9242 5.23265C42.4659 5.0799 42.0077 5.0799 41.5494 5.0799C40.862 5.15628 40.0982 5.23266 39.4108 5.38541C38.8762 5.53816 38.5707 5.84367 38.4179 6.30194C38.1888 6.91295 36.8904 7.06571 36.4321 6.60744C36.3558 6.53107 36.3558 6.37831 36.4321 6.30194C36.8904 4.85077 37.9597 4.01062 39.4872 3.78149C40.5565 3.62874 41.6258 3.55236 42.6187 3.55236C43.1533 3.39961 43.688 3.62874 44.299 3.70511ZM38.2652 11.6483C38.4943 11.6483 38.7234 11.6483 38.9526 11.6483C39.1817 11.6483 39.3345 11.572 39.3345 11.3428C39.3345 11.1901 39.3345 11.1137 39.4108 10.9609C39.5636 10.1972 39.4108 9.35702 40.0982 8.82238C40.1746 8.746 40.1746 8.66962 40.1746 8.59325C40.3274 8.13498 40.0982 7.7531 39.5636 7.7531C38.7998 7.7531 38.2652 8.44049 38.3416 9.20426C38.3416 9.35702 38.3416 9.50977 38.2652 9.58615C37.9597 10.1972 37.6542 10.8082 37.3487 11.3428C37.2723 11.572 37.2723 11.6483 37.5014 11.6483C37.7305 11.6483 37.9597 11.6483 38.2652 11.6483Z" fill="white"/>
<path d="M27.648 12.2593C26.9606 12.2593 26.1969 12.1829 25.4331 11.9538C24.5929 11.6483 24.1347 10.7318 24.4402 9.89163C24.5166 9.73887 24.5929 9.73887 24.7457 9.6625C25.7386 9.58612 26.6551 9.50974 27.648 9.35699C27.8008 9.35699 27.8771 9.35699 27.8771 9.58612C27.8771 10.1971 28.1063 10.3499 28.7173 10.4263C29.4047 10.4263 30.0157 10.3499 30.474 9.81525C30.7795 9.43336 30.7031 9.12785 30.2448 9.05148C29.5574 8.89872 28.87 8.74597 28.1827 8.59322C27.8771 8.51684 27.5716 8.44046 27.2661 8.28771C26.5787 7.9822 26.3496 7.44756 26.5024 6.68379C26.7315 5.53813 27.5716 4.77436 28.4882 4.23972C29.3283 3.78146 30.2448 3.55233 31.1614 3.47595C32.0779 3.39957 32.9944 3.39957 33.9109 3.55233C34.9038 3.70508 35.3621 4.3161 35.2857 5.309C35.2857 5.53813 35.2093 5.69089 34.9038 5.69089C33.9873 5.76726 33.1472 5.84364 32.2306 5.92002C32.0015 5.92002 31.9251 5.92002 31.9251 5.69089C31.9251 5.38538 31.7724 5.23262 31.5432 5.15625C30.9322 5.00349 30.3976 5.00349 29.863 5.46176C29.7102 5.61451 29.5574 5.76726 29.6338 5.99639C29.7102 6.22552 29.8629 6.3019 30.0921 6.3019C30.9322 6.45466 31.7724 6.53103 32.5361 6.76016C33.7582 7.14205 34.2164 7.9822 33.6054 9.12786C32.8417 10.579 31.6196 11.4192 30.0921 11.8774C29.4047 12.1829 28.5645 12.2593 27.648 12.2593Z" fill="white"/>
<path d="M17.0315 5.69141C17.1078 5.76778 17.0315 5.84416 16.9551 5.84416C16.9551 5.76778 16.9551 5.69141 17.0315 5.69141Z" fill="#E8953A"/>
</svg>
