<?xml version="1.0" encoding="UTF-8"?>
<svg xmlns="http://www.w3.org/2000/svg" xmlns:xlink="http://www.w3.org/1999/xlink" width="40pt" height="40pt" viewBox="0 0 40 40" version="1.1">
<g id="surface1">
<path style=" stroke:none;fill-rule:nonzero;fill:rgb(20%,20%,20%);fill-opacity:1;" d="M 0 0 L 39.816406 0 L 39.816406 39.816406 L 0 39.816406 Z M 0 0 "/>
<path style=" stroke:none;fill-rule:nonzero;fill:rgb(100%,100%,100%);fill-opacity:1;" d="M 19.90625 17.695312 C 24.113281 17.695312 27.527344 14.28125 27.527344 10.078125 C 27.527344 5.871094 24.113281 2.457031 19.90625 2.457031 C 15.699219 2.457031 12.289062 5.871094 12.289062 10.078125 C 12.289062 14.28125 15.699219 17.695312 19.90625 17.695312 Z M 19.90625 17.695312 "/>
<path style=" stroke:none;fill-rule:nonzero;fill:rgb(100%,100%,100%);fill-opacity:1;" d="M 4.914062 14.777344 L 8.382812 14.777344 C 8.382812 14.777344 11.847656 22.308594 20.121094 22.308594 C 28.652344 22.308594 31.488281 14.746094 31.488281 14.746094 L 35.390625 14.816406 L 35.390625 25.101562 L 25.285156 25.101562 L 25.253906 34.898438 L 14.917969 34.867188 L 14.886719 25.003906 L 4.949219 24.972656 Z M 4.914062 14.777344 "/>
</g>
</svg>
