<svg width="42" height="34" viewBox="0 0 42 34" fill="none" xmlns="http://www.w3.org/2000/svg">
<path d="M7.60593 32.9078V30.7164C7.60593 29.8764 7.10121 29.3285 6.27204 29.3285C5.83943 29.3285 5.37077 29.4746 5.04631 29.9494C4.79395 29.5476 4.43344 29.3285 3.89268 29.3285C3.53217 29.3285 3.13561 29.4381 2.8472 29.8398V29.4016H2.16223V32.9078H2.8472V30.899C2.8472 30.2781 3.20771 29.9859 3.71242 29.9859C4.21714 29.9859 4.50554 30.3146 4.50554 30.899V32.9078H5.19051V30.899C5.19051 30.2781 5.55102 29.9859 6.05573 29.9859C6.56045 29.9859 6.84886 30.3146 6.84886 30.899V32.9078H7.60593ZM18.8538 29.4016H17.592V28.3424H16.9071V29.4016H16.1861V30.0224H16.9071V31.666C16.9071 32.4695 17.1955 32.9443 18.0607 32.9443C18.3852 32.9443 18.7457 32.8347 18.998 32.6886L18.7817 32.0677C18.5654 32.2138 18.3131 32.2504 18.1328 32.2504C17.7723 32.2504 17.592 32.0312 17.592 31.666V29.9859H18.8538V29.4016ZM25.2709 29.3285C24.8383 29.3285 24.5138 29.5476 24.3336 29.8398V29.4016H23.6486V32.9078H24.3336V30.9355C24.3336 30.3512 24.622 29.9859 25.0906 29.9859C25.2348 29.9859 25.4151 30.0224 25.5593 30.059L25.7756 29.4016C25.6314 29.3285 25.4151 29.3285 25.2709 29.3285ZM15.5732 29.6937C15.2127 29.4381 14.708 29.3285 14.1672 29.3285C13.302 29.3285 12.7612 29.7303 12.7612 30.4242C12.7612 31.0086 13.1578 31.3373 13.9148 31.4468L14.2754 31.4834C14.6719 31.5564 14.9243 31.7025 14.9243 31.8851C14.9243 32.1408 14.6359 32.3234 14.0951 32.3234C13.5543 32.3234 13.1938 32.1408 12.9415 31.9582L12.581 32.506C13.0857 32.8712 13.6985 32.9443 14.059 32.9443C15.0685 32.9443 15.6092 32.4695 15.6092 31.8121C15.6092 31.1912 15.1766 30.899 14.4196 30.7894L14.059 30.7529C13.7346 30.7164 13.4462 30.6068 13.4462 30.3877C13.4462 30.132 13.7346 29.9494 14.1312 29.9494C14.5638 29.9494 14.9964 30.132 15.2127 30.2416L15.5732 29.6937ZM26.028 31.1547C26.028 32.2138 26.7129 32.9808 27.8305 32.9808C28.3352 32.9808 28.6957 32.8712 29.0562 32.5791L28.6957 32.0312C28.4073 32.2504 28.1189 32.3599 27.7945 32.3599C27.1816 32.3599 26.7129 31.8851 26.7129 31.1912C26.7129 30.4972 27.1816 30.0224 27.7945 30.0224C28.1189 30.0224 28.4073 30.132 28.6957 30.3512L29.0562 29.8033C28.6957 29.5111 28.3352 29.4016 27.8305 29.4016C26.749 29.3285 26.028 30.0955 26.028 31.1547ZM21.1971 29.3285C20.1877 29.3285 19.5027 30.059 19.5027 31.1547C19.5027 32.2504 20.2238 32.9808 21.2692 32.9808C21.774 32.9808 22.2787 32.8347 22.6752 32.506L22.3147 31.9947C22.0263 32.2138 21.6658 32.3599 21.3053 32.3599C20.8366 32.3599 20.3319 32.0677 20.2598 31.4468H22.8194C22.8194 31.3373 22.8194 31.2642 22.8194 31.1547C22.8194 30.059 22.1705 29.3285 21.1971 29.3285ZM21.1611 29.9494C21.6658 29.9494 22.0263 30.2781 22.0624 30.826H20.1877C20.2959 30.3512 20.6203 29.9494 21.1611 29.9494ZM11.8239 31.1547V29.4016H11.1389V29.8398C10.8866 29.5111 10.5261 29.3285 10.0213 29.3285C9.04797 29.3285 8.32695 30.0955 8.32695 31.1547C8.32695 32.2138 9.04797 32.9808 10.0213 32.9808C10.5261 32.9808 10.8866 32.7982 11.1389 32.4695V32.9078H11.8239V31.1547ZM9.04797 31.1547C9.04797 30.4972 9.44453 29.9859 10.1295 29.9859C10.7784 29.9859 11.175 30.4972 11.175 31.1547C11.175 31.8121 10.7424 32.3234 10.1295 32.3234C9.44453 32.3234 9.04797 31.8121 9.04797 31.1547ZM35.6896 29.3285C35.257 29.3285 34.9326 29.5476 34.7523 29.8398V29.4016H34.0673V32.9078H34.7523V30.9355C34.7523 30.3512 35.0407 29.9859 35.5094 29.9859C35.6536 29.9859 35.8338 30.0224 35.978 30.059L36.1943 29.4016C36.0501 29.3285 35.8338 29.3285 35.6896 29.3285ZM41.2415 32.3964C41.2775 32.3964 41.3496 32.3964 41.3857 32.433C41.4217 32.433 41.4578 32.4695 41.4938 32.506C41.5299 32.5425 41.5659 32.5791 41.5659 32.6156C41.602 32.6521 41.602 32.6886 41.602 32.7617C41.602 32.7982 41.602 32.8712 41.5659 32.9078C41.5299 32.9443 41.5299 32.9808 41.4938 33.0173C41.4578 33.0539 41.4217 33.0904 41.3857 33.0904C41.3496 33.1269 41.3136 33.1269 41.2415 33.1269C41.2054 33.1269 41.1333 33.1269 41.0973 33.0904C41.0612 33.0539 41.0252 33.0539 40.9891 33.0173C40.9531 32.9808 40.917 32.9443 40.917 32.9078C40.881 32.8712 40.881 32.8347 40.881 32.7617C40.881 32.7252 40.881 32.6521 40.917 32.6156C40.9531 32.5791 40.9531 32.5425 40.9891 32.506C41.0252 32.4695 41.0612 32.433 41.0973 32.433C41.1333 32.3964 41.2054 32.3964 41.2415 32.3964ZM41.2415 33.0173C41.2775 33.0173 41.3136 33.0173 41.3496 32.9808C41.3857 32.9808 41.4217 32.9443 41.4217 32.9078C41.4578 32.8712 41.4578 32.8712 41.4938 32.8347C41.4938 32.7982 41.5299 32.7617 41.5299 32.7252C41.5299 32.6886 41.5299 32.6521 41.4938 32.6156C41.4938 32.5791 41.4578 32.5425 41.4217 32.5425C41.3857 32.506 41.3857 32.506 41.3496 32.4695C41.3136 32.4695 41.2775 32.433 41.2415 32.433C41.2054 32.433 41.1694 32.433 41.1333 32.4695C41.0973 32.4695 41.0612 32.506 41.0612 32.5425C41.0252 32.5791 41.0252 32.5791 40.9891 32.6156C40.9891 32.6521 40.9531 32.6886 40.9531 32.7252C40.9531 32.7617 40.9531 32.7982 40.9891 32.8347C40.9891 32.8712 41.0252 32.9078 41.0612 32.9078C41.0973 32.9443 41.0973 32.9443 41.1333 32.9808C41.1694 33.0173 41.2054 33.0173 41.2415 33.0173ZM41.2415 32.5791C41.2775 32.5791 41.3136 32.5791 41.3496 32.6156C41.3857 32.6521 41.3857 32.6521 41.3857 32.6886C41.3857 32.7252 41.3857 32.7252 41.3496 32.7617C41.3496 32.7617 41.3136 32.7982 41.2775 32.7982L41.3857 32.9078H41.3136L41.2054 32.7982H41.1694V32.9078H41.0973V32.5791H41.2415ZM41.1694 32.6521V32.7252H41.2415H41.2775C41.2775 32.7252 41.2775 32.7252 41.2775 32.6886V32.6521H41.2415H41.1694ZM33.0219 31.1547V29.4016H32.3369V29.8398C32.0845 29.5111 31.724 29.3285 31.2193 29.3285C30.2459 29.3285 29.5249 30.0955 29.5249 31.1547C29.5249 32.2138 30.2459 32.9808 31.2193 32.9808C31.724 32.9808 32.0845 32.7982 32.3369 32.4695V32.9078H33.0219V31.1547ZM30.2099 31.1547C30.2099 30.4972 30.6064 29.9859 31.2914 29.9859C31.9403 29.9859 32.3369 30.4972 32.3369 31.1547C32.3369 31.8121 31.9043 32.3234 31.2914 32.3234C30.6425 32.3234 30.2099 31.8121 30.2099 31.1547ZM39.9797 31.1547V28.0137H39.2947V29.8398C39.0424 29.5111 38.6819 29.3285 38.1771 29.3285C37.2038 29.3285 36.4827 30.0955 36.4827 31.1547C36.4827 32.2138 37.2038 32.9808 38.1771 32.9808C38.6819 32.9808 39.0424 32.7982 39.2947 32.4695V32.9078H39.9797V31.1547ZM37.2038 31.1547C37.2038 30.4972 37.6003 29.9859 38.2853 29.9859C38.9342 29.9859 39.3308 30.4972 39.3308 31.1547C39.3308 31.8121 38.8982 32.3234 38.2853 32.3234C37.6003 32.3234 37.2038 31.8121 37.2038 31.1547Z" fill="white"/>
<path d="M27.2907 2.8125H14.781V23.4846H27.2907V2.8125Z" fill="white"/>
<path d="M16.0427 13.1503C16.0427 8.95012 17.9894 5.22476 20.9817 2.81423C18.7826 1.06112 16.0066 0.00195312 12.9783 0.00195312C5.8042 0.00195312 0 5.88218 0 13.1503C0 20.4184 5.8042 26.2986 12.9783 26.2986C16.0066 26.2986 18.7826 25.2394 20.9817 23.4863C17.9894 21.0758 16.0427 17.3139 16.0427 13.1503Z" fill="#5E5E5E"/>
<path d="M40.7731 21.2935V20.8553H40.9534V20.7822H40.5208V20.8553H40.701V21.2935H40.7731ZM41.6023 21.2935V20.7822H41.4581L41.3139 21.1475L41.1697 20.7822H41.0255V21.2935H41.1336V20.8918L41.2778 21.2205H41.386L41.5302 20.8918V21.2935H41.6023Z" fill="#838383"/>
<path d="M41.9996 13.1483C41.9996 20.4164 36.1954 26.2966 29.0213 26.2966C25.993 26.2966 23.2171 25.2375 21.0179 23.4844C24.0462 21.0738 25.9569 17.3485 25.9569 13.1483C25.9569 8.94816 24.0102 5.22281 21.0179 2.81228C23.2171 1.05917 25.993 -1.39325e-07 29.0213 -1.39325e-07C36.1954 -1.39325e-07 41.9996 5.88022 41.9996 13.1483Z" fill="#989898"/>
</svg>
