<svg width="58" height="10" viewBox="0 0 58 10" fill="none" xmlns="http://www.w3.org/2000/svg">
<path d="M51.1518 3.96013C50.8407 4.16826 50.3892 4.27116 49.7714 4.27116H49.5033H49.1588L49.6286 1.83569H49.8666H50.0791C50.5919 1.83569 50.9664 1.91491 51.2245 2.07569C51.4262 2.20179 51.6653 2.45141 51.6653 2.9251C51.6653 3.49582 51.3871 3.80286 51.1518 3.96013ZM14.6052 7.01672H9.86403L10.1705 5.42479H13.1443L13.4823 3.63176H10.537L10.8217 2.05624H15.5546L14.6052 7.01672ZM53.7058 0.689788C53.0087 0.231101 51.9539 4.22015e-07 50.5709 4.22015e-07H46.9487L45.6023 7.01695H40.8575L41.1617 5.42502H44.0203L44.3602 3.63692L41.5033 3.64184L41.8093 2.05671H44.7531L45.1447 0.000234676H39.1648L37.8868 6.65694H35.6941L36.9814 0.000234676H33.8552L32.5772 6.65694H30.4392L31.7277 0.000234676H28.6047L27.2548 7.01719H22.4763L22.7774 5.42526H25.6489L25.9871 3.64746L23.1199 3.64489L23.4244 2.05671H26.401L26.7907 0.000234676H8.16065L7.10019 5.56097L4.98757 4.22015e-07H1.74514L-3.35327e-08 9.0746H3.09641L4.15248 3.36105L6.20284 9.0746H17.3012L18.6503 2.05647H20.3869L19.037 9.0746H48.2402L49.086 4.64406L50.4571 9.0746H53.5552L52.1358 5.45456L52.4598 5.38729C53.1738 5.24056 53.7327 4.92438 54.1205 4.45069C54.5089 3.97255 54.7062 3.35871 54.7062 2.62134C54.7065 1.76256 54.3798 1.13113 53.7058 0.689788Z" fill="white"/>
<path d="M56.2598 8.00138L56.6817 7.98029C56.7711 7.97631 56.8417 7.96341 56.891 7.94302C56.9403 7.9231 56.9777 7.89263 57.0016 7.85161C57.0255 7.81083 57.037 7.76794 57.0338 7.722C57.0302 7.65403 57.0016 7.59989 56.9486 7.5584C56.8954 7.51738 56.8133 7.50051 56.7032 7.50543L56.2337 7.5284L56.2598 8.00138ZM56.1038 8.80719L56.0278 7.3798L56.6876 7.34793C56.8195 7.34136 56.9203 7.34933 56.9909 7.37183C57.0617 7.39387 57.1186 7.43652 57.1635 7.49957C57.2082 7.56239 57.2331 7.63223 57.2363 7.71098C57.2424 7.81224 57.2123 7.89896 57.1479 7.97209C57.0834 8.04451 56.9806 8.09397 56.8392 8.11975C56.8922 8.14178 56.9335 8.16288 56.9613 8.18467C57.0216 8.23249 57.0793 8.29343 57.1344 8.36702L57.4118 8.74297L57.1667 8.75493L56.9542 8.46757C56.8922 8.38437 56.8414 8.32108 56.8019 8.27749C56.7626 8.23389 56.7272 8.20413 56.6969 8.18725C56.6673 8.17037 56.6356 8.15936 56.6056 8.15327C56.5826 8.14998 56.5462 8.14951 56.4954 8.15209L56.2683 8.16311L56.3011 8.79758L56.1038 8.80719Z" fill="white"/>
<path d="M55.4581 8.11628C55.4429 7.82095 55.5474 7.53782 55.7538 7.31891C55.9601 7.09952 56.2438 6.96991 56.552 6.95491C57.1864 6.92327 57.7292 7.39367 57.7619 8.0033C57.7629 8.02205 57.7641 8.04198 57.7641 8.06002C57.7641 8.64504 57.284 9.13514 56.669 9.16608C56.0336 9.19701 55.4913 8.72614 55.4581 8.11628ZM56.5388 6.72732C56.1689 6.74631 55.827 6.90147 55.5787 7.16609C55.3301 7.43047 55.2032 7.77267 55.2222 8.1287C55.2623 8.86278 55.9164 9.42929 56.6817 9.39249C57.4459 9.35452 58.0373 8.72614 57.9978 7.99205V7.99135C57.9592 7.25703 57.305 6.69006 56.5388 6.72732Z" fill="white"/>
</svg>
