<svg width="55" height="56" viewBox="0 0 55 56" fill="none" xmlns="http://www.w3.org/2000/svg">
<path d="M27.5 55.9016C42.6878 55.9016 55 43.3876 55 27.9508C55 12.514 42.6878 0 27.5 0C12.3122 0 0 12.514 0 27.9508C0 43.3876 12.3122 55.9016 27.5 55.9016Z" fill="#333333"/>
<path fill-rule="evenodd" clip-rule="evenodd" d="M6.31677 28.3139C6.31677 28.3139 18.5593 31.0004 20.2796 25.2177C21.9663 19.5477 16.3726 18.3751 16.3726 18.3751H13.9153V27.8825H11.2822V18.6842H8.95064V17.7122C8.95064 17.7122 17.7842 17.6764 18.7596 17.7923C23.6642 18.3751 26.0512 27.3056 18.1962 29.0851C12.0866 30.4692 6.31677 28.3139 6.31677 28.3139ZM11.2673 30.3621V36.0692C11.2673 36.0692 11.2519 37.2836 10.1741 37.2836C9.09631 37.2836 8.83218 37.2836 8.83218 37.2836V38.2361H16.4308V37.1881H14.7499C14.7499 37.1881 13.8829 37.0881 13.8829 36.1921C13.8829 35.296 13.8829 30.3096 13.8829 30.3096H11.2823L11.2673 30.3621ZM20.979 38.2834H28.6322V37.0907H26.4322C26.4322 37.0907 25.7175 36.6804 25.7175 35.8496C25.7175 35.0189 25.7175 21.4858 25.7175 21.4858L34.2477 38.2653L42.5922 21.8071L42.4089 36.0054C42.4089 36.0054 42.6182 37.1788 41.4375 37.1788C40.2569 37.1788 40.0065 37.2151 40.0065 37.2151L39.9922 38.1288H47.6458V37.0427H45.8592C45.8592 37.0427 45.1145 37.1169 45.1145 36.2858C45.1145 35.4546 45.1145 19.0529 45.1145 19.0529C45.1145 19.0529 45.1255 18.6764 45.7846 18.6764H47.3356V17.5156H42.5869L34.7688 33.984L26.9995 17.6319H22.7504V18.6161H24.0995C24.0995 18.6161 24.5673 18.5637 24.5673 19.2863C24.5673 20.009 24.384 35.9261 24.384 35.9261C24.384 35.9261 24.4457 37.1616 23.1113 37.1616C21.7769 37.1616 20.9818 37.1616 20.9818 37.1616V38.3625L20.979 38.2834Z" fill="white"/>
</svg>
