<svg width="62" height="20" viewBox="0 0 62 20" fill="none" xmlns="http://www.w3.org/2000/svg">
<path d="M49.2884 1.99706L54.4603 1.11601V19.7944H49.2884V1.99706ZM56.8281 1.99706V19.7944H62V1.11601L56.8281 1.99706ZM41.9668 19.7944H47.1387V6.13803H41.9668V19.7944ZM7.85126 8.07636C7.19699 8.04699 5.70151 7.95888 5.70151 6.66667C5.70151 5.11013 7.88241 5.11013 8.69246 5.11013C10.1256 5.11013 11.995 5.52129 13.3035 5.87372C13.3035 5.87372 14.0513 6.10866 14.6744 6.37298L14.7367 6.40235V6.34361V2.17327L14.6432 2.14391C13.0854 1.61527 11.2472 1.14537 7.88241 1.14537C2.05628 1.11601 0 4.31718 0 7.04846C0 8.63436 0.716583 12.3348 7.38392 12.7753C7.94472 12.8047 9.4402 12.8928 9.4402 14.2144C9.4402 15.301 8.22513 15.9471 6.13769 15.9471C3.86332 15.9471 1.68241 15.3891 0.342714 14.8899V19.2658C2.33668 19.7651 4.5799 20 7.22814 20C12.9296 20 15.4533 16.975 15.4533 13.9794C15.4844 10.5727 12.6181 8.37004 7.85126 8.07636ZM39.0382 5.93245C34.2714 6.07929 31.8412 8.10573 31.8412 12.0999V19.7944H37.0442V13.5389C37.0442 11.1307 37.3869 10.1028 40.409 10.0147V6.02056C39.9106 5.90308 39.0382 5.93245 39.0382 5.93245ZM25.0492 6.10866C24.9246 6.37298 24.1146 8.57562 22.1206 10.8664V1.11601L16.793 2.11454V19.7944H22.1206V14.3319C23.6784 16.5051 24.4261 19.7944 24.4261 19.7944H30.8131C30.19 17.3275 27.4171 12.7753 27.4171 12.7753C29.9095 9.8091 30.9688 6.66667 31.1558 6.13803H25.0492V6.10866ZM44.5216 4.81645C45.9236 4.81645 47.0764 3.72981 47.0764 2.40822C47.0764 1.08664 45.9236 0 44.5216 0C43.1196 0 41.9668 1.08664 41.9668 2.40822C41.998 3.75918 43.1196 4.81645 44.5216 4.81645Z" fill="white"/>
</svg>
