<svg width="27" height="30" viewBox="0 0 27 30" fill="none" xmlns="http://www.w3.org/2000/svg">
<g clip-path="url(#clip0)">
<path d="M25.7448 21.2279C24.6128 20.0115 22.4946 18.1816 22.4946 12.1875C22.4946 7.63477 19.3024 3.99023 14.9981 3.09609V1.875C14.9981 0.839648 14.1591 0 13.1243 0C12.0895 0 11.2505 0.839648 11.2505 1.875V3.09609C6.94618 3.99023 3.754 7.63477 3.754 12.1875C3.754 18.1816 1.63583 20.0115 0.5038 21.2279C0.152238 21.6059 -0.0036216 22.0576 -0.000691911 22.5C0.0057534 23.4609 0.759855 24.375 1.88017 24.375H24.3685C25.4888 24.375 26.2435 23.4609 26.2493 22.5C26.2522 22.0576 26.0964 21.6053 25.7448 21.2279ZM3.95614 21.5625C5.1995 19.9236 6.55888 17.2072 6.56532 12.2215C6.56532 12.2098 6.56181 12.1992 6.56181 12.1875C6.56181 8.56289 9.4997 5.625 13.1243 5.625C16.7489 5.625 19.6868 8.56289 19.6868 12.1875C19.6868 12.1992 19.6833 12.2098 19.6833 12.2215C19.6897 17.2078 21.0491 19.9242 22.2925 21.5625H3.95614ZM13.1243 30C15.1938 30 16.8726 28.3213 16.8726 26.25H9.37607C9.37607 28.3213 11.0548 30 13.1243 30Z" fill="#828282"/>
</g>
<defs>
<clipPath id="clip0">
<rect width="26.25" height="30" fill="white"/>
</clipPath>
</defs>
</svg>
