<svg width="58" height="25" viewBox="0 0 58 25" fill="none" xmlns="http://www.w3.org/2000/svg">
<g clip-path="url(#clip0)">
<path d="M25.9765 18.8574C27.3193 17.5342 28.125 15.874 28.125 14.0625C28.125 10.1562 24.3896 6.92871 19.5214 6.35254C17.9834 3.54004 14.3701 1.5625 10.1562 1.5625C4.54586 1.5625 -3.73439e-05 5.05859 -3.73439e-05 9.375C-3.73439e-05 11.1816 0.805627 12.8418 2.1484 14.1699C1.40133 15.6689 0.327111 16.8311 0.30758 16.8506C-3.73423e-05 17.1777 -0.087928 17.6562 0.0927361 18.0713C0.268517 18.4863 0.678674 18.7549 1.12789 18.7549C3.7402 18.7549 5.84957 17.7686 7.24117 16.8603C7.69039 16.9629 8.15426 17.041 8.62789 17.0996C10.1611 19.9023 13.7597 21.875 17.9687 21.875C18.9843 21.875 19.9609 21.7578 20.8886 21.543C22.2802 22.4463 24.3847 23.4375 27.0019 23.4375C27.4511 23.4375 27.8564 23.1689 28.0371 22.7539C28.2129 22.3389 28.1298 21.8603 27.8222 21.5332C27.8027 21.5186 26.7236 20.3564 25.9765 18.8574ZM6.79684 14.3506L5.96188 14.8926C5.2734 15.3369 4.57027 15.6885 3.85738 15.9375C3.98922 15.708 4.12106 15.4639 4.24801 15.2148L5.00485 13.6963L3.79391 12.5C3.13473 11.8457 2.34371 10.7764 2.34371 9.375C2.34371 6.41113 5.92281 3.90625 10.1562 3.90625C14.3896 3.90625 17.9687 6.41113 17.9687 9.375C17.9687 12.3389 14.3896 14.8437 10.1562 14.8437C9.35055 14.8437 8.54488 14.751 7.76363 14.5703L6.79684 14.3506ZM24.331 17.1875L23.125 18.3789L23.8818 19.8975C24.0088 20.1465 24.1406 20.3906 24.2724 20.6201C23.5595 20.3711 22.8564 20.0195 22.1679 19.5752L21.333 19.0332L20.3613 19.2578C19.58 19.4385 18.7744 19.5312 17.9687 19.5312C15.332 19.5312 12.9785 18.5498 11.5576 17.1045C16.5039 16.5771 20.3125 13.3252 20.3125 9.375C20.3125 9.20898 20.2929 9.04785 20.2783 8.88672C23.4228 9.59473 25.7812 11.6602 25.7812 14.0625C25.7812 15.4639 24.9902 16.5332 24.331 17.1875Z" fill="#820000"/>
</g>
<g clip-path="url(#clip1)">
<path d="M54.9765 18.8574C56.3193 17.5342 57.125 15.874 57.125 14.0625C57.125 10.1562 53.3896 6.92871 48.5214 6.35254C46.9834 3.54004 43.3701 1.5625 39.1562 1.5625C33.5459 1.5625 29 5.05859 29 9.375C29 11.1816 29.8056 12.8418 31.1484 14.1699C30.4013 15.6689 29.3271 16.8311 29.3076 16.8506C29 17.1777 28.9121 17.6562 29.0927 18.0713C29.2685 18.4863 29.6787 18.7549 30.1279 18.7549C32.7402 18.7549 34.8496 17.7686 36.2412 16.8603C36.6904 16.9629 37.1543 17.041 37.6279 17.0996C39.1611 19.9023 42.7597 21.875 46.9687 21.875C47.9843 21.875 48.9609 21.7578 49.8886 21.543C51.2802 22.4463 53.3847 23.4375 56.0019 23.4375C56.4511 23.4375 56.8564 23.1689 57.0371 22.7539C57.2129 22.3389 57.1298 21.8603 56.8222 21.5332C56.8027 21.5186 55.7236 20.3564 54.9765 18.8574ZM35.7968 14.3506L34.9619 14.8926C34.2734 15.3369 33.5703 15.6885 32.8574 15.9375C32.9892 15.708 33.1211 15.4639 33.248 15.2148L34.0048 13.6963L32.7939 12.5C32.1347 11.8457 31.3437 10.7764 31.3437 9.375C31.3437 6.41113 34.9228 3.90625 39.1562 3.90625C43.3896 3.90625 46.9687 6.41113 46.9687 9.375C46.9687 12.3389 43.3896 14.8437 39.1562 14.8437C38.3506 14.8437 37.5449 14.751 36.7636 14.5703L35.7968 14.3506ZM53.331 17.1875L52.125 18.3789L52.8818 19.8975C53.0088 20.1465 53.1406 20.3906 53.2724 20.6201C52.5595 20.3711 51.8564 20.0195 51.1679 19.5752L50.333 19.0332L49.3613 19.2578C48.58 19.4385 47.7744 19.5312 46.9687 19.5312C44.332 19.5312 41.9785 18.5498 40.5576 17.1045C45.5039 16.5771 49.3125 13.3252 49.3125 9.375C49.3125 9.20898 49.2929 9.04785 49.2783 8.88672C52.4228 9.59473 54.7812 11.6602 54.7812 14.0625C54.7812 15.4639 53.9902 16.5332 53.331 17.1875Z" fill="white"/>
</g>
<defs>
<clipPath id="clip0">
<rect width="29" height="25" fill="white"/>
</clipPath>
<clipPath id="clip1">
<rect width="29" height="25" fill="white" transform="translate(29)"/>
</clipPath>
</defs>
</svg>
