<svg width="58" height="25" viewBox="0 0 58 25" fill="none" xmlns="http://www.w3.org/2000/svg">
<g clip-path="url(#clip0)">
<path d="M28.57 8.03505V21.414C28.5717 21.884 28.4806 22.3498 28.302 22.7846C28.1234 23.2194 27.8607 23.6147 27.5291 23.9478C27.1975 24.2809 26.8034 24.5453 26.3694 24.7259C25.9354 24.9064 25.47 24.9996 25 25H5.35668C3.936 25 2.57351 24.4356 1.56894 23.4311C0.564363 22.4265 0 21.064 0 19.6433V5.3567C0 3.93602 0.564363 2.57353 1.56894 1.56896C2.57351 0.564386 3.936 2.28774e-05 5.35668 2.28774e-05H21.4139C21.884 -0.00165908 22.3498 0.0894186 22.7846 0.268038C23.2194 0.446658 23.6146 0.709309 23.9478 1.04095C24.2809 1.37258 24.5453 1.76668 24.7258 2.20068C24.9064 2.63467 24.9996 3.10002 25 3.57008V4.47458C25.9452 4.47457 26.8518 4.84939 27.521 5.51683C28.1902 6.18427 28.5675 7.08987 28.57 8.03505ZM25.8917 8.03505C25.8917 7.79855 25.7977 7.57174 25.6305 7.40451C25.4633 7.23728 25.2365 7.14333 25 7.14333H6.2484C6.02071 7.12971 5.80682 7.02966 5.65043 6.86362C5.49404 6.69759 5.40694 6.47811 5.40694 6.25002C5.40694 6.02193 5.49404 5.80244 5.65043 5.63641C5.80682 5.47038 6.02071 5.37033 6.2484 5.3567H22.3216V3.57008C22.3212 3.45174 22.2974 3.33466 22.2514 3.22562C22.2054 3.11657 22.1383 3.01772 22.0539 2.93479C21.9695 2.85186 21.8694 2.7865 21.7596 2.74248C21.6498 2.69847 21.5323 2.67667 21.4139 2.67836H5.35668C4.6466 2.67921 3.96585 2.96166 3.46374 3.46377C2.96164 3.96587 2.67919 4.64662 2.67834 5.3567V19.6433C2.67919 20.3534 2.96164 21.0342 3.46374 21.5363C3.96585 22.0384 4.6466 22.3208 5.35668 22.3217H25C25.118 22.3208 25.2348 22.2966 25.3435 22.2505C25.4521 22.2043 25.5506 22.1371 25.6332 22.0528C25.7158 21.9684 25.7809 21.8685 25.8247 21.7589C25.8685 21.6492 25.8902 21.532 25.8885 21.414L25.8917 8.03505Z" fill="#820000"/>
<path d="M15.9296 10.2817C16.0277 10.2842 16.121 10.3245 16.1901 10.3942C16.2592 10.4639 16.2987 10.5576 16.3003 10.6557V14.2577H18.5376C18.6121 14.2567 18.6851 14.278 18.7475 14.3188C18.8098 14.3596 18.8585 14.4181 18.8873 14.4868C18.9161 14.5555 18.9238 14.6312 18.9093 14.7043C18.8949 14.7773 18.8589 14.8444 18.8061 14.8969L15.1881 18.4414C15.118 18.5111 15.0232 18.5502 14.9244 18.5502C14.8256 18.5502 14.7308 18.5111 14.6607 18.4414L11.0555 14.8937C11.0026 14.8412 10.9667 14.7742 10.9522 14.7011C10.9377 14.628 10.9454 14.5523 10.9742 14.4836C11.0031 14.4149 11.0518 14.3564 11.1141 14.3156C11.1764 14.2748 11.2495 14.2535 11.324 14.2545H13.5612V10.6557C13.5629 10.5565 13.6033 10.4618 13.6737 10.392C13.7442 10.3221 13.8392 10.2826 13.9384 10.2817H15.9455H15.9296Z" fill="#820000"/>
</g>
<g clip-path="url(#clip1)">
<path d="M57.57 8.03505V21.414C57.5717 21.884 57.4806 22.3498 57.302 22.7846C57.1234 23.2194 56.8607 23.6147 56.5291 23.9478C56.1975 24.2809 55.8034 24.5453 55.3694 24.7259C54.9354 24.9064 54.47 24.9996 54 25H34.3567C32.936 25 31.5735 24.4356 30.5689 23.4311C29.5644 22.4265 29 21.064 29 19.6433V5.3567C29 3.93602 29.5644 2.57353 30.5689 1.56896C31.5735 0.564386 32.936 2.28774e-05 34.3567 2.28774e-05H50.4139C50.884 -0.00165908 51.3498 0.0894186 51.7846 0.268038C52.2194 0.446658 52.6146 0.709309 52.9478 1.04095C53.2809 1.37258 53.5453 1.76668 53.7258 2.20068C53.9064 2.63467 53.9996 3.10002 54 3.57008V4.47458C54.9452 4.47457 55.8518 4.84939 56.521 5.51683C57.1902 6.18427 57.5675 7.08987 57.57 8.03505ZM54.8917 8.03505C54.8917 7.79855 54.7977 7.57174 54.6305 7.40451C54.4633 7.23728 54.2365 7.14333 54 7.14333H35.2484C35.0207 7.12971 34.8068 7.02966 34.6504 6.86362C34.494 6.69759 34.4069 6.47811 34.4069 6.25002C34.4069 6.02193 34.494 5.80244 34.6504 5.63641C34.8068 5.47038 35.0207 5.37033 35.2484 5.3567H51.3216V3.57008C51.3212 3.45174 51.2974 3.33466 51.2514 3.22562C51.2054 3.11657 51.1383 3.01772 51.0539 2.93479C50.9695 2.85186 50.8694 2.7865 50.7596 2.74248C50.6498 2.69847 50.5323 2.67667 50.4139 2.67836H34.3567C33.6466 2.67921 32.9659 2.96166 32.4637 3.46377C31.9616 3.96587 31.6792 4.64662 31.6783 5.3567V19.6433C31.6792 20.3534 31.9616 21.0342 32.4637 21.5363C32.9659 22.0384 33.6466 22.3208 34.3567 22.3217H54C54.118 22.3208 54.2348 22.2966 54.3435 22.2505C54.4521 22.2043 54.5506 22.1371 54.6332 22.0528C54.7158 21.9684 54.7809 21.8685 54.8247 21.7589C54.8685 21.6492 54.8902 21.532 54.8885 21.414L54.8917 8.03505Z" fill="white"/>
<path d="M44.9296 10.2817C45.0277 10.2842 45.121 10.3245 45.1901 10.3942C45.2592 10.4639 45.2987 10.5576 45.3003 10.6557V14.2577H47.5376C47.6121 14.2567 47.6851 14.278 47.7475 14.3188C47.8098 14.3596 47.8585 14.4181 47.8873 14.4868C47.9161 14.5555 47.9238 14.6312 47.9093 14.7043C47.8949 14.7773 47.8589 14.8444 47.8061 14.8969L44.1881 18.4414C44.118 18.5111 44.0232 18.5502 43.9244 18.5502C43.8256 18.5502 43.7308 18.5111 43.6607 18.4414L40.0555 14.8937C40.0026 14.8412 39.9667 14.7742 39.9522 14.7011C39.9377 14.628 39.9454 14.5523 39.9742 14.4836C40.0031 14.4149 40.0518 14.3564 40.1141 14.3156C40.1764 14.2748 40.2495 14.2535 40.324 14.2545H42.5612V10.6557C42.5629 10.5565 42.6033 10.4618 42.6737 10.392C42.7442 10.3221 42.8392 10.2826 42.9384 10.2817H44.9455H44.9296Z" fill="white"/>
</g>
<defs>
<clipPath id="clip0">
<rect width="29" height="25" fill="white"/>
</clipPath>
<clipPath id="clip1">
<rect width="29" height="25" fill="white" transform="translate(29)"/>
</clipPath>
</defs>
</svg>
