<svg width="34" height="28" viewBox="0 0 34 28" fill="none" xmlns="http://www.w3.org/2000/svg">
<path d="M31.1719 21.6289C32.7832 20.041 33.75 18.0488 33.75 15.875C33.75 11.1875 29.2676 7.31445 23.4258 6.62305C21.5801 3.24805 17.2442 0.875 12.1875 0.875C5.45511 0.875 2.84264e-05 5.07031 2.84264e-05 10.25C2.84264e-05 12.418 0.966825 14.4102 2.57815 16.0039C1.68167 17.8027 0.392607 19.1973 0.369169 19.2207C2.8437e-05 19.6133 -0.10544 20.1875 0.111357 20.6855C0.322294 21.1836 0.814482 21.5059 1.35354 21.5059C4.48831 21.5059 7.01956 20.3223 8.68948 19.2324C9.22854 19.3555 9.78518 19.4492 10.3535 19.5195C12.1934 22.8828 16.5117 25.25 21.5625 25.25C22.7813 25.25 23.9532 25.1094 25.0664 24.8516C26.7364 25.9355 29.2617 27.125 32.4024 27.125C32.9414 27.125 33.4278 26.8027 33.6446 26.3047C33.8555 25.8066 33.7559 25.2324 33.3867 24.8398C33.3633 24.8223 32.0684 23.4277 31.1719 21.6289ZM8.15628 16.2207L7.15433 16.8711C6.32815 17.4043 5.4844 17.8262 4.62893 18.125C4.78714 17.8496 4.94534 17.5566 5.09768 17.2578L6.00589 15.4355L4.55276 14C3.76175 13.2148 2.81253 11.9316 2.81253 10.25C2.81253 6.69336 7.10745 3.6875 12.1875 3.6875C17.2676 3.6875 21.5625 6.69336 21.5625 10.25C21.5625 13.8066 17.2676 16.8125 12.1875 16.8125C11.2207 16.8125 10.2539 16.7012 9.31643 16.4844L8.15628 16.2207ZM29.1973 19.625L27.75 21.0547L28.6582 22.877C28.8106 23.1758 28.9688 23.4687 29.127 23.7441C28.2715 23.4453 27.4278 23.0234 26.6016 22.4902L25.5996 21.8398L24.4336 22.1094C23.4961 22.3262 22.5293 22.4375 21.5625 22.4375C18.3985 22.4375 15.5742 21.2598 13.8692 19.5254C19.8047 18.8926 24.375 14.9902 24.375 10.25C24.375 10.0508 24.3516 9.85742 24.334 9.66406C28.1075 10.5137 30.9375 12.9922 30.9375 15.875C30.9375 17.5566 29.9883 18.8398 29.1973 19.625Z" fill="#828282"/>
</svg>
