<svg width="108" height="30" viewBox="0 0 108 30" fill="none" xmlns="http://www.w3.org/2000/svg">
<g clip-path="url(#clip0)">
<path d="M28.0005 0.0610809H2C0.895431 0.0610809 0 0.956511 0 2.06108V27.9208C0 29.0254 0.895432 29.9208 2 29.9208H28.0005C29.105 29.9208 30.0005 29.0254 30.0005 27.9208V2.06108C30.0005 0.956511 29.105 0.0610809 28.0005 0.0610809Z" fill="#E52525"/>
<path d="M39.9453 22.6855V21.5928C40.3264 21.5395 40.6986 21.436 41.0523 21.2851C41.3065 21.1736 41.5189 20.9851 41.6592 20.7466C41.805 20.472 41.8902 20.1697 41.9093 19.8597C41.9426 19.5008 41.9593 19.0558 41.9593 18.5249V2.00905H40.6113C40.0907 1.98329 39.57 2.06018 39.0793 2.23529C38.7151 2.39724 38.3977 2.64776 38.1564 2.9638C37.8553 3.36744 37.6248 3.81871 37.4744 4.29864C37.285 4.85671 37.1297 5.38461 37.0085 5.88235H34.7354V0.0678711H54.3273V5.88235H52.0541C51.8435 5.1282 51.6768 4.57617 51.5541 4.22624C51.4501 3.91143 51.3138 3.60815 51.1472 3.32127C51.0148 3.09542 50.8553 2.88648 50.6721 2.69909C50.5158 2.54065 50.3365 2.40643 50.1402 2.3009C49.9177 2.18958 49.6792 2.11326 49.4333 2.07466C49.067 2.01885 48.6967 1.99388 48.3263 2H47.1215V18.5158C47.1157 18.9613 47.1324 19.4068 47.1715 19.8507C47.1922 20.1049 47.2544 20.354 47.3556 20.5882C47.4331 20.7588 47.5435 20.9126 47.6807 21.0407C47.8386 21.175 48.0185 21.2814 48.2126 21.3552C48.5099 21.4675 48.8198 21.5434 49.1355 21.5814V22.6742L39.9453 22.6855Z" fill="#303030"/>
<path d="M56.8595 21.5928C57.2796 21.5138 57.6688 21.3186 57.9824 21.0294C58.205 20.7586 58.3488 20.4323 58.3984 20.086C58.4894 19.3665 58.5259 18.6412 58.5075 17.9163V10.6335C58.5138 10.1956 58.4888 9.75784 58.4325 9.32353C58.3999 9.03999 58.3027 8.7676 58.1483 8.52715C58.0057 8.32682 57.8096 8.17011 57.5823 8.07466C57.2843 7.95179 56.9742 7.86005 56.6572 7.8009V6.66968L61.2352 6.5362H63.3174V17.8959C63.3174 18.5143 63.3257 18.9917 63.3424 19.328C63.3513 19.5888 63.3764 19.8487 63.4174 20.1063C63.4462 20.2739 63.4935 20.4378 63.5583 20.595C63.619 20.7386 63.7002 20.8727 63.7993 20.9932C63.9198 21.1307 64.0666 21.243 64.2312 21.3235C64.4698 21.4409 64.7216 21.5297 64.9813 21.5882V22.681H56.8595V21.5928ZM63.1923 0.0678711V4.12669H58.6234V0.0678711H63.1923Z" fill="#303030"/>
<path d="M67.5635 21.5928C67.9596 21.5003 68.3315 21.3252 68.6546 21.0792C68.8776 20.8657 69.0332 20.5921 69.1024 20.2919C69.2129 19.7104 69.2579 19.1185 69.2365 18.5271V8.74887H67.2044V7.60633C67.5782 7.57154 67.9453 7.4855 68.2955 7.35068C68.9456 7.0181 69.1911 6.69909 69.2865 6.04977C69.4638 4.06184 70.2049 2.55354 71.5096 1.52488C72.8144 0.496226 74.6571 -0.0120701 77.0378 -3.77317e-06C77.6536 0.00637975 78.2681 0.056279 78.8768 0.149318V3.34615H77.0128C76.8795 2.34163 76.4521 1.83861 75.7308 1.8371C75.5289 1.82884 75.328 1.87062 75.1463 1.95868C74.9646 2.04674 74.8077 2.17832 74.6897 2.34163C74.4059 2.76896 74.229 3.25768 74.1737 3.76696C74.071 4.54314 74.0262 5.32583 74.0396 6.10859V6.69004H77.2538V8.76244H74.0396V18.5271C74.0189 19.1155 74.0639 19.7043 74.1737 20.2828C74.2449 20.5955 74.4107 20.879 74.6488 21.095C75.0073 21.3511 75.4204 21.5215 75.8558 21.5928V22.6855H67.5635V21.5928Z" fill="#303030"/>
<path d="M80.5202 21.5928C80.9403 21.5138 81.3295 21.3186 81.6431 21.0294C81.8662 20.758 82.0101 20.4309 82.0591 20.0837C82.1503 19.3642 82.1868 18.639 82.1682 17.914V10.6335C82.1747 10.1956 82.1497 9.75783 82.0932 9.32353C82.0614 9.04016 81.965 8.76776 81.8113 8.52715C81.6687 8.32682 81.4727 8.17011 81.2453 8.07466C80.9473 7.95179 80.6373 7.86005 80.3202 7.8009V6.66968L84.8982 6.5362H86.9804V17.8959C86.9804 18.5143 86.9887 18.9917 87.0054 19.328C87.0144 19.5888 87.0394 19.8487 87.0804 20.1063C87.1093 20.2739 87.1565 20.4378 87.2213 20.595C87.2821 20.7386 87.3632 20.8727 87.4623 20.9932C87.5829 21.1307 87.7297 21.243 87.8942 21.3235C88.1329 21.4409 88.3847 21.5297 88.6443 21.5882V22.681H80.5202V21.5928ZM86.8463 0.0678711V4.12669H82.2864V0.0678711H86.8463Z" fill="#303030"/>
<path d="M101.099 20.4932L100.849 20.4095C100.079 21.1936 99.1835 21.8436 98.1982 22.3326C97.3439 22.7284 96.4127 22.9323 95.4705 22.9299C94.6067 22.9491 93.7505 22.7671 92.97 22.3982C92.306 22.0839 91.7518 21.5787 91.3789 20.948C91.0095 20.2964 90.8226 19.558 90.8379 18.81C90.8379 17.1855 91.6395 15.9035 93.2428 14.9638C94.8461 14.0241 97.2798 13.4359 100.544 13.1991V12.0679C100.544 11.0407 100.427 10.2481 100.194 9.69005C100.022 9.21266 99.7043 8.80108 99.2847 8.51358C98.8871 8.27882 98.4307 8.16114 97.9686 8.17421C97.5133 8.16297 97.0612 8.25342 96.6456 8.43892C96.2195 8.66879 95.8696 9.01701 95.6387 9.44118C95.2918 10.073 95.0659 10.7634 94.9726 11.4774H91.8335V8.50227C92.8549 8.04978 93.7042 7.70212 94.3816 7.45928C95.0364 7.22199 95.7033 7.0196 96.3797 6.85295C96.9639 6.70731 97.5559 6.59402 98.1527 6.51358C98.6714 6.44746 99.1937 6.41421 99.7166 6.41403C101.059 6.41403 102.133 6.5905 102.938 6.94344C103.728 7.28347 104.37 7.89542 104.745 8.66743C105.145 9.4623 105.345 10.5618 105.345 11.9661V17.9751C105.345 18.7036 105.361 19.267 105.395 19.6652C105.41 19.9663 105.463 20.2643 105.554 20.552C105.613 20.7236 105.707 20.8814 105.829 21.0158C105.945 21.135 106.083 21.2303 106.236 21.2964C106.532 21.4103 106.836 21.5018 107.145 21.5701V22.6629H100.949L101.099 20.4932ZM100.549 14.8371C98.8286 14.8808 97.5549 15.2014 96.7275 15.7986C95.9001 16.3959 95.4864 17.2685 95.4864 18.4163C95.4864 19.1011 95.675 19.6229 96.0524 19.9819C96.4818 20.3599 97.044 20.5534 97.6163 20.5204C98.1271 20.5204 98.6281 20.3802 99.0642 20.1154C99.5124 19.8516 99.885 19.4777 100.146 19.0294C100.408 18.5938 100.546 18.0958 100.546 17.5882L100.549 14.8371Z" fill="#303030"/>
<path d="M37.3199 28.2805V27.5249H39.2793V29.31C39.0379 29.5236 38.7568 29.6881 38.4519 29.7941C38.1023 29.9317 37.7299 30.0031 37.354 30.0045C36.9246 30.0149 36.4999 29.9136 36.1219 29.7104C35.7766 29.5184 35.5007 29.2232 35.3332 28.8665C35.1556 28.4933 35.0654 28.0849 35.0695 27.6719C35.0616 27.2391 35.1632 26.8112 35.365 26.4276C35.5592 26.0671 35.861 25.7754 36.2288 25.5928C36.5646 25.4327 36.9341 25.3552 37.3062 25.3665C37.77 25.3395 38.2301 25.4625 38.6178 25.7172C38.934 25.9537 39.1504 26.2989 39.2247 26.6855L38.3155 26.8529C38.259 26.6437 38.1323 26.4601 37.9563 26.3326C37.7641 26.1994 37.5335 26.1319 37.2994 26.1403C37.1236 26.1319 36.9481 26.161 36.7846 26.2258C36.6211 26.2906 36.4734 26.3895 36.3515 26.5158C36.0954 26.8293 35.9694 27.2283 35.9992 27.6312C35.9718 28.0604 36.1037 28.4847 36.3697 28.8235C36.4862 28.9545 36.6304 29.0581 36.7919 29.127C36.9535 29.1958 37.1283 29.2282 37.304 29.2217C37.5002 29.2209 37.6945 29.1833 37.8768 29.1109C38.0535 29.0446 38.2197 28.9531 38.37 28.8394V28.2805H37.3199Z" fill="#303030"/>
<path d="M40.2794 29.9208V25.4367H42.1934C42.5477 25.4199 42.9023 25.4603 43.2436 25.5566C43.4613 25.6375 43.6455 25.7888 43.7664 25.9864C43.8994 26.1978 43.9681 26.4429 43.9642 26.6923C43.9753 26.9975 43.8687 27.2953 43.6664 27.5249C43.4278 27.7633 43.1121 27.9099 42.7753 27.9389C42.9549 28.0399 43.1188 28.1665 43.2618 28.3145C43.4555 28.5418 43.6289 28.7856 43.78 29.043L44.3301 29.9186H43.2413L42.5844 28.9434C42.4388 28.714 42.2786 28.4941 42.1048 28.2851C42.0301 28.2024 41.9365 28.1388 41.832 28.0995C41.6839 28.0599 41.5306 28.0431 41.3774 28.0498H41.1932V29.9208H40.2794ZM41.1887 27.3326H41.8706C42.1446 27.3467 42.4193 27.3285 42.6889 27.2783C42.7927 27.2448 42.8822 27.178 42.9435 27.0882C43.0085 26.988 43.041 26.8703 43.0367 26.7511C43.0434 26.6183 43.0005 26.4878 42.9163 26.3846C42.8267 26.2869 42.7049 26.2243 42.573 26.2081C42.4988 26.1976 42.2775 26.1923 41.9093 26.1923H41.1887V27.3326Z" fill="#303030"/>
<path d="M44.7938 27.7059C44.7824 27.3127 44.8528 26.9213 45.0007 26.5566C45.1031 26.3283 45.2455 26.1199 45.4212 25.9412C45.5857 25.769 45.7837 25.632 46.0031 25.5385C46.3115 25.4155 46.6416 25.3554 46.9737 25.362C47.2673 25.349 47.5605 25.397 47.8344 25.5029C48.1084 25.6089 48.3572 25.7704 48.5649 25.9774C48.9635 26.3876 49.1627 26.9578 49.1627 27.6878C49.1809 27.9959 49.1378 28.3046 49.036 28.5961C48.9342 28.8876 48.7757 29.1564 48.5695 29.3869C48.1337 29.7802 47.5665 29.9981 46.9783 29.9981C46.39 29.9981 45.8228 29.7802 45.3871 29.3869C45.1815 29.1596 45.0233 28.894 44.9214 28.6055C44.8196 28.3169 44.7762 28.0112 44.7938 27.7059ZM45.7303 27.6742C45.7001 28.089 45.8257 28.5001 46.0827 28.828C46.1964 28.9514 46.3346 29.0499 46.4886 29.1173C46.6426 29.1847 46.8089 29.2195 46.9771 29.2195C47.1453 29.2195 47.3117 29.1847 47.4657 29.1173C47.6197 29.0499 47.7579 28.9514 47.8716 28.828C48.1278 28.4938 48.2516 28.0775 48.2194 27.6584C48.2517 27.2469 48.1312 26.838 47.8807 26.509C47.7633 26.3867 47.6222 26.2892 47.4659 26.2227C47.3097 26.1561 47.1414 26.1218 46.9715 26.1218C46.8015 26.1218 46.6333 26.1561 46.477 26.2227C46.3207 26.2892 46.1796 26.3867 46.0622 26.509C45.8112 26.8435 45.693 27.2584 45.7303 27.6742Z" fill="#303030"/>
<path d="M50.0243 25.4366H50.9335V27.8642C50.9262 28.1144 50.9376 28.3647 50.9676 28.6131C50.9993 28.7934 51.0983 28.9551 51.2449 29.0656C51.421 29.1857 51.6319 29.2446 51.845 29.233C52.0522 29.2482 52.2584 29.1923 52.4292 29.0747C52.5506 28.9783 52.6317 28.8404 52.6565 28.6878C52.6895 28.435 52.7032 28.1801 52.6974 27.9253V25.4366H53.6067V27.7919C53.618 28.1704 53.5937 28.5491 53.5339 28.9231C53.4919 29.1307 53.3981 29.3244 53.2612 29.4864C53.1188 29.6521 52.9388 29.7817 52.7361 29.8643C52.4588 29.9642 52.1648 30.0103 51.87 30C51.5367 30.0158 51.2036 29.965 50.8903 29.8507C50.6865 29.7657 50.5058 29.6339 50.363 29.4661C50.241 29.3217 50.1539 29.1514 50.1084 28.9683C50.0393 28.5953 50.0096 28.2162 50.0197 27.8371L50.0243 25.4366Z" fill="#303030"/>
<path d="M54.7318 29.9208V25.4367H56.1912C56.5532 25.4224 56.9158 25.4451 57.2732 25.5045C57.533 25.5733 57.7615 25.7281 57.921 25.9434C58.1042 26.1971 58.1962 26.5047 58.1824 26.8167C58.1905 27.057 58.1389 27.2956 58.0324 27.5113C57.9439 27.6908 57.8128 27.8461 57.6505 27.9638C57.5093 28.0648 57.3494 28.1371 57.18 28.1765C56.8681 28.2261 56.5524 28.2473 56.2366 28.2398H55.6434V29.9321L54.7318 29.9208ZM55.6411 26.1968V27.4683H56.1457C56.3873 27.482 56.6297 27.4583 56.864 27.3982C56.9802 27.3543 57.0796 27.2751 57.1482 27.1719C57.2175 27.0691 57.2532 26.9474 57.2504 26.8235C57.2554 26.6757 57.2033 26.5316 57.105 26.4208C57.0092 26.315 56.8802 26.2448 56.739 26.2217C56.5219 26.1949 56.303 26.1843 56.0843 26.19L55.6411 26.1968Z" fill="#303030"/>
<path d="M60.8852 29.9208V25.4366H63.9743V26.1946H61.7967V27.2556H63.6765V28.0136H61.7967V29.9185L60.8852 29.9208Z" fill="#303030"/>
<path d="M64.6971 27.7059C64.6857 27.3127 64.7561 26.9213 64.904 26.5566C65.0064 26.3283 65.1488 26.1199 65.3245 25.9412C65.489 25.769 65.687 25.632 65.9064 25.5385C66.2148 25.4155 66.5449 25.3554 66.877 25.362C67.1707 25.349 67.4638 25.397 67.7377 25.5029C68.0117 25.6089 68.2605 25.7704 68.4682 25.9774C68.6762 26.2092 68.8361 26.4796 68.9387 26.7732C69.0413 27.0667 69.0846 27.3775 69.066 27.6878C69.0842 27.9959 69.0411 28.3046 68.9393 28.5961C68.8375 28.8876 68.679 29.1564 68.4728 29.3869C68.037 29.7802 67.4698 29.9981 66.8816 29.9981C66.2934 29.9981 65.7262 29.7802 65.2904 29.3869C65.0849 29.1596 64.9266 28.894 64.8248 28.6055C64.7229 28.3169 64.6796 28.0112 64.6971 27.7059ZM65.6337 27.6742C65.6041 28.0893 65.7305 28.5005 65.9883 28.828C66.102 28.9514 66.2402 29.0499 66.3942 29.1173C66.5482 29.1847 66.7145 29.2195 66.8827 29.2195C67.0509 29.2195 67.2173 29.1847 67.3713 29.1173C67.5253 29.0499 67.6635 28.9514 67.7772 28.828C68.0342 28.4942 68.1588 28.0778 68.1273 27.6584C68.1595 27.2469 68.039 26.838 67.7886 26.509C67.6712 26.3867 67.5301 26.2892 67.3738 26.2227C67.2175 26.1561 67.0493 26.1218 66.8793 26.1218C66.7093 26.1218 66.5411 26.1561 66.3848 26.2227C66.2286 26.2892 66.0875 26.3867 65.9701 26.509C65.7174 26.8428 65.5976 27.2578 65.6337 27.6742Z" fill="#303030"/>
<path d="M69.9366 29.9208V25.4367H71.8506C72.2049 25.4199 72.5595 25.4604 72.9008 25.5566C73.1185 25.6375 73.3027 25.7888 73.4236 25.9864C73.5566 26.1978 73.6253 26.443 73.6214 26.6923C73.6324 26.9975 73.5259 27.2953 73.3236 27.5249C73.085 27.7633 72.7693 27.9099 72.4325 27.9389C72.6121 28.0399 72.776 28.1665 72.919 28.3145C73.1127 28.5418 73.2861 28.7856 73.4372 29.043L73.9873 29.9186H72.8985L72.2416 28.9434C72.0962 28.7124 71.936 28.491 71.762 28.2805C71.6873 28.1979 71.5937 28.1342 71.4892 28.095C71.3411 28.0553 71.1878 28.0385 71.0346 28.0453H70.8504V29.9163L69.9366 29.9208ZM70.8459 27.3326H71.5278C71.8018 27.3467 72.0765 27.3285 72.3461 27.2783C72.4498 27.2448 72.5394 27.178 72.6007 27.0882C72.6657 26.988 72.6982 26.8703 72.6939 26.7511C72.7006 26.6183 72.6577 26.4878 72.5734 26.3846C72.4839 26.2869 72.3621 26.2243 72.2302 26.2081C72.156 26.1976 71.9347 26.1923 71.5665 26.1923H70.8573L70.8459 27.3326Z" fill="#303030"/>
<path d="M76.3105 28.4615L77.1947 28.3756C77.2218 28.6229 77.3343 28.8532 77.5129 29.0271C77.6999 29.174 77.9343 29.248 78.1721 29.2353C78.4076 29.2522 78.6416 29.1865 78.8336 29.0498C78.9023 29 78.9586 28.9351 78.998 28.8602C79.0375 28.7852 79.059 28.7022 79.0609 28.6176C79.064 28.5189 79.0308 28.4224 78.9677 28.3461C78.8773 28.2543 78.7645 28.1873 78.6404 28.1516C78.5343 28.1154 78.2919 28.0498 77.913 27.9547C77.5409 27.8841 77.1902 27.7293 76.8878 27.5023C76.7558 27.3912 76.65 27.2525 76.5781 27.0961C76.5062 26.9396 76.4699 26.7693 76.4719 26.5973C76.4719 26.3693 76.5399 26.1465 76.6673 25.957C76.8043 25.7532 77.0001 25.5955 77.2288 25.5045C77.5108 25.3937 77.8123 25.3406 78.1153 25.3484C78.5721 25.3148 79.0258 25.4466 79.3928 25.7195C79.5355 25.842 79.65 25.9938 79.7284 26.1644C79.8069 26.3351 79.8475 26.5205 79.8474 26.7081L78.9382 26.7489C78.9202 26.5577 78.831 26.3802 78.6881 26.2511C78.5183 26.1373 78.3149 26.0839 78.1108 26.0995C77.8918 26.0874 77.6747 26.1445 77.4902 26.2624C77.4444 26.2929 77.407 26.3344 77.3816 26.383C77.3562 26.4316 77.3435 26.4859 77.3447 26.5407C77.3448 26.5932 77.3569 26.6449 77.3802 26.6919C77.4034 26.739 77.4372 26.7801 77.4788 26.8122C77.7363 26.9637 78.02 27.0658 78.3153 27.1131C78.6543 27.1821 78.9839 27.2907 79.2973 27.4366C79.5014 27.5398 79.6734 27.6962 79.7951 27.8891C79.9189 28.1099 79.9808 28.3597 79.9744 28.6124C79.968 28.8651 79.8935 29.1115 79.7588 29.3258C79.6133 29.5518 79.4002 29.7267 79.1496 29.8258C78.8369 29.9433 78.504 29.9987 78.1699 29.9887C77.6992 30.0196 77.2333 29.8798 76.8583 29.595C76.5377 29.3002 76.3418 28.8949 76.3105 28.4615Z" fill="#303030"/>
<path d="M80.8885 25.4366H81.7977V27.8642C81.7904 28.1144 81.8018 28.3647 81.8318 28.6131C81.8635 28.7934 81.9626 28.9551 82.1092 29.0656C82.2852 29.1857 82.4962 29.2446 82.7093 29.233C82.9164 29.2482 83.1226 29.1923 83.2934 29.0747C83.4149 28.9783 83.4959 28.8404 83.5208 28.6878C83.5538 28.435 83.5674 28.1801 83.5617 27.9253V25.4366H84.4709V27.7919C84.4823 28.1704 84.4579 28.5491 84.3982 28.9231C84.3562 29.1307 84.2624 29.3244 84.1254 29.4864C83.9843 29.6515 83.8059 29.781 83.6049 29.8643C83.3275 29.9642 83.0336 30.0103 82.7388 30C82.4055 30.0158 82.0724 29.965 81.7591 29.8507C81.5553 29.7656 81.3746 29.6338 81.2317 29.4661C81.1099 29.3216 81.0229 29.1513 80.9771 28.9683C80.9081 28.5954 80.8784 28.2162 80.8885 27.8371V25.4366Z" fill="#303030"/>
<path d="M88.4784 28.2805L89.3604 28.5588C89.2618 28.9879 89.0217 29.3718 88.6784 29.6493C88.2721 29.92 87.7843 30.0426 87.2976 29.9964C86.8109 29.9502 86.3551 29.7381 86.0075 29.3959C85.6032 28.9367 85.3959 28.3381 85.4301 27.7285C85.4301 26.9819 85.6234 26.402 86.0098 25.9887C86.2051 25.7827 86.4425 25.6208 86.706 25.5139C86.9695 25.407 87.253 25.3575 87.5373 25.3688C88.0321 25.3478 88.5151 25.5227 88.8807 25.8552C89.1044 26.0845 89.2615 26.3699 89.3354 26.681L88.4261 26.8959C88.3848 26.6778 88.2662 26.4817 88.0917 26.3434C87.9173 26.2051 87.6988 26.1338 87.4759 26.1425C87.322 26.1375 87.169 26.167 87.0281 26.2288C86.8872 26.2907 86.7621 26.3834 86.6622 26.5C86.4546 26.7383 86.3507 27.1244 86.3507 27.6584C86.3507 28.2255 86.453 28.629 86.6576 28.8688C86.7541 28.9856 86.8762 29.0789 87.0145 29.1417C87.1527 29.2044 87.3036 29.2349 87.4555 29.2308C87.6843 29.2361 87.9067 29.1553 88.0783 29.0045C88.2852 28.8114 88.4253 28.5579 88.4784 28.2805Z" fill="#303030"/>
<path d="M93.1814 28.2805L94.0634 28.5588C93.9648 28.9879 93.7248 29.3718 93.3815 29.6493C92.9752 29.92 92.4874 30.0426 92.0006 29.9964C91.5139 29.9502 91.0582 29.7381 90.7106 29.3959C90.3063 28.9367 90.099 28.3381 90.1332 27.7285C90.1332 26.9819 90.3264 26.402 90.7128 25.9887C90.9082 25.7827 91.1456 25.6208 91.4091 25.5139C91.6726 25.407 91.956 25.3575 92.2404 25.3688C92.7352 25.3478 93.2182 25.5227 93.5838 25.8552C93.8075 26.0845 93.9646 26.3699 94.0384 26.681L93.1292 26.8959C93.0879 26.6778 92.9692 26.4817 92.7948 26.3434C92.6204 26.2051 92.4018 26.1338 92.179 26.1425C92.0251 26.1375 91.872 26.167 91.7311 26.2288C91.5902 26.2907 91.4652 26.3834 91.3652 26.5C91.1576 26.7383 91.0538 27.1244 91.0538 27.6584C91.0538 28.2255 91.1561 28.629 91.3607 28.8688C91.4572 28.9856 91.5792 29.0789 91.7175 29.1417C91.8558 29.2044 92.0066 29.2349 92.1585 29.2308C92.3874 29.2361 92.6098 29.1553 92.7814 29.0045C92.9883 28.8114 93.1284 28.5579 93.1814 28.2805Z" fill="#303030"/>
<path d="M94.9999 29.9208V25.4366H98.3391V26.1946H95.9092V27.1878H98.1709V27.9434H95.9092V29.1629H98.4255V29.9185L94.9999 29.9208Z" fill="#303030"/>
<path d="M99.1256 28.4615L100.01 28.3756C100.039 28.6238 100.154 28.8542 100.335 29.0271C100.522 29.174 100.756 29.248 100.994 29.2353C101.23 29.2522 101.464 29.1865 101.656 29.0498C101.724 29 101.781 28.9351 101.82 28.8602C101.859 28.7852 101.881 28.7022 101.883 28.6176C101.886 28.5189 101.853 28.4224 101.79 28.3461C101.699 28.2543 101.586 28.1873 101.462 28.1516C101.356 28.1154 101.114 28.0498 100.735 27.9547C100.363 27.8841 100.012 27.7293 99.7098 27.5023C99.5777 27.3912 99.472 27.2525 99.4001 27.0961C99.3282 26.9396 99.2919 26.7693 99.2938 26.5973C99.2939 26.3693 99.3619 26.1465 99.4893 25.957C99.6263 25.7532 99.822 25.5955 100.051 25.5045C100.333 25.3937 100.634 25.3406 100.937 25.3484C101.394 25.3148 101.848 25.4466 102.215 25.7195C102.357 25.842 102.472 25.9938 102.55 26.1644C102.629 26.3351 102.669 26.5205 102.669 26.7081L101.76 26.7489C101.742 26.5577 101.653 26.3802 101.51 26.2511C101.34 26.1373 101.137 26.0839 100.933 26.0995C100.714 26.0874 100.497 26.1445 100.312 26.2624C100.266 26.2929 100.229 26.3344 100.204 26.383C100.178 26.4316 100.165 26.4859 100.167 26.5407C100.167 26.5932 100.179 26.6449 100.202 26.6919C100.225 26.739 100.259 26.7801 100.301 26.8122C100.558 26.9637 100.842 27.0658 101.137 27.1131C101.476 27.1821 101.806 27.2907 102.119 27.4366C102.323 27.5398 102.495 27.6962 102.617 27.8891C102.741 28.1099 102.803 28.3597 102.796 28.6124C102.79 28.8651 102.715 29.1115 102.581 29.3258C102.435 29.5518 102.222 29.7267 101.972 29.8258C101.659 29.9433 101.326 29.9987 100.992 29.9887C100.521 30.0196 100.055 29.8798 99.6802 29.595C99.3571 29.3013 99.1587 28.8959 99.1256 28.4615Z" fill="#303030"/>
<path d="M103.479 28.4615L104.363 28.3756C104.392 28.6238 104.507 28.8542 104.688 29.0271C104.875 29.174 105.109 29.248 105.347 29.2353C105.583 29.2522 105.817 29.1865 106.009 29.0498C106.077 29 106.134 28.9351 106.173 28.8602C106.212 28.7852 106.234 28.7022 106.236 28.6176C106.239 28.5189 106.206 28.4224 106.143 28.3461C106.052 28.2543 105.939 28.1873 105.815 28.1516C105.709 28.1154 105.467 28.0498 105.088 27.9547C104.716 27.8841 104.365 27.7293 104.063 27.5023C103.931 27.3912 103.825 27.2525 103.753 27.0961C103.681 26.9396 103.645 26.7693 103.647 26.5973C103.647 26.3693 103.715 26.1465 103.842 25.957C103.979 25.7532 104.175 25.5955 104.404 25.5045C104.686 25.3937 104.987 25.3406 105.29 25.3484C105.747 25.3148 106.201 25.4466 106.568 25.7195C106.71 25.842 106.825 25.9938 106.903 26.1644C106.982 26.3351 107.022 26.5205 107.022 26.7081L106.113 26.7489C106.095 26.5577 106.006 26.3802 105.863 26.2511C105.693 26.1373 105.49 26.0839 105.286 26.0995C105.067 26.0874 104.85 26.1445 104.665 26.2624C104.619 26.2929 104.582 26.3344 104.557 26.383C104.531 26.4316 104.518 26.4859 104.52 26.5407C104.52 26.5932 104.532 26.6449 104.555 26.6919C104.578 26.739 104.612 26.7801 104.654 26.8122C104.911 26.9637 105.195 27.0658 105.49 27.1131C105.829 27.1821 106.159 27.2907 106.472 27.4366C106.676 27.5398 106.848 27.6962 106.97 27.8891C107.094 28.1099 107.156 28.3597 107.149 28.6124C107.143 28.8651 107.068 29.1115 106.934 29.3258C106.788 29.5518 106.575 29.7267 106.325 29.8258C106.012 29.9433 105.679 29.9987 105.345 29.9887C104.874 30.0196 104.408 29.8798 104.033 29.595C103.71 29.3013 103.512 28.8959 103.479 28.4615Z" fill="#303030"/>
<path d="M14.9252 14.0882C17.8252 14.0882 20.1761 11.7068 20.1761 8.76923C20.1761 5.83162 17.8252 3.45023 14.9252 3.45023C12.0252 3.45023 9.67435 5.83162 9.67435 8.76923C9.67435 11.7068 12.0252 14.0882 14.9252 14.0882Z" fill="white"/>
<path d="M3.40967 12.0611H6.87616C6.87616 12.0611 9.2811 17.3326 15.0184 17.3326C20.9285 17.3326 22.9061 12.0611 22.9061 12.0611H26.5954V19.2489H18.5917V26.5294H11.3974V19.2489H3.44149L3.40967 12.0611Z" fill="white"/>
</g>
<defs>
<clipPath id="clip0">
<rect width="107.143" height="30" fill="white"/>
</clipPath>
</defs>
</svg>
