<svg width="45" height="25" viewBox="0 0 45 25" fill="none" xmlns="http://www.w3.org/2000/svg">
<g clip-path="url(#clip0)">
<path d="M21.4539 17.6899C20.5105 16.6763 18.7454 15.1514 18.7454 10.1562C18.7454 6.3623 16.0852 3.3252 12.4983 2.58008V1.5625C12.4983 0.699707 11.7991 0 10.9368 0C10.0745 0 9.37528 0.699707 9.37528 1.5625V2.58008C5.78837 3.3252 3.12821 6.3623 3.12821 10.1562C3.12821 15.1514 1.36307 16.6763 0.419712 17.6899C0.126743 18.0049 -0.00314007 18.3813 -0.000698663 18.75C0.00467243 19.5508 0.63309 20.3125 1.56668 20.3125H20.3069C21.2405 20.3125 21.8694 19.5508 21.8743 18.75C21.8767 18.3813 21.7469 18.0044 21.4539 17.6899ZM3.29667 17.9688C4.3328 16.603 5.46561 14.3394 5.47098 10.1846C5.47098 10.1748 5.46805 10.166 5.46805 10.1562C5.46805 7.13574 7.9163 4.6875 10.9368 4.6875C13.9573 4.6875 16.4056 7.13574 16.4056 10.1562C16.4056 10.166 16.4026 10.1748 16.4026 10.1846C16.408 14.3398 17.5408 16.6035 18.5769 17.9688H3.29667ZM10.9368 25C12.6614 25 14.0603 23.6011 14.0603 21.875H7.81327C7.81327 23.6011 9.21219 25 10.9368 25Z" fill="#820000"/>
</g>
<path d="M44.4546 17.6899C43.5112 16.6763 41.7461 15.1514 41.7461 10.1562C41.7461 6.3623 39.0859 3.3252 35.499 2.58008V1.5625C35.499 0.699707 34.7998 0 33.9375 0C33.0752 0 32.376 0.699707 32.376 1.5625V2.58008C28.7891 3.3252 26.1289 6.3623 26.1289 10.1562C26.1289 15.1514 24.3638 16.6763 23.4204 17.6899C23.1275 18.0049 22.9976 18.3813 23 18.75C23.0054 19.5508 23.6338 20.3125 24.5674 20.3125H43.3076C44.2412 20.3125 44.8701 19.5508 44.875 18.75C44.8774 18.3813 44.7476 18.0044 44.4546 17.6899ZM26.2974 17.9688C27.3335 16.603 28.4663 14.3394 28.4717 10.1846C28.4717 10.1748 28.4688 10.166 28.4688 10.1562C28.4688 7.13574 30.917 4.6875 33.9375 4.6875C36.958 4.6875 39.4063 7.13574 39.4063 10.1562C39.4063 10.166 39.4033 10.1748 39.4033 10.1846C39.4087 14.3398 40.5415 16.6035 41.5776 17.9688H26.2974ZM33.9375 25C35.6621 25 37.061 23.6011 37.061 21.875H30.814C30.814 23.6011 32.2129 25 33.9375 25Z" fill="white"/>
<defs>
<clipPath id="clip0">
<rect width="22" height="25" fill="white"/>
</clipPath>
</defs>
</svg>
