<svg width="60" height="25" viewBox="0 0 60 25" fill="none" xmlns="http://www.w3.org/2000/svg">
<g clip-path="url(#clip0)">
<path d="M28.57 8.03505V21.414C28.5717 21.884 28.4806 22.3498 28.302 22.7846C28.1234 23.2194 27.8607 23.6147 27.5291 23.9478C27.1975 24.2809 26.8034 24.5453 26.3694 24.7259C25.9354 24.9064 25.47 24.9996 25 25H5.35668C3.936 25 2.57351 24.4356 1.56894 23.4311C0.564363 22.4265 0 21.064 0 19.6433V5.3567C0 3.93602 0.564363 2.57353 1.56894 1.56896C2.57351 0.564386 3.936 2.28774e-05 5.35668 2.28774e-05H21.4139C21.884 -0.00165908 22.3498 0.0894186 22.7846 0.268038C23.2194 0.446658 23.6146 0.709309 23.9478 1.04095C24.2809 1.37258 24.5453 1.76668 24.7258 2.20068C24.9064 2.63467 24.9996 3.10002 25 3.57008V4.47458C25.9452 4.47457 26.8518 4.84939 27.521 5.51683C28.1902 6.18427 28.5675 7.08987 28.57 8.03505ZM25.8917 8.03505C25.8917 7.79855 25.7977 7.57174 25.6305 7.40451C25.4633 7.23728 25.2365 7.14333 25 7.14333H6.2484C6.02071 7.12971 5.80682 7.02966 5.65043 6.86362C5.49404 6.69759 5.40694 6.47811 5.40694 6.25002C5.40694 6.02193 5.49404 5.80244 5.65043 5.63641C5.80682 5.47038 6.02071 5.37033 6.2484 5.3567H22.3216V3.57008C22.3212 3.45174 22.2974 3.33466 22.2514 3.22562C22.2054 3.11657 22.1383 3.01772 22.0539 2.93479C21.9695 2.85186 21.8694 2.7865 21.7596 2.74248C21.6498 2.69847 21.5323 2.67667 21.4139 2.67836H5.35668C4.6466 2.67921 3.96585 2.96166 3.46374 3.46377C2.96164 3.96587 2.67919 4.64662 2.67834 5.3567V19.6433C2.67919 20.3534 2.96164 21.0342 3.46374 21.5363C3.96585 22.0384 4.6466 22.3208 5.35668 22.3217H25C25.118 22.3208 25.2348 22.2966 25.3435 22.2505C25.4521 22.2043 25.5506 22.1371 25.6332 22.0528C25.7158 21.9684 25.7809 21.8685 25.8247 21.7589C25.8685 21.6492 25.8902 21.532 25.8885 21.414L25.8917 8.03505Z" fill="#820000"/>
<path d="M13.9192 18.5374C13.8203 18.5374 13.7253 18.4986 13.6548 18.4292C13.5842 18.3599 13.5437 18.2656 13.5421 18.1667V14.5774H11.324C11.2495 14.5784 11.1764 14.5571 11.1141 14.5163C11.0518 14.4755 11.0031 14.417 10.9742 14.3483C10.9454 14.2796 10.9377 14.2039 10.9522 14.1309C10.9667 14.0578 11.0026 13.9907 11.0555 13.9382L14.6607 10.3905C14.7308 10.3208 14.8256 10.2817 14.9244 10.2817C15.0232 10.2817 15.118 10.3208 15.1881 10.3905L18.7933 13.9414C18.8461 13.9939 18.8821 14.061 18.8966 14.134C18.911 14.2071 18.9034 14.2828 18.8745 14.3515C18.8457 14.4202 18.797 14.4787 18.7347 14.5195C18.6724 14.5603 18.5993 14.5816 18.5248 14.5806H16.3003V18.1794C16.2954 18.2756 16.254 18.3662 16.1844 18.4327C16.1149 18.4993 16.0226 18.5367 15.9264 18.5374H13.9192Z" fill="#820000"/>
</g>
<g clip-path="url(#clip1)">
<path d="M59.57 8.03505V21.414C59.5717 21.884 59.4806 22.3498 59.302 22.7846C59.1234 23.2194 58.8607 23.6147 58.5291 23.9478C58.1975 24.2809 57.8034 24.5453 57.3694 24.7259C56.9354 24.9064 56.47 24.9996 56 25H36.3567C34.936 25 33.5735 24.4356 32.5689 23.4311C31.5644 22.4265 31 21.064 31 19.6433V5.3567C31 3.93602 31.5644 2.57353 32.5689 1.56896C33.5735 0.564386 34.936 2.28774e-05 36.3567 2.28774e-05H52.4139C52.884 -0.00165908 53.3498 0.0894186 53.7846 0.268038C54.2194 0.446658 54.6146 0.709309 54.9478 1.04095C55.2809 1.37258 55.5453 1.76668 55.7258 2.20068C55.9064 2.63467 55.9996 3.10002 56 3.57008V4.47458C56.9452 4.47457 57.8518 4.84939 58.521 5.51683C59.1902 6.18427 59.5675 7.08987 59.57 8.03505ZM56.8917 8.03505C56.8917 7.79855 56.7977 7.57174 56.6305 7.40451C56.4633 7.23728 56.2365 7.14333 56 7.14333H37.2484C37.0207 7.12971 36.8068 7.02966 36.6504 6.86362C36.494 6.69759 36.4069 6.47811 36.4069 6.25002C36.4069 6.02193 36.494 5.80244 36.6504 5.63641C36.8068 5.47038 37.0207 5.37033 37.2484 5.3567H53.3216V3.57008C53.3212 3.45174 53.2974 3.33466 53.2514 3.22562C53.2054 3.11657 53.1383 3.01772 53.0539 2.93479C52.9695 2.85186 52.8694 2.7865 52.7596 2.74248C52.6498 2.69847 52.5323 2.67667 52.4139 2.67836H36.3567C35.6466 2.67921 34.9659 2.96166 34.4637 3.46377C33.9616 3.96587 33.6792 4.64662 33.6783 5.3567V19.6433C33.6792 20.3534 33.9616 21.0342 34.4637 21.5363C34.9659 22.0384 35.6466 22.3208 36.3567 22.3217H56C56.118 22.3208 56.2348 22.2966 56.3435 22.2505C56.4521 22.2043 56.5506 22.1371 56.6332 22.0528C56.7158 21.9684 56.7809 21.8685 56.8247 21.7589C56.8685 21.6492 56.8902 21.532 56.8885 21.414L56.8917 8.03505Z" fill="white"/>
<path d="M44.9192 18.5374C44.8203 18.5374 44.7253 18.4986 44.6548 18.4292C44.5842 18.3599 44.5437 18.2656 44.5421 18.1667V14.5774H42.324C42.2495 14.5784 42.1764 14.5571 42.1141 14.5163C42.0518 14.4755 42.0031 14.417 41.9742 14.3483C41.9454 14.2796 41.9377 14.2039 41.9522 14.1309C41.9667 14.0578 42.0026 13.9907 42.0555 13.9382L45.6607 10.3905C45.7308 10.3208 45.8256 10.2817 45.9244 10.2817C46.0232 10.2817 46.118 10.3208 46.1881 10.3905L49.7933 13.9414C49.8461 13.9939 49.8821 14.061 49.8966 14.134C49.911 14.2071 49.9034 14.2828 49.8745 14.3515C49.8457 14.4202 49.797 14.4787 49.7347 14.5195C49.6724 14.5603 49.5993 14.5816 49.5248 14.5806H47.3003V18.1794C47.2954 18.2756 47.254 18.3662 47.1844 18.4327C47.1149 18.4993 47.0226 18.5367 46.9264 18.5374H44.9192Z" fill="white"/>
</g>
<defs>
<clipPath id="clip0">
<rect width="29" height="25" fill="white"/>
</clipPath>
<clipPath id="clip1">
<rect width="29" height="25" fill="white" transform="translate(31)"/>
</clipPath>
</defs>
</svg>
