<svg width="37" height="54" viewBox="0 0 37 54" fill="none" xmlns="http://www.w3.org/2000/svg">
<path d="M36.7978 0H0V37.1635H36.7978V0Z" fill="#E52525"/>
<path d="M18.2753 16.4964C22.1269 16.4964 25.2493 13.288 25.2493 9.33023C25.2493 5.37246 22.1269 2.16406 18.2753 2.16406C14.4236 2.16406 11.3013 5.37246 11.3013 9.33023C11.3013 13.288 14.4236 16.4964 18.2753 16.4964Z" fill="white"/>
<path d="M4.39209 13.7642H7.58789C7.58789 13.7642 10.78 20.8708 18.3991 20.8708C26.2614 20.8708 28.8748 13.7344 28.8748 13.7344L32.4687 13.7977V23.5064H23.1577L23.1283 32.7498L13.6072 32.7201L13.5777 23.4134L4.42158 23.3836L4.39209 13.7642Z" fill="white"/>
<path d="M2.7326 53.0473V52.466C2.93248 52.4381 3.1277 52.383 3.31296 52.3023C3.44617 52.2429 3.55749 52.1427 3.63115 52.0159C3.70768 51.8698 3.75237 51.709 3.76224 51.5441C3.77892 51.3539 3.78846 51.1168 3.78846 50.8352V42.0492H3.08177C2.80881 42.0357 2.53589 42.0766 2.27856 42.1695C2.08743 42.2559 1.9207 42.3891 1.79353 42.5571C1.63569 42.7718 1.51483 43.0119 1.43602 43.2672C1.33591 43.5641 1.25448 43.8449 1.19171 44.1097H0V41.0117H10.2738V44.1049H9.07609C8.96566 43.7037 8.87866 43.41 8.81511 43.2239C8.76015 43.0564 8.68827 42.8951 8.6006 42.7424C8.53159 42.622 8.44791 42.5108 8.35153 42.4115C8.26956 42.3272 8.17556 42.2558 8.07267 42.1996C7.95621 42.14 7.83112 42.0993 7.70205 42.0793C7.51004 42.0496 7.3159 42.0363 7.12168 42.0396H6.49246V50.8255C6.49246 51.1373 6.50199 51.3732 6.51867 51.5344C6.52971 51.6696 6.56231 51.8021 6.6152 51.9268C6.65553 52.0177 6.71347 52.0996 6.78562 52.1675C6.86864 52.2386 6.96291 52.2952 7.06448 52.3348C7.22093 52.394 7.38372 52.4343 7.54951 52.4552V53.0473H2.7326Z" fill="white"/>
<path d="M11.474 52.4657C11.7584 52.3855 11.9547 52.2856 12.0627 52.166C12.1793 52.0214 12.2547 51.8475 12.2808 51.6629C12.3289 51.2802 12.348 50.8944 12.338 50.5087V46.4094C12.3413 46.1765 12.3282 45.9436 12.2987 45.7125C12.2814 45.5621 12.2305 45.4176 12.1497 45.2901C12.0752 45.1832 11.9723 45.0998 11.853 45.0494C11.6973 44.9836 11.5351 44.9347 11.3691 44.9037V44.302L13.7692 44.2309H14.8597V50.4979C14.8597 50.8277 14.864 51.082 14.8728 51.2609C14.8783 51.3996 14.8914 51.5378 14.9121 51.675C14.9276 51.7641 14.9527 51.8513 14.9872 51.9349C15.0186 52.0115 15.0611 52.0829 15.1135 52.1468C15.1766 52.2204 15.2536 52.2805 15.3399 52.3237C15.465 52.3862 15.597 52.4335 15.7332 52.4645V53.047H11.474V52.4657ZM14.7905 40.7912V42.9516H12.3988V40.7852L14.7905 40.7912Z" fill="white"/>
<path d="M17.0859 52.4642C17.2934 52.4144 17.4882 52.3214 17.6579 52.191C17.7735 52.0769 17.8539 51.9314 17.8891 51.7721C17.9471 51.4628 17.9706 51.1479 17.9594 50.8333V45.4029H16.894V44.7951C17.0897 44.7737 17.2818 44.7276 17.4661 44.6579C17.569 44.6122 17.6599 44.543 17.7318 44.4557C17.8083 44.3576 17.8646 44.2451 17.8975 44.1247C17.9443 43.9549 17.9739 43.7807 17.9857 43.6048C18.0786 42.5464 18.4667 41.7441 19.15 41.1977C19.8332 40.6512 20.8009 40.3796 22.053 40.3828C22.3774 40.386 22.7012 40.4125 23.0218 40.4623V42.1629H22.0434C21.9743 41.6285 21.7503 41.3613 21.3713 41.3613C21.2656 41.3568 21.1604 41.379 21.0653 41.4259C20.9703 41.4727 20.8882 41.5428 20.8267 41.6297C20.6777 41.8571 20.5846 42.117 20.555 42.388C20.5006 42.7984 20.4759 43.2123 20.4811 43.6264V44.2968H22.1662V45.3981H20.4811V50.8285C20.4703 51.1415 20.4938 51.4548 20.5514 51.7625C20.5882 51.9291 20.6752 52.0801 20.8005 52.1946C20.9885 52.3307 21.205 52.4213 21.4333 52.4594V53.0455H17.0859V52.4642Z" fill="white"/>
<path d="M23.4001 52.4657C23.6845 52.3855 23.8808 52.2856 23.9888 52.166C24.1076 52.0224 24.1844 51.8482 24.2105 51.6629C24.2586 51.2802 24.2777 50.8944 24.2677 50.5087V46.4094C24.271 46.1765 24.2579 45.9436 24.2284 45.7125C24.2115 45.5622 24.161 45.4177 24.0806 45.2901C24.0061 45.1832 23.9032 45.0998 23.7839 45.0494C23.6278 44.9836 23.4652 44.9348 23.2988 44.9037V44.302L25.6989 44.2309H26.7905V50.4979C26.7905 50.8277 26.7905 51.0816 26.8037 51.2609C26.8079 51.3997 26.8211 51.538 26.843 51.675C26.8575 51.7642 26.8823 51.8515 26.9169 51.9349C26.9487 52.0113 26.9912 52.0826 27.0432 52.1468C27.1067 52.2204 27.1841 52.2805 27.2708 52.3237C27.3956 52.386 27.5272 52.4333 27.6629 52.4645V53.047H23.4001V52.4657ZM26.7167 40.7912V42.9516H24.3297V40.7852L26.7167 40.7912Z" fill="white"/>
<path d="M33.8314 51.8918L33.7004 51.8473C33.2962 52.2643 32.8257 52.6101 32.3084 52.8703C31.8585 53.0808 31.3683 53.1889 30.8724 53.1869C30.4221 53.1976 29.9755 53.1028 29.5675 52.91C29.2194 52.7428 28.9289 52.4741 28.7333 52.1386C28.5397 51.7919 28.4417 51.3991 28.4497 51.0012C28.4497 50.137 28.8699 49.455 29.7105 48.9551C30.5511 48.4553 31.827 48.1423 33.5383 48.0164V47.1847C33.5383 46.6367 33.4771 46.215 33.3548 45.9198C33.2785 45.6735 33.1227 45.4601 32.9123 45.3137C32.7019 45.1673 32.449 45.0964 32.194 45.1122C31.9548 45.1065 31.7174 45.155 31.4993 45.2542C31.2758 45.3765 31.0924 45.5617 30.9713 45.7874C30.7903 46.1238 30.6719 46.491 30.6222 46.8706H28.9692V45.271C29.5047 45.0303 29.95 44.8454 30.3052 44.7162C30.6494 44.5895 31.0003 44.4823 31.3563 44.3948C31.6626 44.3174 31.9729 44.2568 32.2858 44.2131C32.5581 44.1781 32.8324 44.1604 33.1069 44.1602C33.8116 44.1602 34.3745 44.2544 34.7955 44.443C35.2099 44.6237 35.5461 44.9487 35.7429 45.3589C35.9527 45.7826 36.0572 46.3675 36.0564 47.1137V50.5511C36.0564 50.9398 36.0659 51.2395 36.0826 51.4513C36.0907 51.6111 36.1187 51.7692 36.166 51.9219C36.1969 52.0133 36.2459 52.0972 36.3102 52.1686C36.3707 52.2326 36.4432 52.2838 36.5235 52.3191C36.6786 52.3796 36.8379 52.4282 37.0002 52.4647V53.046H33.7528L33.8314 51.8918ZM33.543 48.8829C32.6413 48.907 31.9736 49.0775 31.5398 49.3944C31.106 49.7114 30.8875 50.1763 30.8843 50.7894C30.8843 51.1504 30.9844 51.4321 31.1823 51.6222C31.2936 51.722 31.4233 51.7987 31.564 51.8478C31.7047 51.897 31.8536 51.9176 32.0022 51.9087C32.2701 51.9091 32.5328 51.8345 32.7613 51.6932C32.996 51.5527 33.1913 51.3538 33.3285 51.1155C33.4658 50.8838 33.5383 50.6189 33.5383 50.3489L33.543 48.8829Z" fill="white"/>
</svg>
