<svg width="12" height="10" viewBox="0 0 12 10" fill="none" xmlns="http://www.w3.org/2000/svg">
<path d="M11.3255 5.94413L11.3442 5.94002L3.31434 5.94002L5.83864 8.47822C5.96225 8.60214 6.03005 8.77001 6.03005 8.94619C6.03005 9.12238 5.96225 9.28908 5.83864 9.41329L5.44585 9.80756C5.32234 9.93148 5.15776 10 4.98225 10C4.80664 10 4.64195 9.93197 4.51844 9.80805L0.19132 5.46705C0.0673205 5.34264 -0.000484348 5.17692 3.48791e-06 5.00064C-0.000484286 4.82337 0.0673206 4.65756 0.191321 4.53334L4.51844 0.191949C4.64195 0.0681275 4.80654 8.40402e-07 4.98225 8.71123e-07C5.15776 9.01811e-07 5.32234 0.0682249 5.44586 0.191949L5.83864 0.586221C5.96225 0.709945 6.03005 0.875171 6.03005 1.05136C6.03005 1.22745 5.96225 1.38397 5.83864 1.50779L3.28586 4.06018L11.3344 4.06018C11.6961 4.06018 12 4.37292 12 4.73557L12 5.29321C12 5.65587 11.6871 5.94413 11.3255 5.94413Z" fill="white"/>
</svg>
