<svg width="196" height="25" viewBox="0 0 196 25" fill="none" xmlns="http://www.w3.org/2000/svg">
<path d="M53.117 13.0059C49.7246 13.0059 48.0376 15.5013 48.0376 18.8697C48.0376 22.3764 49.6583 24.8258 53.117 24.8258C56.5786 24.8258 58.1945 22.3764 58.1945 18.8697C58.1945 15.5013 56.5094 13.0059 53.117 13.0059ZM53.117 22.5341C52.2153 22.5341 51.8145 21.7247 51.8145 18.8687C51.8145 16.2617 52.0817 15.2966 53.117 15.2966C54.1504 15.2966 54.4186 16.2617 54.4186 18.8687C54.4186 21.7256 54.0148 22.5341 53.117 22.5341Z" fill="#5E5E5E"/>
<path d="M60.5399 12.0435V13.3037H59.0557V15.8675H60.5399V24.5815H64.1803V15.8675H66.1615V13.3037H64.1803V12.1598C64.1803 11.4744 64.5263 11.0995 65.4847 11.0995C65.6866 11.0995 65.9557 11.1437 66.1605 11.1908V8.40506C65.5731 8.33777 65.0329 8.26855 64.3168 8.26855C61.9126 8.26952 60.5399 9.27982 60.5399 12.0435Z" fill="#5E5E5E"/>
<path d="M21.7305 16.4718C21.7305 13.9782 19.4628 13.0361 17.2797 13.0361C15.2149 13.0361 13.1904 13.932 12.7877 16.1574L15.9541 16.8092C15.9935 16.1507 16.2733 15.3278 17.1471 15.3278C17.7757 15.3278 18.0891 15.7748 18.0891 16.4477V17.4177C15.684 17.6964 12.3695 18.5645 12.2897 21.4993C12.234 23.5737 13.6172 24.7993 15.4321 24.7993C16.5059 24.7993 17.5806 24.2062 18.2016 23.5516C18.2237 23.739 18.2477 24.2716 18.316 24.583H22.0688C21.9314 24.4292 21.7295 24.0447 21.7295 22.7633V16.4718H21.7305ZM18.0901 21.7088C17.7806 22.1164 17.3364 22.4096 16.9221 22.4096C16.2694 22.4096 15.8657 22.0001 15.8657 21.2138C15.8657 19.7738 16.8173 19.2912 18.0891 19.1681V21.7088H18.0901Z" fill="#5E5E5E"/>
<path d="M30.6585 13.0342C29.2387 13.0342 28.2361 13.6917 27.4863 14.4559H27.4392L27.4209 13.3024H23.8584V24.5811H27.4988V16.5159C27.8314 16.0891 28.2736 15.8152 28.6831 15.8152C29.2916 15.8152 29.5223 16.1718 29.5223 16.8149V24.5801H33.1626V15.6594C33.1636 14.1127 32.2523 13.0342 30.6585 13.0342Z" fill="#5E5E5E"/>
<path d="M45.4077 13.3029H41.7875L39.1094 16.7116H39.0651V8.58496H35.4229V24.5816H39.0651V20.5423L39.8303 19.6618H39.8745L41.6491 24.5816H45.425L42.3623 16.7751L45.4077 13.3029Z" fill="#5E5E5E"/>
<path d="M8.41025 16.2617V16.1368C9.56955 15.685 11.0211 14.5833 11.0211 12.4926C11.0211 10.2835 9.15813 8.58398 6.32427 8.58398H0V24.5826H6.16277C9.20042 24.5826 11.4008 23.0417 11.4008 20.303C11.4008 18.2526 10.1434 16.8327 8.41025 16.2617ZM3.92972 11.4159H5.34569C6.26467 11.4159 7.2942 11.663 7.2942 13.1895C7.2942 14.1354 6.71647 14.9208 5.25436 14.9208H3.92972V11.4159ZM5.41297 21.618H3.92972V17.6171H5.41297C6.71647 17.6171 7.45281 18.4044 7.45281 19.5955C7.45281 21.2344 6.28774 21.618 5.41297 21.618Z" fill="#5E5E5E"/>
<path d="M143.582 22.7633V16.4718C143.582 13.9782 141.316 13.0361 139.135 13.0361C137.067 13.0361 135.042 13.932 134.639 16.1574L137.808 16.8092C137.847 16.1507 138.124 15.3278 139 15.3278C139.626 15.3278 139.944 15.7748 139.944 16.4477V17.4177C137.536 17.6964 134.219 18.5645 134.141 21.4993C134.085 23.5737 135.467 24.7993 137.284 24.7993C138.358 24.7993 139.431 24.2062 140.057 23.5516C140.075 23.739 140.1 24.2716 140.166 24.583H143.918C143.785 24.4283 143.582 24.0447 143.582 22.7633ZM139.945 21.7088C139.631 22.1164 139.188 22.4096 138.776 22.4096C138.121 22.4096 137.718 22.0001 137.718 21.2138C137.718 19.7738 138.67 19.2912 139.944 19.1681V21.7088H139.945Z" fill="#5E5E5E"/>
<path d="M103.893 13.0059C100.544 13.0059 98.8794 15.7023 98.8794 18.8937C98.8794 22.0169 100.453 24.8267 103.936 24.8267C107.176 24.8267 108.297 22.2649 108.457 21.7468L106.002 20.847C105.822 21.7564 105.08 22.3966 104.202 22.3966C102.736 22.3966 102.47 20.7288 102.52 19.7252H108.611V18.96C108.611 16.0176 107.399 13.0059 103.893 13.0059ZM105.24 17.5662H102.52C102.464 16.5049 102.835 15.2976 103.868 15.2976C105.127 15.2976 105.275 16.5193 105.24 17.5662Z" fill="#5E5E5E"/>
<path d="M122.069 13.3037H118.43V24.5824H122.069V13.3037Z" fill="#5E5E5E"/>
<path d="M122.069 8.58398H118.43V11.8197H122.069V8.58398Z" fill="#5E5E5E"/>
<path d="M128.909 15.2976C129.496 15.2976 129.786 15.6129 129.964 16.0599C130.124 16.4886 130.145 17.0269 130.145 17.4768H133.249C133.249 16.354 132.662 13.0068 128.801 13.0068C125.362 13.0068 123.656 16.0858 123.656 19.1629C123.656 21.9487 125.361 24.8267 128.643 24.8267C131.295 24.8267 132.866 23.3896 133.138 20.6481L130.306 20.2424C130.306 21.097 130.194 22.3966 128.911 22.3966C127.97 22.3966 127.565 21.569 127.565 19.0273C127.562 16.7808 127.697 15.2976 128.909 15.2976Z" fill="#5E5E5E"/>
<path d="M72.4892 8.58496L68.7373 24.5826H72.2421L72.94 21.3489H76.6477L77.2773 24.5826H81.2099L77.7916 8.58496H72.4892ZM73.5024 18.5169L74.8539 11.9994H74.9347L76.0853 18.5169H73.5024Z" fill="#5E5E5E"/>
<path d="M113.729 14.8299H113.669L113.632 13.3024H110.109V24.5811H113.753V17.2782C114.181 16.7688 114.821 16.4044 115.75 16.4044C116.377 16.4044 116.821 16.5563 117.234 16.7168V13.0342C115.83 13.0342 114.472 13.6388 113.729 14.8299Z" fill="#5E5E5E"/>
<path d="M94.7581 13.0342C93.2335 13.0342 92.1463 13.8551 91.5099 14.5434H91.4628C91.1187 13.6734 90.3804 13.0342 89.274 13.0342C87.9176 13.0342 86.7766 13.735 86.0152 14.4521H85.9691L85.9499 13.3033H82.397V24.5821H85.9691V16.538C86.2757 16.1228 86.8227 15.844 87.2043 15.844C87.8801 15.844 88.0589 16.2468 88.0589 16.8543V24.5821H91.633V16.538C91.8694 16.2266 92.3895 15.844 92.8778 15.844C93.5401 15.844 93.7247 16.2468 93.7247 16.8543V24.5821H97.2959V15.5912C97.2959 14.0329 96.2711 13.0342 94.7581 13.0342Z" fill="#5E5E5E"/>
<path fill-rule="evenodd" clip-rule="evenodd" d="M165.963 6.05078C167.407 6.62082 168.833 7.23316 170.242 7.88491C165.755 9.7075 161.421 11.8646 157.286 14.3351C155.887 13.6016 154.467 12.9086 153.027 12.2578C157.156 9.85361 161.479 7.77436 165.963 6.05078Z" fill="#5E5E5E"/>
<path fill-rule="evenodd" clip-rule="evenodd" d="M160.62 4.16406C155.959 5.63963 151.475 7.56988 147.225 9.91156C148.581 10.4018 149.923 10.9238 151.247 11.4823C155.365 9.05891 159.718 7.02003 164.247 5.39931C163.049 4.95904 161.838 4.54761 160.62 4.16406Z" fill="#5E5E5E"/>
<path fill-rule="evenodd" clip-rule="evenodd" d="M175.688 5.86966C172.028 4.09898 168.228 2.60803 164.32 1.41797C162.946 1.81402 161.584 2.24563 160.233 2.7157C164.257 3.90673 168.168 5.41498 171.936 7.2193C173.174 6.74443 174.426 6.29263 175.688 5.86966Z" fill="#5E5E5E"/>
<path fill-rule="evenodd" clip-rule="evenodd" d="M181.662 4.08929C177.917 2.45511 174.043 1.08817 170.085 0C168.824 0.260507 167.572 0.551775 166.328 0.870921C170.258 2.01773 174.08 3.47215 177.767 5.20342C179.056 4.80448 180.355 4.43247 181.662 4.08929Z" fill="#5E5E5E"/>
<path fill-rule="evenodd" clip-rule="evenodd" d="M191.252 7.31055C181.855 10.478 173.052 14.9893 165.087 20.6368C167.079 21.8595 169.018 23.1573 170.914 24.5242C178.42 18.57 186.754 13.6098 195.722 9.8416C194.259 8.95434 192.764 8.11129 191.252 7.31055Z" fill="#5E5E5E"/>
<path fill-rule="evenodd" clip-rule="evenodd" d="M184.79 4.24023C175.02 6.82416 165.835 10.9932 157.555 16.4841C159.421 17.4021 161.253 18.3816 163.047 19.4246C171.163 13.8069 180.168 9.43308 189.773 6.54827C188.135 5.72734 186.473 4.95447 184.79 4.24023Z" fill="#5E5E5E"/>
<path fill-rule="evenodd" clip-rule="evenodd" d="M173.979 23.518C173.979 22.9556 174.453 22.498 175.034 22.498C175.614 22.498 176.087 22.9556 176.087 23.518C176.087 24.0899 175.614 24.5485 175.034 24.5485C174.453 24.5485 173.979 24.0899 173.979 23.518ZM174.178 23.518C174.178 23.9861 174.559 24.3466 175.034 24.3466C175.505 24.3466 175.884 23.9861 175.884 23.518C175.884 23.0652 175.505 22.7009 175.034 22.7009C174.56 22.7009 174.178 23.0652 174.178 23.518Z" fill="#5E5E5E"/>
<path fill-rule="evenodd" clip-rule="evenodd" d="M175.558 24.0941H175.361L175.024 23.5654H174.815V24.0941H174.642V22.9482H175.155C175.253 22.9482 175.354 22.954 175.445 23.004C175.53 23.0549 175.576 23.1549 175.576 23.252C175.576 23.476 175.411 23.5606 175.203 23.5663L175.558 24.0941ZM175.009 23.425C175.173 23.425 175.4 23.4529 175.4 23.2491C175.4 23.0992 175.269 23.0799 175.121 23.0799H174.816V23.4241H175.009V23.425Z" fill="#5E5E5E"/>
</svg>
