<svg width="170" height="37" viewBox="0 0 170 37" fill="none" xmlns="http://www.w3.org/2000/svg">
<path d="M164.914 23.5479C161.816 23.5479 159.723 25.004 159.723 27.1853C159.723 29.371 161.906 30.2524 163.823 31.0381C165.303 31.6458 166.858 32.2893 166.858 33.3283C166.858 33.6462 166.762 33.8865 166.591 34.0827C166.24 34.5095 165.505 34.7056 164.355 34.6485C163.226 34.5935 161.949 34.2121 160.522 33.544L159.936 33.2744V35.9688L160.309 36.0766L160.549 36.1303C161.262 36.304 162.625 36.6153 164.009 36.6153C167.608 36.6153 169.759 35.1755 169.759 32.7626C169.759 30.5253 167.539 29.62 165.58 28.8291C164.142 28.2481 162.652 27.6521 162.652 26.7003C162.652 26.4213 162.636 25.5956 164.489 25.5956C165.873 25.5956 167.241 26.1509 167.976 26.4578L168.668 26.7542V24.033L167.976 23.8983C167.284 23.7625 166.118 23.5479 164.914 23.5479ZM43.3646 23.9789V24.1138C43.4604 25.422 43.5242 28.7036 43.5242 29.9063C43.5242 31.0035 43.5083 34.6687 43.3379 36.265V36.3995H49.0348C51.8246 36.3995 54.7848 35.5202 54.7848 33.0047C54.7848 31.4271 53.672 30.2533 51.5637 29.6099C53.1076 29.1942 54.1725 28.1141 54.1725 26.8619C54.1725 24.8142 51.8298 24.0254 49.6469 23.9789H43.3646ZM57.1808 23.9789V24.1138C57.2766 25.422 57.3404 28.6714 57.3404 29.8793C57.3404 30.9743 57.3244 34.6711 57.1541 36.265V36.3995H60.0025V36.2919C59.8427 33.2484 59.8427 30.1942 59.8427 27.2392C59.9385 27.5853 60.0971 27.9233 60.535 28.5864C60.5775 28.6627 65.497 35.9157 65.7527 36.3458V36.3995H68.0685L68.042 36.265C67.8824 34.6677 67.8824 30.9745 67.8824 29.8793C67.8824 28.6712 67.9568 25.4167 68.042 24.1138V23.9789H65.1668L65.2999 27.1044C65.3531 28.6649 65.3799 30.2514 65.4862 31.7924C65.2945 31.3205 65.1455 31.0607 64.3149 29.8256C64.2936 29.7814 61.4292 25.2766 60.4283 24.0058L60.4016 23.9789H57.1808ZM71.2629 23.9789L71.2895 24.0869C71.3853 25.3996 71.4493 28.6724 71.4493 29.8795C71.4493 30.9755 71.4332 34.6701 71.2629 36.2652L71.2364 36.3997H74.6704L74.6437 36.2652C74.5266 35.128 74.4947 32.9619 74.4841 31.2806C74.6225 31.288 75.0963 31.3076 75.0963 31.3076L75.5757 31.3345C80.08 31.3345 82.2576 30.1113 82.2576 27.5894C82.2576 24.7153 79.2068 24.0373 76.6405 23.9791H71.2629V23.9789ZM88.7793 23.9789V24.0869C88.8751 25.3996 88.9656 28.6724 88.9656 29.8795C88.9656 30.9755 88.9229 34.6701 88.7526 36.2652V36.3997H92.16V36.2652C92.0429 35.128 91.995 32.9619 91.9737 31.2806C92.1229 31.288 92.6127 31.3076 92.6127 31.3076L93.0919 31.3345C97.5962 31.3345 99.7737 30.1113 99.7737 27.5894C99.7737 24.7153 96.6964 24.0373 94.1301 23.9791H88.7793V23.9789ZM104.299 23.9789L104.272 24.0599C103.644 25.8252 99.5607 34.8532 98.9217 36.238L98.8419 36.3995H101.77L101.797 36.3458C102.052 35.4989 102.361 34.531 102.755 33.4899L105.177 33.436L107.174 33.4629C107.174 33.4629 107.515 33.4899 107.6 33.4899C108.132 34.8296 108.521 35.8458 108.691 36.3458L108.718 36.3995H112.099L106.642 23.9789H104.299ZM113.457 23.9789V24.1138C113.552 25.422 113.616 28.6714 113.616 29.8793C113.616 30.9734 113.611 34.6711 113.43 36.265V36.3995H116.837V36.265C116.667 34.6656 116.651 30.9734 116.651 29.8793C116.651 29.0129 116.694 27.0817 116.758 25.5416C117.034 25.506 117.407 25.4931 117.663 25.4878C119.26 25.4576 120.394 25.7875 120.937 26.4576C121.182 26.7627 121.31 27.1486 121.31 27.5892C121.31 29.0227 119.963 29.7319 118.728 29.7985C118.323 29.8201 118.009 29.7717 118.009 29.7717L117.769 29.7179L117.929 29.9604C119.122 31.7526 120.942 34.8597 121.709 36.3458L121.736 36.3995H125.383L125.276 36.2111C125.148 36.0128 122.747 32.4498 121.736 30.9302C121.736 30.9302 121.704 30.8925 121.683 30.8495C123.535 30.2791 124.451 29.2186 124.451 27.5892C124.451 24.7161 121.374 24.034 118.808 23.9789H113.457ZM126.98 23.9789V24.0869C127.076 25.3996 127.14 28.6767 127.14 29.8795C127.14 30.9736 127.124 34.6679 126.953 36.2652V36.3997H130.361L130.334 36.2652C130.164 34.6679 130.175 30.9736 130.175 29.8795C130.175 28.6758 130.249 25.3963 130.334 24.0869V23.9789H126.98ZM133.422 23.9789V24.1138C133.518 25.42 133.582 28.7036 133.582 29.9063C133.582 31.0035 133.592 34.6687 133.422 36.265L133.396 36.3995H139.119C141.898 36.3995 144.869 35.5202 144.869 33.0047C144.869 31.4271 143.74 30.2533 141.621 29.6099C143.176 29.1942 144.23 28.1141 144.23 26.8619C144.23 24.8142 141.888 24.0254 139.705 23.9789H133.422ZM150.965 23.9789L150.939 24.0328C150.268 25.9102 145.95 35.4532 145.588 36.2378L145.508 36.3993H148.436L148.463 36.3186C148.718 35.4736 149.027 34.509 149.421 33.4625C149.517 33.4605 151.844 33.4356 151.844 33.4356L153.84 33.4625C153.84 33.4625 154.181 33.4605 154.266 33.4625C154.799 34.799 155.187 35.813 155.358 36.3186L155.384 36.3993H158.765L153.308 23.9788H150.965V23.9789ZM47.1447 25.38C47.3417 25.3656 47.5759 25.3783 47.7836 25.38C50.1582 25.3885 51.0312 25.8693 51.0312 27.1851C51.0312 27.5375 50.9408 27.8414 50.7385 28.1012C50.2805 28.6519 49.3542 28.9387 48.236 28.8826H48.1829L47.5174 30.634H48.1829C49.4927 30.5961 50.632 31.0153 51.2177 31.7387C51.4945 32.0739 51.6171 32.4594 51.6171 32.8702C51.6171 34.2517 50.4191 34.9447 48.0766 34.9447C47.6826 34.9447 47.0438 34.9423 46.639 34.9178C46.5538 33.0998 46.559 30.6383 46.559 29.9063C46.559 29.0387 46.5857 27.1108 46.639 25.4608C46.7721 25.4377 46.9477 25.3945 47.1447 25.38ZM137.229 25.38C137.425 25.3656 137.634 25.3783 137.841 25.38C140.226 25.3885 141.116 25.8693 141.116 27.1851C141.116 27.5375 141.009 27.8414 140.796 28.1012C140.338 28.6519 139.423 28.9387 138.294 28.8826H138.241L137.575 30.634H138.267C139.577 30.5961 140.69 31.0153 141.275 31.7387C141.552 32.0739 141.701 32.4594 141.701 32.8702C141.701 34.2517 140.503 34.9447 138.161 34.9447C137.756 34.9447 137.128 34.9423 136.723 34.9178C136.638 33.0998 136.617 30.6383 136.617 29.9063C136.617 29.0377 136.659 27.1052 136.723 25.4608C136.851 25.4377 137.033 25.3945 137.229 25.38ZM75.469 25.4878C77.0662 25.4586 78.1736 25.7853 78.7167 26.4576C78.9617 26.767 79.0894 27.1476 79.0894 27.5892C79.0894 29.388 77.1141 29.7717 75.4423 29.7717L74.7502 29.7448C74.7502 29.7448 74.5906 29.705 74.4841 29.6909C74.4735 29.277 74.4841 28.7457 74.4841 28.1284C74.4841 27.3363 74.4787 26.4352 74.5106 25.5686C74.7129 25.5286 75.0963 25.4965 75.469 25.4878ZM92.9588 25.4878C94.556 25.4586 95.6901 25.7853 96.233 26.4576C96.478 26.767 96.6057 27.1476 96.6057 27.5892C96.6057 29.388 94.6304 29.7717 92.9588 29.7717L92.2667 29.7448C92.2667 29.7448 92.0962 29.705 92.0004 29.6909C91.9898 29.277 91.9739 28.7467 91.9739 28.1284C91.9739 27.3363 91.9952 26.4352 92.027 25.5686C92.24 25.5286 92.5967 25.4965 92.9588 25.4878ZM105.178 27.6433C105.455 28.2274 106.163 29.888 106.961 31.8463C106.844 31.8497 106.695 31.8463 106.695 31.8463L105.178 31.8732C105.178 31.8732 103.639 31.854 103.394 31.8463C104.033 30.2686 104.635 28.8491 105.178 27.6433ZM151.844 27.6433C152.12 28.2296 152.828 29.8892 153.627 31.8463C153.499 31.8485 153.361 31.8463 153.361 31.8463L151.844 31.8732C151.844 31.8732 150.305 31.8484 150.06 31.8463C150.699 30.2706 151.301 28.8524 151.844 27.6433Z" fill="#5E5E5E"/>
<path fill-rule="evenodd" clip-rule="evenodd" d="M36.2994 36.738H-0.000488281V0H36.2994V36.738ZM26.0879 7.38198C25.5873 6.69343 21.5943 4.48408 20.6038 4.06813C23.7557 4.3159 27.6212 5.51546 29.4952 6.68152C30.0953 6.49488 30.7093 6.44398 31.6374 6.36704C31.8618 6.34842 32.1047 6.32829 32.3702 6.30434C32.3099 6.4083 32.26 6.50489 32.2119 6.59809C31.979 7.04887 31.787 7.42045 30.6664 8.16337C31.0391 9.17095 30.1499 14.7169 29.4152 16.1923C29.3834 13.8699 29.165 10.9395 28.3239 9.6721C27.2636 10.3007 26.553 10.6555 25.8431 11.0099C25.0487 11.4065 24.2551 11.8028 22.9731 12.5819C24.3893 11.0267 24.8685 10.3586 25.7416 9.05242C23.495 9.17214 20.2312 9.44899 17.8886 9.9685C19.9331 8.87896 23.9688 7.66648 26.0879 7.38198ZM11.8192 12.8785C12.9586 11.9688 14.673 11.1909 15.2799 11.1002C14.8646 11.6228 14.396 12.6079 14.2681 13.0671C17.5798 13.5282 20.2577 15.2494 20.2577 15.2494C17.3402 14.7321 15.8226 14.8021 14.7473 14.8991C13.661 15.0047 13.4428 15.1416 13.4428 15.1416C12.6655 16.8639 12.1917 19.8566 12.1917 19.8566C11.6594 18.5721 10.9139 15.9769 10.9139 15.9769C9.45515 16.7722 6.06903 19.9645 6.06903 19.9645C7.91121 16.2139 9.7959 14.495 9.7959 14.495C9.1465 13.8418 7.46411 13.5293 6.22882 13.4711C6.86763 13.204 8.52885 12.8807 9.7959 12.8246C11.0631 12.7848 11.8192 12.8785 11.8192 12.8785ZM5.72307 25.9456C5.46735 24.4723 5.53657 23.1285 5.74962 21.2844C6.12229 23.0261 6.45245 24.2903 7.18721 25.595C8.09233 25.4164 8.85901 25.2882 9.90242 25.137C9.33821 25.983 8.98671 26.661 8.67789 27.5081C9.70013 28.4748 10.6266 29.0438 11.9256 29.5288C10.5627 29.4848 9.56184 29.2907 8.35848 28.936C8.27329 29.7905 8.32118 30.4417 8.54482 31.2532C7.58642 30.3014 7.00608 29.4771 6.4417 28.2356C5.36637 27.7378 4.57818 27.269 3.61996 26.6729C4.30145 26.366 4.89255 26.1742 5.72307 25.9456ZM18.9001 28.6937C19.9544 28.1839 20.753 27.6754 21.6688 27.0234C20.8063 27.9145 20.061 28.6529 19.0065 29.4749C19.0936 29.8788 19.1631 30.1302 19.247 30.4333C19.2554 30.4635 19.2639 30.4942 19.2726 30.5257C18.8788 30.6002 18.3038 30.626 17.7288 30.6068C16.6212 31.2651 15.1411 31.7609 14.0018 32.0346C14.6729 31.5992 15.2798 31.1401 15.9718 30.4988C15.2798 30.3577 14.6089 30.1465 13.9487 29.7984C15.0348 29.7941 15.9186 29.6756 17.0366 29.3673C17.6969 28.6291 18.1973 28.0138 18.7936 27.2118C18.8149 27.7723 18.847 28.1937 18.9001 28.6937Z" fill="#5E5E5E"/>
</svg>
