<svg width="195" height="36" viewBox="0 0 195 36" fill="none" xmlns="http://www.w3.org/2000/svg">
<path d="M111.451 5.48629H118.046V2.37432H100.983V5.4637H107.713V17.0419H100.503V20.2142H118.654V17.0419H111.451V5.48607L111.451 5.48629ZM76.5959 21.0103H79.3971V20.1756H91.4825V21.0179H94.3095V1.74298H76.5959V21.0103ZM79.4486 4.4263H91.4014V17.5177H79.4486V4.42652V4.4263ZM89.6671 14.2975L90.8379 13.3316C90.0103 12.2662 89.057 11.403 89.057 11.403L89.8617 11.4087V9.17203H86.7397V7.69382H90.3241V5.52214H80.5033V7.6419H84.0872V9.1314H80.9722V11.4078H84.0872V14.3416H80.2152V16.489H90.507V14.2843C89.9446 14.2899 90.3289 14.273 89.6671 14.2973V14.2975ZM88.315 14.3399L86.7904 14.3351V11.4087L88.335 11.4078C88.3455 11.4078 88.335 11.4078 88.335 11.4078L87.1279 12.6175C87.1279 12.6175 87.9432 13.4852 88.579 14.3425L88.3152 14.3399H88.315ZM59.8632 12.1982H55.7434L55.7423 7.50155H59.8626L59.8632 12.1982ZM63.1614 7.50155H67.3863L67.3882 12.1982H63.1631L63.1612 7.50155H63.1614ZM63.1376 1.61393C63.1376 1.38798 63.3751 1.4171 63.3751 1.18898C63.3751 1.05623 63.2214 0.92523 63.1376 0.922406L59.8595 0.843324V4.49387H52.5732V16.2626H55.7166V15.1913H59.8595V21.4559H63.1376V15.2148H67.2794V16.2511H70.505V4.4943H63.1385V1.61393H63.1376ZM135.483 1.79121C135.483 1.58004 135.722 1.56114 135.722 1.38125C135.722 1.25785 135.563 1.09295 135.483 1.09208C135.483 1.09208 133.815 1.01952 132.195 1.01952V2.83882H124.613V5.46826H128.524C128.524 5.46826 128.59 5.60882 128.908 6.05354C128.946 6.10612 129.443 7.1094 129.555 7.37815H125.417V21.0509H128.292L128.283 13.2178C128.283 13.2178 128.906 13.7088 129.265 14.6347C129.265 14.6347 129.719 14.5678 129.982 14.1504V19.2288H132.262V18.7682H135.626V19.2288H137.738C138.245 20.2521 138.172 21.2119 138.172 21.2119C138.34 21.2025 138.625 21.2158 138.793 21.2119C140.962 21.1791 142.326 20.3329 142.326 18.8236V7.39205H138.433L139.321 5.44458H143.212V2.83882H135.483V1.79099V1.79121ZM131.12 10.0491C130.468 10.8981 128.264 12.2803 128.264 12.2803L128.268 12.332L128.261 10.0595C130.916 10.0443 131.142 10.0219 131.12 10.0491H131.12ZM135.523 16.5604L132.282 16.5615L132.286 14.875L135.521 14.8759L135.523 16.5502L135.523 16.5604ZM139.5 10.0406C139.5 10.8321 139.499 11.6631 139.499 12.2227C139.499 12.2227 137.965 10.9498 136.475 10.0341L139.5 10.0406ZM135.92 12.6694L132.165 12.6759C132.165 12.6759 132.418 12.5336 133.136 11.7526C133.515 11.7196 133.66 11.5162 133.466 11.2297C133.466 11.2297 133.227 11.0365 132.275 10.0397L135.937 10.0332C135.937 10.0332 135.415 10.8114 134.594 11.5247C135.317 11.9816 135.692 12.4206 135.92 12.6694ZM136.122 5.51649L135.211 7.39227H132.688L131.849 5.51649H136.122H136.122ZM139.5 17.5205C139.5 17.6241 139.236 17.9822 139.015 17.9889C138.611 17.999 138.207 17.9958 137.803 17.9793V14.1024L138.469 14.6781C139.056 13.8895 139.501 13.259 139.501 13.259V17.5205H139.5ZM160.4 4.2425H164.39V5.74069H160.4V4.2425ZM160.386 16.731V11.7432L161.022 11.7393C161.04 12.0022 161.527 14.0996 162.343 15.8717C162.343 15.8726 161.252 16.3823 160.386 16.731ZM160.4 7.86806H164.39V9.31998H160.4V7.86784V7.86806ZM164.33 13.6171C164.018 12.919 163.794 11.7385 163.794 11.7385L166.927 11.7009L166.98 1.87963H157.717V17.9635C157.283 18.1651 156.367 18.607 156.367 18.607C157.245 20.1821 157.396 21.0337 157.396 21.0337C157.5 21.1432 157.505 21.1537 157.57 21.1537C157.63 21.1537 157.57 21.2703 158.001 20.9001C159.056 20.3857 161.794 18.8236 162.397 18.4703C163.263 17.9624 162.505 18.408 162.738 18.2027C162.48 17.2124 162.562 16.144 162.562 16.144C163.969 18.6804 165.66 20.3489 166.558 21.0565C167.455 19.7233 168.631 18.6257 168.631 18.6257C165.978 17.4216 165.442 15.7014 165.442 15.7014C166.105 15.2556 167.103 14.5113 167.434 14.2806C167.542 14.2061 167.8 13.9536 167.878 13.9299C167.931 13.9147 168 13.8169 167.944 13.7463C167.607 13.3194 166.55 11.9675 166.55 11.9118L164.33 13.6173L164.33 13.6171ZM156.413 15.1407C155.486 15.7814 154.82 16.0217 154.82 16.0217L154.819 13.8641H157.302V11.3683H154.819V9.81358H156.854V7.26822H151.802L152.796 5.86692H157.228L157.28 3.26855L154.256 3.26485C154.498 2.758 154.744 2.51402 154.837 2.46014C155.008 2.36607 155.184 2.11731 154.945 1.87703C153.704 1.49075 152.985 1.13358 152.171 0.835938C151.368 2.96439 150.041 5.44783 148.261 7.37272C149.234 8.47029 149.494 9.76948 149.494 9.76948C150.254 9.02342 150.552 8.69081 150.552 8.69081V9.81098L152.101 9.81489V11.3448H149.703V13.8652H152.152V17.3608C151.157 17.8835 149.743 18.4808 149.743 18.4808V18.4819C150.482 20.0016 150.747 20.7137 150.869 20.9833C151.18 21.2734 151.477 20.8465 151.728 20.695C154.039 19.3016 156.292 18.1049 157.002 17.6413L157.075 17.6791C157.075 17.6771 156.655 16.5081 156.413 15.1409L156.413 15.1407ZM182.843 5.01897H192.654V2.0832H182.843V5.01897ZM175.176 8.39295C176.607 7.39987 178.206 5.76525 178.416 5.58905C178.68 5.36463 179.884 4.05414 179.884 4.05414C180.474 3.64527 180.428 3.75455 180.736 3.66221C181.042 3.56879 181.031 3.35979 181.052 3.31547C181.151 3.12146 180.943 2.94701 180.088 2.07364C179.761 1.74211 178.792 0.872437 178.792 0.872437C177.401 2.95092 175.086 4.87863 173.839 5.79914C174.605 6.55736 175.176 8.39295 175.176 8.39295ZM182.375 8.17982C182.484 8.02926 182.756 7.89152 182.756 7.89152C182.981 7.81983 183.099 7.5891 183.117 7.45354C183.129 7.35447 182.97 7.1887 181.963 6.369C181.963 6.369 181.833 6.28144 180.999 5.33269C179.16 7.92368 176.533 10.4288 174.159 11.9562C174.952 12.6392 175.489 14.6725 175.489 14.6725H175.515L177.032 13.5032L177.09 13.5219V21.0876H180.031V11.0761C180.832 10.2442 182.11 8.63128 182.11 8.63128V11.0865L187.554 11.0958V17.8483C187.537 18.3356 186.988 18.3845 186.988 18.3845L185.219 18.3902C186.361 19.7732 186.171 20.9718 186.202 21.4541H186.517C188.368 21.3683 190.535 21.307 190.661 18.8019V11.0902H193.255V8.17895L182.375 8.17982ZM52.5884 30.0053H53.4665V34.5916H52.5884V30.0053ZM54.2761 34.5916V30.0053H55.2039L56.8894 33.2068V30.0053H57.7143V34.5916H56.8304L55.1008 31.3336V34.5918H54.2761V34.5916ZM61.0151 31.1763C61.1496 31.427 61.2174 31.7851 61.2174 32.2513C61.2174 32.5896 61.1714 32.8818 61.0819 33.1268C60.9179 33.5722 60.6262 33.7955 60.2095 33.7955H59.3943V30.8024H60.2095C60.6108 30.8013 60.8797 30.9267 61.0151 31.1763ZM58.5361 30.0053V34.5916H60.3581C60.9979 34.5916 61.47 34.3063 61.7769 33.7354C62.0029 33.3121 62.1164 32.7968 62.1164 32.1863C62.1164 31.9452 62.0887 31.6927 62.0352 31.427C61.9828 31.1636 61.8806 30.9124 61.734 30.6864C61.55 30.4046 61.3097 30.2106 61.0142 30.105C60.8388 30.0429 60.6204 30.0099 60.3581 30.0062H58.5361V30.0053ZM62.9897 33.9624C63.252 34.4608 63.7497 34.7084 64.483 34.7084C65.2162 34.7084 65.712 34.4599 65.9732 33.9624C66.1124 33.6908 66.183 33.3113 66.183 32.8233V30.0053H65.2837V32.8231C65.2837 33.139 65.2494 33.3688 65.1799 33.5148C65.0731 33.7712 64.8405 33.9002 64.483 33.9002C64.1224 33.9002 63.8898 33.7721 63.7821 33.5148C63.7126 33.3688 63.6783 33.139 63.6783 32.8233V30.0053H62.7799V32.8231C62.7799 33.3113 62.8505 33.6921 62.9897 33.9624ZM66.8219 33.1757H67.6657C67.6914 33.3847 67.7457 33.5422 67.8229 33.6458C67.9669 33.8342 68.2129 33.9283 68.5619 33.9283C68.7707 33.9283 68.9394 33.9039 69.0702 33.854C69.3171 33.7588 69.4409 33.5807 69.4409 33.3217C69.4409 33.1701 69.3791 33.0532 69.2562 32.9693C69.1331 32.8891 68.9414 32.8177 68.6791 32.7553L68.231 32.6471C67.7915 32.5387 67.4874 32.4218 67.3194 32.2947C67.0336 32.0836 66.8914 31.7529 66.8914 31.3017C66.8914 30.8919 67.0288 30.5508 67.3043 30.2784C67.5808 30.0081 67.9849 29.8715 68.519 29.8715C68.9653 29.8715 69.3457 29.9996 69.6612 30.2549C69.9758 30.5122 70.1398 30.8843 70.1561 31.3705H69.3065C69.2911 31.0944 69.1797 30.8993 68.9739 30.7824C68.8354 30.7064 68.6648 30.6686 68.4599 30.6686C68.2321 30.6686 68.0498 30.7175 67.9146 30.8163C67.7783 30.9163 67.7103 31.0557 67.7103 31.2328C67.7103 31.3968 67.7772 31.5193 67.9115 31.6004C67.9973 31.654 68.1804 31.7181 68.4618 31.7896L69.1911 31.9791C69.5106 32.0629 69.7518 32.1731 69.9149 32.3125C70.1675 32.5283 70.2933 32.8403 70.2933 33.2489C70.2933 33.6682 70.1455 34.016 69.85 34.2939C69.5545 34.5709 69.1359 34.7084 68.5962 34.7084C68.0452 34.7084 67.6123 34.572 67.2957 34.2996C66.9791 34.0273 66.8219 33.6524 66.8219 33.1757ZM70.5938 30.0053H74.0215V30.8165H72.7551V34.5907H71.8646V30.8165H70.5927V30.0053H70.5938ZM76.881 30.8824C77.0516 30.9775 77.1374 31.1641 77.1374 31.442C77.1374 31.7001 77.0497 31.8717 76.8733 31.9593C76.7742 32.0093 76.6244 32.0338 76.4253 32.0338H75.424V30.8024H76.4519C76.6425 30.8013 76.7856 30.8287 76.881 30.8824ZM74.5593 30.0053V34.5916H75.4231V32.7931H76.3355C76.595 32.7931 76.7731 32.8411 76.8685 32.9391C76.963 33.0371 77.0114 33.2313 77.0162 33.5242L77.0211 33.95C77.0231 34.0847 77.0354 34.2157 77.0593 34.3448C77.0697 34.4071 77.0888 34.4899 77.1165 34.5907H78.09V34.4758C78.0052 34.4193 77.9515 34.3335 77.9289 34.214C77.9135 34.1395 77.9049 33.9971 77.9049 33.7881V33.4809C77.9049 33.1594 77.864 32.9204 77.7829 32.764C77.702 32.6076 77.5637 32.4859 77.3682 32.4012C77.6017 32.3136 77.7686 32.1657 77.8695 31.9545C77.9718 31.7436 78.0223 31.5296 78.0223 31.311C78.0223 31.1311 77.9966 30.971 77.9421 30.8296C77.8899 30.6904 77.8163 30.5601 77.7238 30.4433C77.6161 30.3062 77.4769 30.1964 77.3177 30.123C77.1574 30.0514 76.9285 30.0109 76.6321 30.0053H74.5593ZM78.7136 30.0053H79.5917V34.5916H78.7136V30.0053ZM82.6476 32.8581H81.574L82.1184 31.0538L82.6476 32.8581ZM81.0428 34.5918L81.3357 33.6487H82.8945L83.1671 34.5916H84.1255L82.6276 30.0053H81.6272L80.117 34.5916H81.0428V34.5918ZM84.6622 34.5918V30.0053H85.5451V33.7673H87.6418V34.5918H84.6622ZM92.1175 32.8581H91.0439L91.5892 31.0538L92.1175 32.8581ZM90.5127 34.5918L90.8045 33.6487H92.3644L92.6362 34.5916H93.5954L92.0955 30.0053H91.0973L89.5869 34.5916H90.5127V34.5918ZM94.1169 34.5918V30.0053H95.0436L96.7293 33.2068V30.0053H97.5543V34.5916H96.6682L94.9408 31.3336V34.5918H94.1169ZM100.856 31.1765C100.99 31.427 101.059 31.7848 101.059 32.2513C101.059 32.5896 101.013 32.8818 100.923 33.1268C100.759 33.5722 100.468 33.7955 100.05 33.7955H99.2351V30.8024H100.05C100.452 30.8013 100.722 30.9267 100.856 31.1763V31.1765ZM98.377 30.0053V34.5916H100.199C100.84 34.5916 101.311 34.3063 101.618 33.7354C101.845 33.3121 101.957 32.7968 101.957 32.1863C101.957 31.9452 101.931 31.6927 101.876 31.427C101.824 31.1636 101.722 30.9124 101.575 30.6864C101.392 30.4046 101.151 30.2106 100.855 30.105C100.68 30.0429 100.461 30.0099 100.199 30.0062H98.377V30.0053ZM104.071 32.3351C104.071 31.5352 104.269 30.9182 104.664 30.4848C105.008 30.107 105.447 29.9186 105.98 29.9186C106.691 29.9186 107.213 30.1719 107.542 30.6768C107.723 30.9625 107.821 31.2469 107.835 31.5335H106.951C106.892 31.313 106.82 31.1472 106.73 31.0351C106.568 30.8363 106.33 30.7374 106.014 30.7374C105.694 30.7374 105.439 30.8776 105.254 31.1594C105.068 31.4392 104.974 31.8378 104.974 32.3521C104.974 32.8657 105.073 33.252 105.269 33.5072C105.465 33.7636 105.714 33.8918 106.017 33.8918C106.327 33.8918 106.562 33.7823 106.727 33.562C106.816 33.4442 106.891 33.2661 106.951 33.0306H107.826C107.75 33.5298 107.554 33.9359 107.24 34.2496C106.925 34.5635 106.521 34.7197 106.029 34.7197C105.421 34.7197 104.942 34.509 104.594 34.0849C104.246 33.658 104.071 33.0758 104.071 32.3351ZM109.534 33.4866C109.324 33.2068 109.22 32.8081 109.22 32.291C109.22 31.7746 109.324 31.377 109.534 31.0961C109.741 30.8165 110.021 30.676 110.372 30.676C110.723 30.676 111 30.8172 111.206 31.0981C111.411 31.3799 111.515 31.7775 111.515 32.2908C111.515 32.8081 111.411 33.2057 111.206 33.4866C111 33.7664 110.722 33.9068 110.372 33.9068C110.022 33.9068 109.741 33.7673 109.534 33.4866ZM111.758 30.4001C111.439 30.0429 110.976 29.8656 110.372 29.8656C109.766 29.8656 109.305 30.0438 108.984 30.4001C108.556 30.8211 108.342 31.4516 108.342 32.2919C108.342 33.1162 108.556 33.7467 108.984 34.1846C109.305 34.5418 109.766 34.7191 110.372 34.7191C110.976 34.7191 111.439 34.5409 111.758 34.1846C112.184 33.7467 112.398 33.1162 112.398 32.2919C112.398 31.4516 112.184 30.8211 111.758 30.4001ZM115.113 33.6111L115.877 30.0053H117.149V34.5916H116.325V31.49C116.325 31.4005 116.326 31.2754 116.328 31.115C116.33 30.9541 116.332 30.8304 116.332 30.7429L115.531 34.5918H114.672L113.877 30.7427C113.877 30.8304 113.878 30.9538 113.881 31.1148C113.881 31.2752 113.882 31.4003 113.882 31.4898V34.5916H113.059V30.0051H114.345L115.113 33.6106V33.6111ZM120.011 33.6111L120.775 30.0053H122.047V34.5916H121.222V31.49C121.222 31.4005 121.223 31.2754 121.226 31.115C121.227 30.9541 121.228 30.8304 121.228 30.7429L120.427 34.5918H119.569L118.773 30.7427C118.773 30.8304 118.774 30.9538 118.777 31.1148C118.778 31.2752 118.778 31.4003 118.778 31.4898V34.5916H117.955V30.0051H119.241L120.011 33.6106V33.6111ZM125.995 30.0053V30.8165H123.756V31.7907H125.811V32.5867H123.756V33.7664H126.098V34.5907H122.891V30.0044H125.995V30.0053H125.995ZM129.129 30.8824C129.3 30.9775 129.386 31.1641 129.386 31.442C129.386 31.7001 129.297 31.8717 129.122 31.9593C129.023 32.0093 128.873 32.0338 128.674 32.0338H127.673V30.8024H128.699C128.891 30.8013 129.034 30.8287 129.129 30.8824ZM126.808 30.0053V34.5916H127.672V32.7931H128.584C128.844 32.7931 129.021 32.8411 129.117 32.9391C129.212 33.0371 129.26 33.2313 129.265 33.5242L129.27 33.95C129.273 34.1668 129.305 34.3823 129.365 34.5909H130.338V34.4758C130.254 34.4193 130.2 34.3335 130.177 34.214C130.162 34.1395 130.153 33.9971 130.153 33.7881V33.4809C130.153 33.1594 130.112 32.9204 130.033 32.764C129.951 32.6076 129.813 32.4859 129.618 32.4012C129.851 32.3136 130.018 32.1657 130.12 31.9545C130.221 31.7436 130.272 31.5296 130.272 31.311C130.272 31.1311 130.246 30.971 130.192 30.8296C130.139 30.6906 130.065 30.5604 129.973 30.4433C129.866 30.3059 129.726 30.1961 129.567 30.123C129.407 30.0514 129.178 30.0109 128.882 30.0053H126.808ZM131.372 34.0838C131.72 34.5079 132.198 34.7189 132.807 34.7189C133.299 34.7189 133.702 34.5624 134.017 34.2487C134.333 33.9359 134.528 33.529 134.604 33.0295H133.728C133.668 33.2652 133.595 33.4431 133.504 33.5609C133.342 33.7814 133.106 33.8907 132.794 33.8907C132.493 33.8907 132.243 33.7636 132.047 33.5061C131.851 33.2511 131.752 32.8648 131.752 32.3512C131.752 31.8368 131.846 31.4383 132.032 31.1585C132.217 30.8767 132.47 30.7372 132.792 30.7372C133.107 30.7372 133.346 30.8363 133.507 31.0349C133.597 31.1472 133.67 31.313 133.727 31.5335H134.612C134.599 31.2469 134.501 30.9625 134.318 30.677C133.989 30.1719 133.469 29.9186 132.757 29.9186C132.225 29.9186 131.787 30.107 131.443 30.4848C131.046 30.9182 130.848 31.5352 130.848 32.3351C130.848 33.0758 131.022 33.6589 131.372 34.084V34.0838ZM136.087 30.0053H135.209V34.5916H136.087V30.0053ZM139.141 32.8581H138.067L138.614 31.0538L139.141 32.8581ZM137.537 34.5918L137.829 33.6487H139.388L139.66 34.5916H140.62L139.121 30.0053H138.122L136.611 34.5916H137.537V34.5918ZM141.156 34.5918V30.0053H142.039V33.7673H144.135V34.5918H141.156ZM148.675 30.873C148.827 30.9417 148.904 31.0831 148.904 31.296C148.904 31.4892 148.846 31.623 148.731 31.6992C148.616 31.7755 148.464 31.8133 148.278 31.8133H147.239V30.8013H148.169C148.374 30.8013 148.542 30.825 148.675 30.873ZM148.72 32.6489C148.902 32.7384 148.993 32.9024 148.993 33.1418C148.993 33.4234 148.899 33.6137 148.712 33.7136C148.608 33.7682 148.464 33.7947 148.278 33.7947H147.239V32.5709H148.293C148.477 32.5737 148.619 32.6 148.72 32.6491V32.6489ZM146.395 30.0053V34.5916H148.312C148.53 34.5916 148.73 34.57 148.914 34.5294C149.091 34.4921 149.256 34.4129 149.395 34.2987C149.518 34.1993 149.62 34.0766 149.696 33.9378C149.822 33.7221 149.886 33.4781 149.886 33.2068C149.886 32.9439 149.831 32.7197 149.722 32.5359C149.612 32.3512 149.449 32.2157 149.231 32.1307C149.374 32.0516 149.48 31.9649 149.554 31.8689C149.683 31.6995 149.749 31.4742 149.749 31.1943C149.749 30.9219 149.683 30.6892 149.554 30.4941C149.337 30.1767 148.97 30.0138 148.452 30.0053H146.395ZM152.856 32.8581H151.782L152.327 31.0538L152.856 32.8581ZM151.252 34.5918L151.545 33.6487H153.103L153.375 34.5916H154.335L152.836 30.0053H151.836L150.326 34.5916H151.252V34.5918ZM155.68 34.5918V31.3336L157.409 34.5918H158.293V30.0053H157.469V33.2068L155.783 30.0053H154.856V34.5916H155.68V34.5918ZM159.13 34.5918V30.0053H159.999V31.8932L161.631 30.0053H162.775L161.04 31.8932L162.864 34.5916H161.727L160.421 32.5867L159.999 33.0569V34.5918H159.13ZM166.027 33.4866C165.818 33.2068 165.713 32.8081 165.713 32.291C165.713 31.7746 165.818 31.377 166.027 31.0961C166.236 30.8165 166.515 30.676 166.865 30.676C167.215 30.676 167.494 30.8172 167.699 31.0981C167.905 31.3799 168.008 31.7775 168.008 32.2908C168.008 32.8081 167.906 33.2057 167.699 33.4866C167.494 33.7664 167.215 33.9068 166.865 33.9068C166.515 33.9068 166.236 33.7673 166.027 33.4866ZM168.252 30.4001C167.933 30.0429 167.471 29.8656 166.865 29.8656C166.26 29.8656 165.798 30.0438 165.479 30.4001C165.05 30.8211 164.835 31.4516 164.835 32.2919C164.835 33.1162 165.05 33.7467 165.479 34.1846C165.798 34.5418 166.261 34.7191 166.865 34.7191C167.471 34.7191 167.933 34.5409 168.252 34.1846C168.68 33.7467 168.893 33.1162 168.893 32.2919C168.892 31.4516 168.679 30.8211 168.252 30.4001ZM169.566 34.5918V30.012H172.566V30.8174H170.444V31.8726H172.303V32.6688H170.444V34.5916H169.566V34.5918ZM174.608 32.3351C174.608 31.5352 174.806 30.9182 175.203 30.4848C175.547 30.107 175.986 29.9186 176.518 29.9186C177.231 29.9186 177.751 30.1719 178.08 30.6768C178.262 30.9625 178.36 31.2469 178.374 31.5335H177.489C177.432 31.313 177.357 31.1472 177.268 31.0351C177.107 30.8363 176.869 30.7374 176.553 30.7374C176.231 30.7374 175.977 30.8776 175.793 31.1594C175.607 31.4392 175.514 31.8378 175.514 32.3521C175.514 32.8657 175.611 33.252 175.809 33.5072C176.005 33.7636 176.254 33.8918 176.556 33.8918C176.868 33.8918 177.104 33.7823 177.266 33.562C177.356 33.4442 177.43 33.2661 177.49 33.0306H178.366C178.29 33.5298 178.093 33.9359 177.779 34.2496C177.464 34.5635 177.062 34.7197 176.569 34.7197C175.959 34.7197 175.482 34.509 175.134 34.0849C174.782 33.658 174.608 33.0758 174.608 32.3351ZM179.907 34.5918H179.03V30.0053H179.907V31.7529H181.56V30.0053H182.439V34.5916H181.56V32.5435H179.907V34.5918H179.907ZM183.213 30.0053H184.091V34.5916H183.213V30.0053ZM184.901 34.5916V30.0053H185.828L187.513 33.2068V30.0053H188.337V34.5916H187.453L185.725 31.3336V34.5918H184.901V34.5916ZM191.39 32.8581H190.317L190.862 31.0538L191.39 32.8581ZM189.787 34.5918L190.079 33.6487H191.638L191.911 34.5916H192.87L191.37 30.0053H190.372L188.862 34.5916H189.787" fill="#5E5E5E"/>
<path d="M17.3636 10.9273V8.19856H8.36379V16.3908H13.8806V19.1233H8.36379V27.3173H17.3636V24.5859H11.1336V21.8535H16.6647V13.6586H11.1336V10.9264H17.3636V10.9273ZM0 17.7702C0 7.95676 8.06719 0 18.0177 0C27.97 0 36.0377 7.95654 36.0377 17.7702C36.0377 27.5838 27.97 35.5404 18.0177 35.5404C8.06719 35.5404 0 27.5838 0 17.7702ZM18.0186 32.7856C26.4283 32.7856 33.2456 26.0633 33.2456 17.7693C33.2456 9.47537 26.4283 2.75306 18.0186 2.75306C9.60997 2.75306 2.79269 9.47537 2.79269 17.7693C2.79269 26.0633 9.60997 32.7856 18.0186 32.7856ZM18.7558 24.5933V27.3229H27.7356V19.1298H22.2197V16.3984H27.7356V8.20356H18.7558V10.9349H24.9656V13.6662H19.4345V21.862H24.9656V24.5933H18.7558ZM50.7133 26.1762H194.761V25.302H50.7133V26.1762Z" fill="#5E5E5E"/>
</svg>
