<svg width="83" height="22" viewBox="0 0 83 22" fill="none" xmlns="http://www.w3.org/2000/svg">
<path d="M10.1479 17.2185L10.0883 17.2757C9.12742 18.2476 8.01528 18.7627 6.86932 18.7627C4.47729 18.7627 2.74092 16.9812 2.74092 14.5232C2.74092 12.0696 4.47729 10.2856 6.86932 10.2856C8.01528 10.2856 9.12742 10.8028 10.0883 11.7772L10.1479 11.8362L11.6862 9.98956L11.6451 9.93946C10.3658 8.43861 8.83073 7.70798 6.94358 7.70798C5.04989 7.70798 3.31881 8.34066 2.07123 9.48166C0.715699 10.7173 0 12.4598 0 14.5232C0 16.5855 0.715699 18.3324 2.07123 19.5683C3.31881 20.7146 5.04989 21.3438 6.94358 21.3438C8.83073 21.3438 10.3658 20.6135 11.6451 19.1121L11.6862 19.0654L10.1479 17.2185Z" fill="#5E5E5E"/>
<path d="M13.2407 21.0928H15.9584V7.92231H13.2407V21.0928Z" fill="#5E5E5E"/>
<path d="M26.6035 18.2292C25.8785 18.6675 25.2037 18.8878 24.5977 18.8878C23.7197 18.8878 23.3229 18.4277 23.3229 17.403V10.4147H26.0907V7.93454H23.3229V3.83649L20.6592 5.25167V7.93454H18.3613V10.4147H20.6592V17.8488C20.6592 19.8742 21.8678 21.2578 23.6718 21.2938C24.8968 21.3176 25.6352 20.9554 26.0837 20.6905L26.11 20.6712L26.7643 18.1317L26.6035 18.2292Z" fill="#5E5E5E"/>
<path d="M28.8545 21.0928H31.5739V7.92231H28.8545V21.0928Z" fill="#5E5E5E"/>
<path d="M74.9182 2.91138V15.4746L75.7648 14.1665C75.7641 14.1723 79.5682 8.70359 80.0557 8.00627H81.7511C81.3902 8.48762 78.3992 12.5741 78.3992 12.5741C78.3992 12.5741 82.2953 20.6339 82.5204 21.0931H80.8556C80.764 20.9051 77.417 13.8708 77.417 13.8708L74.9182 17.3467V21.0931H73.3671V3.79075C73.5028 3.71341 74.5531 3.11568 74.9182 2.91138ZM62.1766 9.56651C62.9766 8.3791 64.2302 7.72437 65.6969 7.72437C68.6213 7.72437 70.1712 9.576 70.1712 13.0799V21.0931H68.6162V13.4117C68.6162 10.4307 67.5736 9.04686 65.3148 9.04686C63.153 9.04686 61.8622 10.6792 61.8622 13.4117V21.0931H60.3116V8.00627H61.8622V10.0357L62.1766 9.56651ZM52.6432 7.72437C55.6526 7.72437 57.1156 9.09055 57.1156 11.9017V21.0931H55.5644V19.1838L55.2625 19.5142C54.121 20.7646 52.8107 21.376 51.2504 21.376C50.0279 21.376 47.1833 20.9743 47.1833 17.2487C47.1833 14.2035 49.7155 13.1226 52.0876 13.1226C53.2786 13.1226 54.4552 13.3949 55.3091 13.8699L55.5644 14.0104V12.1316C55.5644 10.0485 54.5396 8.99362 52.5146 8.99362C51.2658 8.99362 50.1388 9.30651 48.9832 9.95312C48.8813 9.72057 48.5228 8.93383 48.4231 8.7094C49.6308 8.07747 51.1222 7.72437 52.6432 7.72437ZM48.7043 17.1204C48.7043 19.0768 49.7254 20.1549 51.5804 20.1549C53.1593 20.1549 54.5616 19.4144 55.5351 18.0677L55.5644 18.0215V15.1523L55.4782 15.1028C54.4881 14.5424 53.4741 14.3164 51.9837 14.3164C49.932 14.3164 48.7043 15.3644 48.7043 17.1204ZM36.7271 2.91138V9.9121L37.0274 9.58569C38.1698 8.33309 39.4343 7.72437 40.888 7.72437C43.7973 7.72437 45.4672 10.1317 45.4672 14.3301C45.4672 18.6101 43.5706 21.376 40.6343 21.376C39.2035 21.376 38.0579 20.8249 37.029 19.6437L36.7271 19.2949V21.0931H35.1792V3.79075C35.311 3.71341 36.3633 3.11568 36.7271 2.91138ZM36.764 11.0523L36.7271 11.1007V17.913L36.7548 17.9548C37.6104 19.2693 39.0043 20.0553 40.4879 20.0553C42.779 20.0553 43.9403 18.1382 43.9403 14.3581C43.9403 10.9811 42.6536 9.04686 40.4103 9.04686C39.0505 9.04686 37.8236 9.72131 36.764 11.0523Z" fill="#5E5E5E"/>
<path fill-rule="evenodd" clip-rule="evenodd" d="M33.2017 5.58563C30.7139 2.08742 26.5825 0.000303031 22.3791 0.000303031C18.1774 0.000303031 14.0451 2.08742 11.5615 5.58563L11.4341 5.76562H14.5665L14.6012 5.72829C16.7332 3.54377 19.5163 2.38851 22.3791 2.38851C25.2422 2.38851 28.0247 3.54377 30.1608 5.72829L30.1955 5.76562H33.3269L33.2017 5.58563Z" fill="#5E5E5E"/>
</svg>
