<svg width="169" height="19" viewBox="0 0 169 19" fill="none" xmlns="http://www.w3.org/2000/svg">
<path d="M0.657765 18.7846C0.0904008 18.4391 -0.155767 17.5862 0.101211 16.8953C0.154726 16.7442 1.00015 15.8157 1.97423 14.8441L3.74022 13.0628H2.33813C0.754092 13.0628 0.443813 12.9657 0.165429 12.3719C-0.15566 11.6811 0.0156941 10.8281 0.582844 10.3856C0.861121 10.1588 0.989557 10.1481 2.9482 10.1481C5.00317 10.1481 5.00317 10.1481 5.33496 10.4288C5.51691 10.5799 5.78449 10.9578 5.94503 11.2601C6.30893 12.0158 6.99392 12.7067 7.6468 13.009C8.24617 13.2789 8.58866 13.6135 8.7598 14.0669C8.82413 14.2396 8.87764 15.1248 8.87764 16.064C8.87764 17.4675 8.84553 17.8237 8.68499 18.1368C8.31039 18.9033 7.42193 19.2056 6.57651 18.8493C5.99855 18.601 5.88081 18.2448 5.88081 16.6578V15.276L4.14693 17.0249C3.18367 17.9749 2.29532 18.817 2.16688 18.8817C1.79228 19.0761 1.05377 19.0221 0.657765 18.7846ZM10.1941 18.8385C10.0015 18.7522 9.74458 18.5255 9.62685 18.3311C9.4342 18.0073 9.41279 17.7914 9.41279 16.0317C9.41279 13.7214 9.46631 13.581 10.4617 13.0736C11.2537 12.6743 11.9173 12.005 12.3133 11.206C12.8163 10.1913 12.9555 10.148 15.278 10.148C17.44 10.148 17.6648 10.202 18.018 10.8173C18.2534 11.206 18.2643 11.9617 18.0394 12.3935C17.7291 12.9982 17.5363 13.0628 15.9523 13.0628H14.5074L16.3377 14.9305C18.2856 16.9277 18.4033 17.1112 18.1892 17.9101C18.0287 18.5147 17.5577 18.9141 16.937 18.9681C16.6587 19.0005 16.3162 18.9789 16.1771 18.9249C16.0486 18.8709 15.1389 18.0397 14.1756 17.068L12.4096 15.2975V16.5606C12.4096 18.0181 12.2812 18.4499 11.746 18.7846C11.3393 19.0329 10.6864 19.0545 10.1941 18.8385ZM45.6744 18.126C44.4436 17.9425 43.7051 17.2624 43.4589 16.0748C43.384 15.751 43.3412 14.0451 43.3412 11.8753V8.20475H41.2006V5.72174H43.2342V3.83248C43.2342 2.79609 43.2663 1.94323 43.2984 1.94323C43.3305 1.94323 43.9941 1.7705 44.7754 1.56538C45.5567 1.36026 46.2524 1.18753 46.3273 1.18753C46.4129 1.18753 46.4452 1.83527 46.4452 3.45463V5.72174H49.442V8.20475H46.4236L46.4664 11.3679C46.5092 14.7686 46.5521 15.0385 47.1085 15.3407C47.3548 15.4703 48.3608 15.4919 49.0351 15.3839L49.4419 15.3083V17.8993L49.1529 17.9642C47.8792 18.234 46.7447 18.288 45.6744 18.126ZM73.47 18.126C71.0619 17.7698 69.5206 16.3879 69.039 14.1424C68.8036 13.0628 68.7714 11.4759 68.9641 10.3639C69.328 8.28032 70.3876 6.79051 72.0894 5.97004C72.86 5.60298 72.9991 5.5706 74.1443 5.52741C74.9042 5.49503 75.5999 5.52741 75.9745 5.61378C77.7619 6.00242 79.057 7.39507 79.4638 9.3599C79.6244 10.1047 79.6779 11.7241 79.56 12.1776L79.4958 12.4151H72.0037L72.068 12.9333C72.2606 14.2612 72.7529 14.9845 73.7804 15.4487C74.7545 15.8805 76.9913 15.7186 78.4148 15.1033L78.8643 14.9089L78.9179 15.2004C78.95 15.3623 79.0249 15.9237 79.0998 16.4419C79.2603 17.5646 79.3246 17.4891 78.0509 17.8023C76.499 18.2016 74.7865 18.3204 73.47 18.126ZM76.4562 9.69456C76.2956 8.56101 75.5143 7.88088 74.3905 7.88088C73.4593 7.88088 72.7743 8.35589 72.3569 9.28433C71.9502 10.1912 71.8432 10.148 74.3263 10.148H76.5204L76.4562 9.69456ZM96.5456 18.126C96.0426 18.072 95.6359 18.0181 95.6252 17.9965C95.6144 17.9856 95.6359 17.3811 95.6573 16.647C95.7 15.4703 95.7215 15.3191 95.8821 15.3839C96.3637 15.5782 98.1511 15.7834 98.6862 15.7186C99.7137 15.5891 100.367 15.0061 100.238 14.326C100.131 13.7539 99.7458 13.4515 98.4936 12.955C97.8621 12.7067 97.1236 12.372 96.8773 12.2209C95.09 11.1844 94.8546 8.50703 96.4065 6.87688C96.8667 6.39107 98.0441 5.79731 98.9109 5.61378C99.4568 5.48423 102.689 5.50582 102.775 5.62457C102.785 5.64617 102.785 6.23993 102.764 6.95245L102.721 8.22634L102.389 8.16157C100.57 7.78372 99.4139 7.88088 98.9431 8.43146C98.4293 9.05762 98.6755 9.75934 99.5531 10.1804C99.8634 10.3315 100.591 10.6554 101.169 10.9037C102.315 11.4003 102.967 11.9401 103.331 12.685C103.503 13.0304 103.545 13.3435 103.545 14.1964C103.545 15.1896 103.524 15.3191 103.235 15.8481C102.657 16.9061 101.608 17.651 100.26 17.9749C99.3819 18.1908 97.6694 18.2556 96.5456 18.126ZM125.754 18.0936C124.502 17.813 123.785 17.176 123.453 16.0534C122.886 14.1101 123.87 12.1885 125.893 11.2923C126.707 10.9254 128.119 10.6015 129.265 10.5151L130.249 10.4396V9.83491C130.249 9.07921 129.992 8.55032 129.5 8.25873C129.179 8.0752 128.944 8.04282 127.895 8.04282C126.578 8.05361 125.84 8.20475 124.876 8.69056C124.587 8.8417 124.363 8.93886 124.352 8.92807C124.288 8.66897 124.084 6.29391 124.138 6.23993C124.256 6.12118 125.679 5.73253 126.503 5.60298C126.974 5.52741 127.97 5.50582 128.912 5.52741C130.367 5.5706 130.581 5.60298 131.266 5.88367C132.465 6.38028 133.139 7.20075 133.353 8.44226C133.407 8.75533 133.471 11.044 133.482 13.527L133.514 18.0289H130.57V16.28L130.078 16.8306C129.5 17.4784 128.547 17.9857 127.627 18.1369C126.824 18.2664 126.503 18.2664 125.754 18.0936ZM128.601 15.5566C129.521 15.1357 130.249 13.9913 130.249 12.9442C130.249 12.5232 130.249 12.5124 129.907 12.5663C129.714 12.5987 129.275 12.6527 128.922 12.6851C127.499 12.847 126.621 13.3436 126.386 14.1425C126.278 14.488 126.289 14.6175 126.46 14.9738C126.824 15.7078 127.723 15.9561 128.601 15.5566ZM26.9764 18.0289C24.1936 17.4459 22.3741 15.6862 21.7212 12.9441C21.3038 11.2059 21.3358 8.76613 21.7854 6.96324C21.871 6.60699 22.16 5.86208 22.4276 5.3115C23.2731 3.55179 24.8037 2.25631 26.8051 1.61936C27.8646 1.28469 30.4227 1.19833 31.996 1.44663C32.606 1.54379 33.1199 1.64095 33.1412 1.66254C33.1734 1.69493 32.8629 4.56659 32.8201 4.60978C32.8094 4.62057 32.3384 4.52341 31.782 4.40466C30.2836 4.09158 28.432 4.15635 27.5864 4.5558C26.3128 5.14956 25.5208 6.25073 25.1462 7.95645C24.5254 10.7741 25.3602 13.5918 27.1154 14.6282C28.2392 15.2868 30.2192 15.3839 31.996 14.8657C32.499 14.7146 32.9165 14.5958 32.9165 14.6066C32.9272 14.6175 33.0128 15.2544 33.1092 16.021C33.259 17.1545 33.2697 17.4352 33.152 17.4999C33.077 17.5539 32.5847 17.6943 32.0496 17.8347C31.279 18.0182 30.7117 18.0722 29.2668 18.0936C28.2714 18.1152 27.2332 18.0828 26.9764 18.0289ZM35.9561 11.8753V5.72174H39.167V18.0289H35.9561V11.8753ZM52.2247 11.8753V5.72174H55.4355V18.0289H52.2247V11.8753ZM58.1113 16.8737C58.1113 15.5891 58.0578 15.7511 59.0423 14.3043C59.3313 13.8941 60.1234 12.7282 60.7976 11.7134C61.4826 10.7094 62.2425 9.58661 62.4887 9.23035L62.9382 8.5826L60.5836 8.55022L58.2183 8.52863V5.72174H66.7807V8.0968L65.9993 9.25194C64.8433 10.9577 63.3984 13.106 62.7457 14.0776C62.4353 14.5418 62.1784 14.9413 62.1784 14.9628C62.1784 14.9844 63.2379 15.006 64.5331 15.006H66.8877V18.0288H58.1113V16.8737ZM82.193 11.8753V5.72174H85.2219L85.147 6.65017L85.0828 7.56781L85.6606 6.94165C86.046 6.52062 86.4954 6.17516 86.9771 5.93765C87.6942 5.5598 87.7156 5.5598 89.0964 5.5598C90.4555 5.5598 90.4985 5.5706 91.0764 5.89447C91.7721 6.29391 92.2859 6.92006 92.5426 7.69735C92.6925 8.18316 92.7246 8.90648 92.7675 13.1492L92.8102 18.0289H89.578V13.7106C89.578 9.01443 89.5672 8.89568 88.9893 8.44226C88.636 8.16157 87.8333 8.11839 87.2982 8.35589C86.8809 8.53942 86.1958 9.19796 85.9711 9.64059C85.3932 10.7741 85.3716 10.9685 85.3181 14.6066L85.2754 18.0289H82.193V11.8753ZM110.235 9.73775V1.43583L110.963 1.37106C112.375 1.23071 116.913 1.28469 117.759 1.44663C119.257 1.73811 120.499 2.56938 120.981 3.60577C121.451 4.60978 121.451 6.07799 120.981 7.0712C120.713 7.65417 119.9 8.50703 119.289 8.86329C118.99 9.03602 118.829 9.17637 118.936 9.17637C119.311 9.17637 120.146 9.66218 120.638 10.1696C121.783 11.3571 121.987 13.5702 121.087 15.222C120.713 15.9129 119.75 16.8413 119.022 17.2084C117.748 17.8669 117.127 17.9532 113.531 18.0072L110.235 18.0504V9.73775H110.235ZM116.892 14.9845C118.23 14.3583 118.626 12.739 117.716 11.627C117.224 11.0223 116.453 10.7741 114.815 10.7094L113.446 10.6554V12.9333C113.446 14.6498 113.478 15.222 113.585 15.2653C113.649 15.2977 114.291 15.3083 114.997 15.2977C116.132 15.276 116.357 15.2328 116.892 14.9845ZM116.346 7.99963C116.967 7.80531 117.673 7.10359 117.834 6.53142C117.994 5.94845 117.909 5.27911 117.609 4.7933C117.213 4.13476 115.832 3.7893 114.238 3.94044L113.446 4.01601V8.22634L114.709 8.17237C115.393 8.15077 116.132 8.06441 116.346 7.99963ZM136.564 11.8753V5.72174H139.593L139.529 6.70415L139.454 7.69735L139.764 7.26553C140.171 6.70415 140.749 6.22914 141.487 5.86208C142.033 5.58139 142.172 5.5706 143.467 5.5598C144.634 5.5598 144.923 5.59219 145.287 5.77571C145.95 6.11038 146.571 6.77972 146.85 7.50303C147.106 8.15077 147.106 8.17237 147.139 13.0952L147.171 18.0289H143.949V13.689C143.949 9.61899 143.928 9.30592 143.735 8.87409C143.607 8.5934 143.425 8.37749 143.253 8.31271C142.804 8.13998 142.044 8.18316 141.605 8.42067C141.038 8.71215 140.364 9.51104 140.075 10.2451C139.839 10.828 139.828 11.0008 139.796 14.4446L139.764 18.0288H136.564V11.8753ZM150.264 9.01443V0H153.368L153.389 5.33309L153.421 10.677L153.871 10.0076C154.267 9.43547 155.123 8.19396 156.493 6.23993L156.846 5.73253L158.805 5.72174H160.774L160.41 6.19675C160.218 6.46664 159.64 7.22234 159.126 7.90247C157.071 10.6014 156.579 11.2707 156.579 11.3462C156.579 11.3894 156.793 11.7241 157.049 12.1019C157.317 12.4798 157.841 13.257 158.227 13.8184C158.612 14.3798 159.201 15.2327 159.532 15.7077C159.864 16.1827 160.292 16.8196 160.496 17.1327C160.688 17.435 160.902 17.7156 160.967 17.7589C161.32 17.9748 160.924 18.0288 159.072 18.0072L157.081 17.9748L155.251 15.0491L153.421 12.1127L153.389 15.0706L153.368 18.0289H150.264V9.01443ZM164.381 9.30592C164.017 9.12239 163.685 8.83091 163.482 8.53942C163.204 8.13998 163.161 7.96725 163.129 7.24393C163.075 6.22914 163.289 5.72174 163.996 5.13877C164.799 4.48023 165.901 4.38307 166.8 4.91206C167.667 5.41946 168.031 6.0672 168.031 7.12518C168.031 9.04682 166.083 10.202 164.381 9.30592ZM166.168 9.12239C166.468 9.03602 166.821 8.8417 166.96 8.69056L167.207 8.42067H166.821C166.489 8.42067 166.372 8.3451 165.986 7.88088C165.74 7.5894 165.451 7.34109 165.333 7.34109C165.173 7.34109 165.141 7.42746 165.141 7.88088C165.141 8.38828 165.119 8.42067 164.873 8.42067H164.606V5.72174H165.408C166.125 5.72174 166.254 5.75412 166.479 5.99163C166.821 6.3263 166.821 6.62858 166.468 6.97404L166.2 7.25473L166.661 7.77292C166.917 8.05361 167.153 8.29112 167.185 8.30192C167.388 8.3343 167.635 7.67576 167.635 7.09279C167.635 6.5746 167.581 6.39107 167.324 6.01322C166.725 5.16036 165.933 4.82569 165.055 5.0632C163.899 5.37627 163.193 6.5638 163.525 7.65417C163.707 8.28032 164.327 8.92807 164.905 9.1116C165.548 9.31671 165.537 9.31671 166.168 9.12239ZM165.976 6.77972C166.308 6.44505 166.061 6.15356 165.451 6.15356C165.162 6.15356 165.141 6.18595 165.141 6.53142C165.141 6.88767 165.162 6.90927 165.494 6.90927C165.687 6.90927 165.901 6.85529 165.976 6.77972ZM0.475815 9.14398C-0.144957 8.51783 -0.15566 7.51383 0.433003 6.90927L0.764902 6.58539H3.71881L1.96353 4.81489C1.00026 3.84328 0.165429 2.91485 0.101211 2.75291C-0.15566 2.06198 0.0905078 1.20912 0.657765 0.863658C1.05367 0.626152 1.80288 0.572174 2.16688 0.777292C2.29532 0.842067 3.17296 1.67334 4.11482 2.61257L5.8273 4.32909L5.88081 2.89325C5.94503 1.2631 6.05206 0.96082 6.70494 0.744905C7.56118 0.464216 8.40661 0.80968 8.72769 1.58697C8.90965 2.0188 8.93105 5.11717 8.7598 5.58139C8.59926 6.01322 8.25687 6.34789 7.73232 6.58539C7.09014 6.86608 6.28742 7.66497 5.95563 8.35589C5.79508 8.66897 5.5167 9.06841 5.33475 9.21955L5.00295 9.50024H0.829012L0.475815 9.14398ZM12.9769 9.28433C12.7628 9.15478 12.5059 8.8309 12.3133 8.44226C11.9173 7.64338 11.2538 6.97404 10.4617 6.5746C9.46631 6.0672 9.41279 5.92685 9.41279 3.61657C9.41279 1.85687 9.4342 1.64095 9.62685 1.31708C10.0229 0.669335 11.0609 0.442625 11.746 0.863658C12.2812 1.19833 12.4096 1.63015 12.4096 3.09837V4.37227L14.2291 2.537L16.0486 0.701722H16.7335C17.3544 0.701722 17.4614 0.73411 17.7611 1.02559C17.9324 1.19833 18.1357 1.5222 18.1999 1.7597C18.4033 2.5154 18.2213 2.80689 16.2842 4.78251L14.5074 6.58539H17.4721L17.8253 6.97404C18.4675 7.65417 18.3178 8.86329 17.547 9.32751C17.3009 9.46785 16.9049 9.50024 15.278 9.50024C13.5227 9.50024 13.2873 9.47865 12.9769 9.28433ZM36.4806 4.44784C35.3247 3.69214 35.3889 1.96482 36.5984 1.31708C36.9943 1.10116 37.1871 1.06878 37.7008 1.11196C38.7603 1.20912 39.3812 1.86766 39.3812 2.91485C39.3812 3.99442 38.7282 4.66375 37.6259 4.72853C37.0477 4.76092 36.9194 4.72853 36.4806 4.44784ZM53.0274 4.59898C52.2675 4.26431 51.7751 3.24951 51.9999 2.48302C52.3531 1.2739 53.6053 0.744905 54.7506 1.30628C56.0135 1.91084 56.0349 3.84328 54.7934 4.50182C54.2689 4.78251 53.5303 4.82569 53.0274 4.59898Z" fill="#5E5E5E"/>
</svg>
