<svg width="181" height="40" viewBox="0 0 181 40" fill="none" xmlns="http://www.w3.org/2000/svg">
<path d="M79.737 24.4443H67.917V27.1496H68.3045C68.4014 26.7632 69.0796 25.9902 69.9516 25.9902C69.9516 25.9902 72.4706 25.9902 72.5675 25.9902C72.5675 26.0868 72.5675 39.8066 72.5675 39.8066H75.1834C75.1834 39.8066 75.1834 26.0868 75.1834 25.9902C75.2802 25.9902 77.8961 25.9902 77.8961 25.9902C78.7681 25.9902 79.3494 26.4733 79.4463 26.9564V27.053H79.8338L79.737 24.4443Z" fill="#5E5E5E"/>
<path d="M2.71278 23.5751C0.96885 25.3142 0 27.8263 0 30.2418C0 33.0437 1.16262 35.5558 3.10032 37.2949C5.03802 39.034 7.65391 40.0002 10.3667 40.0002C11.82 40.0002 14.6296 39.7104 17.4393 38.0678L17.5362 37.9712L17.8268 34.1065L17.3424 34.0099L17.2455 34.2031C15.2109 38.3577 12.1106 38.3577 10.8511 38.3577C5.52244 38.3577 3.10032 33.9133 3.10032 29.8553C3.10032 25.894 5.52244 21.836 10.8511 21.836C12.4982 21.836 15.5016 22.4157 17.0518 25.9906L17.1486 26.1838L17.6331 25.9906L17.4393 22.0292L17.3424 21.9326C14.8234 20.8698 12.7888 20.3867 10.7542 20.3867C7.46014 20.4833 4.65048 21.5461 2.71278 23.5751Z" fill="#5E5E5E"/>
<path d="M20.4426 24.4443L20.3457 24.8308C20.5395 24.9274 20.8301 25.5071 20.8301 26.1835V39.71H23.3491C23.3491 39.71 23.3491 32.8501 23.3491 32.7535C23.446 32.7535 24.4149 32.7535 24.4149 32.7535C25.3837 32.8501 25.7713 33.4298 26.3526 34.2994L26.4495 34.396L26.7401 34.9757C27.3214 35.8453 27.9996 37.1013 28.7747 38.2607C29.356 39.1303 30.0342 39.5168 30.9062 39.71C31.4875 39.8066 32.747 39.8066 33.2314 39.6134L33.8127 39.5168L34.0065 39.4201L33.2314 39.2269C32.9408 39.1303 32.4563 38.9371 31.7781 38.1641C31.3906 37.681 30.7124 36.6182 29.7435 35.0723L28.7747 33.5264C28.484 33.14 28.0965 32.5603 27.3214 32.0772C28.7747 31.5941 30.1311 30.338 30.1311 28.4057C30.1311 27.826 30.0342 26.7632 29.0654 25.8936C28.0965 25.024 26.6432 24.541 24.6086 24.541L20.4426 24.4443ZM24.8024 25.8936C27.4183 25.9902 27.5152 28.2124 27.5152 28.5023C27.5152 30.7245 25.8681 31.4975 24.5118 31.4975C24.5118 31.4975 23.6398 31.4975 23.446 31.4975C23.446 31.4008 23.446 26.0868 23.446 25.9902C23.7367 25.8936 24.2211 25.797 24.8024 25.8936Z" fill="#5E5E5E"/>
<path d="M46.5049 24.4443V24.8307C46.6987 24.9274 46.8924 25.5071 46.8924 25.9902V39.7099H51.2522C54.1588 39.7099 56.484 38.8404 58.1311 37.1013C59.4875 35.652 60.2625 33.8162 60.2625 31.7873C60.2625 30.6278 59.875 28.7921 58.7124 27.3428C57.1622 25.4105 54.837 24.3477 51.6398 24.3477L46.5049 24.4443ZM49.5083 25.9902C49.6052 25.9902 50.8647 25.9902 50.8647 25.9902C51.2522 25.9902 52.1242 25.9902 52.8024 26.0868C57.0653 26.7631 57.5498 30.338 57.5498 31.8839C57.5498 33.1399 57.356 34.879 56.2903 36.3283C55.2245 37.681 53.5775 38.3573 51.3491 38.3573C50.8647 38.3573 50.1865 38.3573 49.5083 38.3573C49.5083 38.1641 49.5083 26.0868 49.5083 25.9902Z" fill="#5E5E5E"/>
<path d="M65.5913 24.4443H62.5879V24.8308C62.8785 24.9274 63.0723 25.5071 63.0723 26.0868V39.71H65.5913V24.4443Z" fill="#5E5E5E"/>
<path d="M116.94 24.4443H113.937V24.8308C114.227 24.9274 114.421 25.5071 114.421 26.0868V39.71H116.94V24.4443Z" fill="#5E5E5E"/>
<path d="M43.2104 24.4443H34.6846L34.7815 24.8308C34.9752 24.9274 35.2659 25.5071 35.2659 26.1835V39.71H43.7918L44.3731 37.0047L43.9855 36.9081L43.8886 37.1013C43.2104 38.1641 42.4354 38.3574 40.0132 38.3574C39.1413 38.3574 38.2693 38.2607 37.688 38.2607C37.688 38.1641 37.688 32.1738 37.688 32.0772C37.7849 32.0772 42.0478 32.0772 42.0478 32.0772V30.6279C42.0478 30.6279 37.8818 30.6279 37.688 30.6279C37.688 30.5313 37.688 25.9902 37.688 25.8936C37.7849 25.8936 41.1759 25.8936 41.1759 25.8936C41.9509 25.8936 42.8229 26.6666 42.9198 27.1496V27.2463H43.3073L43.2104 24.4443Z" fill="#5E5E5E"/>
<path d="M152.498 24.4443H143.972V24.8308C144.165 24.9274 144.456 25.4105 144.456 26.1835V39.71H152.982L153.563 37.0047L153.176 36.9081L153.079 37.1013C152.401 38.1641 151.626 38.3574 149.203 38.3574C148.332 38.3574 147.46 38.2607 146.878 38.2607C146.878 38.1641 146.878 32.1738 146.878 32.0772C146.975 32.0772 151.238 32.0772 151.238 32.0772V30.6279C151.238 30.6279 147.072 30.6279 146.878 30.6279C146.878 30.5313 146.878 25.9902 146.878 25.8936C146.975 25.8936 150.366 25.8936 150.366 25.8936C151.335 25.8936 152.013 26.6666 152.013 27.1496V27.2463H152.401L152.498 24.4443Z" fill="#5E5E5E"/>
<path d="M87.1961 21.6427C86.3241 22.319 85.2584 23.4784 85.1615 25.5074C85.1615 25.5074 85.1615 25.5074 85.1615 25.604C85.1615 28.0195 86.7116 29.3721 89.2306 30.6282C89.3275 30.7248 89.5213 30.8214 90.1995 31.1113C92.331 32.1741 93.7842 32.947 93.7842 35.0726C93.7842 35.8456 93.4936 36.9084 92.7185 37.6813C92.0403 38.3576 91.1683 38.6475 90.1026 38.6475C86.9054 38.6475 85.7428 35.8456 85.4521 34.5895L85.3552 34.3963L84.7739 34.4929L84.9677 38.4543L85.2584 38.3576C86.3241 38.9373 87.9711 39.9035 90.4901 40.0001C92.2341 40.0001 93.978 39.3238 95.2375 38.0678C96.3032 37.005 96.8846 35.6523 96.8846 34.2031C96.8846 31.0147 94.5593 29.7586 92.1372 28.5026L91.6528 28.2127C89.1337 26.9567 87.9711 26.1837 87.9711 24.6379C87.9711 23.5751 88.8431 21.8359 90.9746 21.8359C93.4936 21.8359 94.85 23.7683 95.1406 24.9277L95.2375 25.1209L95.8188 25.0243L95.625 21.5461L95.5282 21.4495C94.0749 20.4833 92.2341 20.29 91.459 20.29C89.7151 20.3867 88.2618 20.8697 87.1961 21.6427Z" fill="#5E5E5E"/>
<path d="M121.106 28.309C121.106 30.4346 122.366 31.4974 124.4 32.5602L125.175 32.9467C126.822 33.7196 127.888 34.2993 127.888 35.8452C127.888 36.1351 127.791 37.0046 127.113 37.7776C126.629 38.2607 125.95 38.5505 125.078 38.4539C122.656 38.4539 121.784 36.5215 121.397 35.4587L121.3 35.2655L120.815 35.3621L120.912 38.5505L121.009 38.6471C121.784 39.1302 123.141 39.9032 125.175 39.9032C126.532 39.9032 127.985 39.3235 128.954 38.3573C129.826 37.4877 130.213 36.4249 130.213 35.2655C130.213 32.5602 128.372 31.594 126.435 30.6278L126.047 30.4346C123.916 29.3718 123.238 28.8887 123.238 27.7293C123.238 26.8597 123.819 25.7003 125.563 25.7003C127.597 25.7003 128.469 27.2462 128.663 28.0191L128.76 28.2124L129.244 28.1158L129.051 25.3138L128.954 25.2172C127.791 24.4443 126.338 24.3477 125.757 24.3477C123.528 24.3477 121.106 25.7003 121.106 28.309Z" fill="#5E5E5E"/>
<path d="M132.539 28.309C132.539 30.4346 133.798 31.4974 135.833 32.5602L136.608 32.9467C138.255 33.7196 139.321 34.2993 139.321 35.8452C139.321 36.1351 139.224 37.0046 138.546 37.7776C138.061 38.2607 137.383 38.5505 136.511 38.4539C134.089 38.4539 133.217 36.5215 132.829 35.4587L132.732 35.2655L132.248 35.3621L132.345 38.5505L132.442 38.6471C133.217 39.1302 134.573 39.9032 136.608 39.9032C137.964 39.9032 139.418 39.3235 140.386 38.3573C141.258 37.4877 141.646 36.4249 141.646 35.2655C141.646 32.5602 139.805 31.594 137.867 30.6278L137.48 30.4346C135.348 29.3718 134.67 28.8887 134.67 27.7293C134.67 27.2462 134.864 26.6665 135.251 26.28C135.639 25.8935 136.22 25.7003 136.899 25.7003C138.933 25.7003 139.805 27.2462 139.999 28.0191L140.096 28.2124L140.58 28.1158L140.386 25.3138L140.29 25.2172C139.127 24.4443 137.674 24.3477 137.092 24.3477C135.058 24.3477 132.539 25.7003 132.539 28.309Z" fill="#5E5E5E"/>
<path d="M110.642 24.4443H108.608V24.8308C108.705 24.9274 108.995 25.1207 108.995 26.0868V34.7825C108.995 36.425 108.414 38.454 105.41 38.454C102.601 38.454 102.019 36.8115 102.019 34.2994V24.4443H98.8223V24.8308C99.016 24.9274 99.4036 25.3139 99.4036 26.1835V34.2994C99.4036 39.3235 102.698 39.9032 105.217 39.9032C106.476 39.9032 110.448 39.5168 110.448 34.7825L110.642 24.4443Z" fill="#5E5E5E"/>
<path d="M174.49 20.0966C176.331 20.6763 178.171 21.4492 180.206 22.6086C175.265 14.4927 166.545 5.70047 157.922 0C160.151 2.22222 163.735 7.05312 164.704 12.1739C168.192 14.686 171.486 17.3913 174.49 20.0966Z" fill="#5E5E5E"/>
<path d="M174.49 20.0959C170.227 18.7433 166.642 18.6466 164.026 18.9365C164.995 16.7143 165.092 14.3954 164.704 12.1732C158.213 7.53555 150.947 3.47758 144.068 0.482422C149.106 3.86406 154.725 13.8157 157.05 24.4437C162.088 22.9945 169.742 21.9317 179.722 25.3133C178.074 23.5742 176.331 21.835 174.49 20.0959Z" fill="#5E5E5E"/>
</svg>
