<svg width="182" height="36" viewBox="0 0 182 36" fill="none" xmlns="http://www.w3.org/2000/svg">
<path fill-rule="evenodd" clip-rule="evenodd" d="M154.122 27.2193L167.708 8.58431H174.129L160.543 27.2193H154.122ZM146.251 0H182V35.7878H146.251V0ZM151.253 5.00949V30.7703H176.966V5.00949H151.253Z" fill="#5E5E5E"/>
<path fill-rule="evenodd" clip-rule="evenodd" d="M7.91214 22.861L7.23048 22.46L6.49014 22.1984L5.69276 22.0232L4.92547 21.9535H1.87776V33.9953H4.46891L5.60795 33.9089L6.54723 33.7337L7.4009 33.4198L8.11347 33.0013L8.70955 32.4599L9.1661 31.7442L9.50773 30.9761L9.76296 30.0868L9.90642 29.0745L9.96271 27.922L9.90642 26.9804L9.76296 26.0205L9.50773 25.1129L9.1661 24.2751L8.5954 23.5078L7.91214 22.861ZM5.91944 35.4442L4.66867 35.5314H0V20.4355H4.24064L5.23778 20.4879L6.31972 20.5743L7.31529 20.7843L8.28389 21.0641L9.25171 21.5706L9.99203 22.2333L10.646 22.9482L11.158 23.8209L11.5298 24.7293L11.758 25.7407L11.9285 26.8227L11.9554 27.922L11.9285 29.1261L11.7295 30.2611L11.4434 31.2908L11.0463 32.2499L10.4764 33.0885L9.84936 33.786L9.05198 34.4138L8.17056 34.902L7.08859 35.2516L5.91944 35.4442Z" fill="#5E5E5E"/>
<path fill-rule="evenodd" clip-rule="evenodd" d="M18.0759 26.1076L17.3301 26.1948L16.6991 26.5087L16.1553 26.8749L15.7543 27.3988L15.4396 28.0266L15.2398 28.6893L15.1257 29.4232H20.7654L20.7075 28.7075L20.564 28.0266L20.3088 27.3988L19.9061 26.8923L19.421 26.5079L18.8186 26.194L18.0759 26.1076ZM15.098 30.6621V30.8714L15.1265 31.5697L15.2969 32.2157L15.5268 32.8435L15.8407 33.4364L16.2988 33.8906L16.8148 34.2568L17.4149 34.4652L18.1306 34.5532L18.8186 34.4652L19.421 34.2568L19.9061 33.9247L20.3088 33.4364L20.5949 32.8435L20.7654 32.1626H22.4561L22.1985 33.1574L21.7982 33.9778L21.2251 34.6238L20.5949 35.1469L19.8205 35.5131L18.9328 35.7057L17.9871 35.7921L16.9845 35.7057L16.1252 35.4608L15.3532 35.0764L14.7246 34.6047L14.2063 33.977L13.8076 33.2446L13.5214 32.3885L13.3201 31.4635L13.2622 30.4695L13.3201 29.474L13.5214 28.5149L13.8076 27.6239L14.2063 26.8733L14.7516 26.1932L15.4095 25.617L16.2124 25.1977L17.1002 24.971L18.1298 24.8838L19.104 24.971L19.9053 25.1636L20.5941 25.5298L21.1664 26.0529L21.596 26.611L21.9678 27.3267L22.2539 28.0591L22.3974 28.8803L22.4838 29.753L22.5131 30.6606H15.098V30.6621Z" fill="#5E5E5E"/>
<path fill-rule="evenodd" clip-rule="evenodd" d="M31.34 35.566L31.2821 33.9253L30.74 34.5713L30.2009 35.0778L29.5462 35.3916L28.8376 35.6183L27.9855 35.7063L27.0756 35.6183L26.3083 35.3916L25.6813 35.0778L25.201 34.6236L24.8023 34.0299L24.574 33.3149L24.4028 32.4945L24.3457 31.587V25.0596H26.1648V31.4815L26.1941 32.0412L26.2774 32.5825L26.4486 33.0351L26.6491 33.4544L26.9051 33.8381L27.3038 34.083L27.8429 34.2574L28.4698 34.2915L29.2347 34.2051L29.8308 33.995L30.3135 33.6288L30.6575 33.1754L30.9413 32.6341L31.1402 32.0237L31.2235 31.3072L31.2821 30.5922V25.0596H33.0148V32.8607L33.0711 35.566H31.34Z" fill="#5E5E5E"/>
<path fill-rule="evenodd" clip-rule="evenodd" d="M38.8426 35.7068L38.1047 35.6537L37.5062 35.4445L37.0243 35.1131L36.6542 34.6597L36.4544 34.0304L36.3704 33.2631V26.3346H34.3809V25.0601H36.3704V23.0008L38.1316 22.2676V25.0601H40.4033V26.3346H38.1316V33.0356L38.218 33.489L38.3306 33.8386L38.6152 34.0835L38.9837 34.2055L39.5243 34.2579L40.489 34.1707V35.5665L39.6678 35.6537L38.8426 35.7068Z" fill="#5E5E5E"/>
<path fill-rule="evenodd" clip-rule="evenodd" d="M45.4205 35.7936L44.62 35.7587L43.9074 35.6192L43.2202 35.375L42.6201 35.008L42.135 34.5547L41.7633 33.9784L41.535 33.246L41.4502 32.3733H43.2202L43.278 33.0193L43.5356 33.5599L43.8495 33.9784L44.3061 34.2582L44.8482 34.4675L45.5061 34.5198L46.0491 34.4675L46.5936 34.3454L47.0787 34.1005L47.422 33.7168L47.7081 33.2975L47.7937 32.7395L47.7081 32.2853L47.5377 31.8494L47.2206 31.5704L46.8505 31.308L46.1926 31.0813L45.4499 30.8546L44.7626 30.6977L44.2213 30.5582L43.6498 30.3315L43.1354 30.104L42.6764 29.7901L42.2785 29.4239L41.9916 29.0228L41.7902 28.4814L41.7363 27.8006L41.7902 27.0682L42.0772 26.4222L42.4782 25.899L42.9633 25.5146L43.565 25.1658L44.2213 24.9732L44.9061 24.8337L45.5925 24.7988L46.336 24.8337L47.0233 24.9732L47.6233 25.1999L48.1924 25.5146L48.6212 25.968L48.993 26.4919L49.2212 27.1728L49.3084 27.9757H47.5377L47.422 27.3297L47.1937 26.7884L46.7371 26.4222L46.2219 26.1606L45.5355 26.0726L45.0496 26.1083L44.5653 26.247L44.1357 26.4222L43.7647 26.7012L43.5356 27.1197L43.4508 27.6087L43.5356 28.0621L43.6791 28.3935L43.9653 28.6733L44.3639 28.9348L45.1074 29.2146L45.7923 29.389L46.508 29.5808L47.0787 29.7552L47.6233 29.9653L48.1338 30.192L48.5927 30.4884L48.993 30.8546L49.2799 31.2914L49.4789 31.8494L49.566 32.5303L49.4789 33.2634L49.2799 33.892L48.9082 34.4326L48.5071 34.8345L47.9935 35.2347L47.395 35.4622L46.7371 35.6889L46.1078 35.7587L45.4205 35.7936Z" fill="#5E5E5E"/>
<path fill-rule="evenodd" clip-rule="evenodd" d="M55.708 35.7929L54.7092 35.7065L53.7921 35.4441L53.0201 35.0779L52.3329 34.6063L51.7883 33.9777L51.331 33.2279L51.0139 32.3552L50.8435 31.4476L50.7856 30.4005L50.8435 29.3701L51.0139 28.3761L51.331 27.5034L51.7883 26.7005L52.3329 26.0196L53.0201 25.479L53.8215 25.0597L54.7671 24.7981L55.7943 24.7109L56.6504 24.7625L57.4002 24.9376L58.0803 25.2174L58.6566 25.6185L59.1813 26.125L59.5824 26.7877L59.8448 27.5549L59.9827 28.411H58.2032L58.0803 27.6952L57.8893 27.119L57.5397 26.6656L57.0507 26.3343L56.4919 26.125L55.7943 26.0545L55.054 26.125L54.4231 26.3343L53.9079 26.6656L53.4767 27.119L53.1343 27.6604L52.906 28.2889L52.734 28.9175L52.6761 29.6317L52.619 30.3125L52.6761 30.9942L52.734 31.6402L52.9337 32.3029L53.1921 32.8958L53.506 33.4371L53.9079 33.8382L54.4231 34.2226L55.054 34.4319L55.708 34.5191L56.4071 34.4319L57 34.1703L57.5397 33.8382L57.8893 33.3499L58.1517 32.7214L58.2563 32.0064H60.0374L59.8614 32.8958L59.5824 33.6987L59.1813 34.3447L58.6566 34.8338L58.0637 35.2523L57.3471 35.5313L56.5632 35.758L55.708 35.7929Z" fill="#5E5E5E"/>
<path fill-rule="evenodd" clip-rule="evenodd" d="M68.6917 35.5314V29.092L68.6235 28.5332L68.5522 27.9918L68.3952 27.5202L68.205 27.1025L67.8911 26.7355L67.4718 26.4739L66.9471 26.2995L66.3367 26.2813L65.5869 26.351L65.0447 26.5611L64.5049 26.9273L64.172 27.3807L63.8756 27.9918L63.6846 28.6029L63.5791 29.2656L63.5094 29.9813V35.5314H61.7822V20.4355H63.5094V26.6475L64.0492 25.9848L64.5914 25.4791L65.254 25.1296L65.9872 24.9378L66.8068 24.8506L67.7151 24.9378L68.484 25.1296L69.111 25.4791L69.6175 25.9325L70.0003 26.5262L70.2286 27.2071L70.3863 28.0616L70.4196 28.9874V35.5314H68.6917Z" fill="#5E5E5E"/>
<path fill-rule="evenodd" clip-rule="evenodd" d="M77.0881 26.1076L76.3549 26.1948L75.7255 26.5087L75.219 26.8749L74.8362 27.3988L74.4874 28.0266L74.2964 28.6893L74.1735 29.4232H79.7577L79.6887 28.7075L79.5492 28.0266L79.3035 27.3988L78.9024 26.8923L78.4134 26.5079L77.8205 26.194L77.0881 26.1076ZM74.1553 30.6621V30.8714L74.1719 31.5697L74.3463 32.2157L74.5746 32.8435L74.8885 33.4364L75.3419 33.8906L75.8484 34.2568L76.4413 34.4652L77.1388 34.5532L77.8197 34.4652L78.4126 34.2568L78.9016 33.9247L79.3027 33.4364L79.5825 32.8435L79.7569 32.1626H81.4167L81.171 33.1574L80.7683 33.9778L80.2277 34.6238L79.5825 35.1469L78.8152 35.5131L77.96 35.7057L76.9985 35.7921L76.022 35.7057L75.1683 35.4608L74.4359 35.0764L73.7883 34.6047L73.2667 33.977L72.8815 33.2446L72.6017 32.3885L72.394 31.4635L72.3394 30.4695L72.394 29.474L72.6017 28.5149L72.8815 27.6239L73.2667 26.8733L73.8073 26.1932L74.4708 25.617L75.2539 25.1977L76.1274 24.971L77.1396 24.8838L78.1169 24.971L78.9024 25.1636L79.5825 25.5298L80.1413 26.0529L80.5781 26.611L80.9443 27.3267L81.2241 28.0591L81.3628 28.8803L81.4508 29.753L81.5015 30.6606H74.1553V30.6621Z" fill="#5E5E5E"/>
<path fill-rule="evenodd" clip-rule="evenodd" d="M93.1781 28.4626H90.0884V33.9945H93.1424L93.7377 33.9604L94.3139 33.8732L94.8371 33.7329L95.3436 33.5934L95.7438 33.3318L96.1124 32.9656L96.4089 32.5122L96.5492 31.9709L96.634 31.2551L96.5492 30.5219L96.3566 29.8941L96.0244 29.3702L95.6408 29.004L95.1177 28.7591L94.5248 28.6021L93.8597 28.5324L93.1781 28.4626ZM93.1781 21.9709H90.0884V27.0137H92.8816L93.4927 26.9796L94.1197 26.8916L94.6262 26.7347L95.1153 26.4374L95.4625 26.1069L95.7954 25.6527L95.9531 25.0416L96.0221 24.3956L95.9531 23.7329L95.7415 23.14L95.3943 22.739L94.9417 22.4076L94.4328 22.1453L93.8225 22.0232L93.1781 21.9709ZM93.1416 35.5314H88.2217V20.4355H93.3707L94.1372 20.4879L94.8529 20.6091L95.6028 20.8358L96.2313 21.1156L96.8084 21.5167L97.3141 22.0232L97.6993 22.651L97.9244 23.3667L98.0124 24.222L97.9244 25.1121L97.6993 25.8445L97.2966 26.4731L96.7204 26.9796L96.0577 27.3632L95.2548 27.643L96.0577 27.8349L96.8076 28.1313L97.4361 28.5506L97.9236 29.0738L98.2914 29.6674L98.5165 30.453L98.6045 31.3431L98.5165 32.2847L98.2914 33.0885L97.9236 33.7329L97.4361 34.2743L96.894 34.7102L96.1964 35.0423L95.4633 35.2698L94.7142 35.4085L93.9469 35.4965L93.1416 35.5314Z" fill="#5E5E5E"/>
<path fill-rule="evenodd" clip-rule="evenodd" d="M105.85 30.2255H105.325L104.819 30.277L104.244 30.3119L103.685 30.4522L103.16 30.6266L102.673 30.8184L102.288 31.0982L101.974 31.4818L101.764 31.9883L101.677 32.5463L101.764 33.1575L101.991 33.6291L102.376 34.065L102.847 34.2917L103.371 34.5192L103.929 34.5359L104.644 34.5192L105.221 34.2917L105.637 34.065L106.023 33.6989L106.267 33.228L106.493 32.7215L106.616 32.1627L106.702 31.5516L106.738 30.9405V30.2778H106.424L106.126 30.2263H105.85V30.2255ZM107.105 35.5306L106.93 34.0643L106.354 34.7103L105.761 35.2168L105.081 35.5306L104.33 35.7573L103.476 35.7922L102.796 35.7573L102.115 35.5996L101.522 35.3729L100.997 35.059L100.58 34.6048L100.197 34.0635L100.004 33.3834L99.917 32.6327L100.004 31.8472L100.231 31.1846L100.58 30.6432L101.033 30.1898L101.592 29.8236L102.202 29.5613L102.882 29.3694L103.597 29.2299L104.33 29.1435L105.046 29.1087H105.728L106.251 29.1435H106.739V28.5498L106.704 27.869L106.564 27.3276L106.354 26.8734L106.074 26.5072L105.637 26.2108L105.133 26.0538L104.468 26.0189L103.928 26.0538L103.387 26.1584L103.054 26.42L102.706 26.7862L102.514 27.2404L102.392 27.8682H100.63L100.77 27.1001L101.031 26.4192L101.397 25.8779L101.886 25.4768L102.443 25.1629L103.072 24.9703L103.771 24.8482L104.451 24.7959L105.358 24.8482L106.162 25.0226L106.807 25.2493L107.349 25.6686L107.751 26.1569L108.098 26.8377L108.238 27.6058L108.327 28.5831V32.475L108.378 33.469L108.447 34.3417L108.517 35.0574L108.64 35.5283H107.105V35.5306Z" fill="#5E5E5E"/>
<path fill-rule="evenodd" clip-rule="evenodd" d="M117.715 35.5307V29.108L117.681 28.5499L117.612 28.0094L117.438 27.5544L117.228 27.1367L116.965 26.7522L116.565 26.5073L116.025 26.3337L115.394 26.2988L114.716 26.3852L114.14 26.5953L113.65 26.9266L113.318 27.3285L113.022 27.8342L112.831 28.4104L112.656 29.0033L112.62 29.6493L112.569 30.2771V35.5307H110.823V27.0487L110.771 26.2457V25.6013L110.734 25.0243H112.515L112.534 26.6999L113.056 26.0539L113.65 25.5649L114.313 25.1646L115.03 24.972L115.885 24.8848L116.809 24.972L117.576 25.1646L118.207 25.5133L118.694 25.9667L119.097 26.5604L119.357 27.2413L119.497 28.0958L119.549 29.0033V35.5307H117.715Z" fill="#5E5E5E"/>
<path fill-rule="evenodd" clip-rule="evenodd" d="M128.782 35.5314L123.824 29.6151L128.398 24.9909H130.664L125.921 29.5287L131.068 35.5322H128.782V35.5314ZM121.994 35.5314V20.4355H123.739V35.5314H121.994Z" fill="#5E5E5E"/>
</svg>
