<svg width="123" height="22" viewBox="0 0 123 22" fill="none" xmlns="http://www.w3.org/2000/svg">
<path d="M15.9083 11.668C15.8939 11.668 15.9083 19.1651 15.9083 19.1651C15.9083 20.1082 15.0983 20.9346 14.0377 20.9346H13.0213V21.3164H21.6235V20.9346H20.6071C19.5609 20.9346 18.7365 20.0947 18.7365 19.1651V11.5504V2.46228C18.7365 1.54817 19.5465 0.694797 20.6071 0.694797H21.6235V0.311022H13.0213V0.694797H14.0377C15.1128 0.694797 15.9083 1.54817 15.9083 2.46228V10.6074H5.71612V2.46228C5.71612 1.54817 6.54056 0.694797 7.58678 0.694797H8.60214V0.311022H0V0.694797H1.01729C2.07701 0.694797 2.88795 1.54817 2.88795 2.46228V11.5504V19.1651C2.88795 20.0947 2.07701 20.9346 1.01729 20.9346H0V21.3164H8.60214V20.9346H7.58678C6.54056 20.9346 5.71612 20.0947 5.71612 19.1651C5.71612 19.1651 5.72962 11.668 5.71612 11.668H15.9083Z" fill="#5E5E5E"/>
<path d="M36.3654 15.82C36.4397 17.0542 35.674 18.9278 34.6124 19.8843C33.5922 20.8061 32.1381 21.6084 30.1942 21.6084C27.9851 21.6084 26.0845 20.4301 25.3922 20.1649C24.9727 20.0039 24.4231 20.0212 24.0952 20.2237C23.7124 20.46 23.4772 20.8418 23.3884 21.5496H23.0645V14.2723H23.3884C23.6835 16.5113 24.7288 17.8266 25.3777 18.5739C26.4384 19.7966 28.4412 20.4889 30.3706 20.1794C31.9038 19.9335 33.5816 18.2701 33.3974 16.2095C33.3319 15.4661 33.1689 14.3842 31.6232 13.3746C30.6532 12.7401 29.2752 11.8405 27.9696 10.9736C26.3217 9.8811 24.8262 8.69796 24.4057 8.21872C23.8542 7.59099 23.1676 6.68748 23.1676 5.24302C23.1676 4.00588 23.6391 2.59228 24.641 1.64923C25.6429 0.707153 26.9977 0.000352312 28.9416 0.000352312C30.8865 0.000352312 32.3599 1.03114 32.8603 1.26642C33.3608 1.5017 33.9143 1.44674 34.2296 1.26642C34.5391 1.089 34.7455 0.823828 34.8342 0.117028H35.1582V7.01147H34.8342C34.5391 4.7715 33.5671 3.09369 32.8893 2.47464C32.2124 1.85558 30.8865 1.00125 28.9127 1.38406C27.0189 1.75144 26.097 2.60771 25.9225 4.12352C25.7894 5.2787 26.4162 5.98936 26.7768 6.42134C27.5135 7.3046 32.1873 9.95342 34.3038 11.7836C35.3944 12.7257 36.2487 13.8461 36.3654 15.82Z" fill="#5E5E5E"/>
<path d="M43.2126 20.1287C44.6677 20.579 47.438 20.9252 49.3684 19.5415C51.6846 17.8839 52.1725 13.8331 48.9037 11.7223C47.5874 10.8718 44.3032 10.9307 43.2126 11.1872V20.1287ZM43.2126 10.0031C44.2434 10.2673 47.2789 10.3386 48.4562 9.59035C50.3018 8.41878 50.9421 6.53848 50.6017 4.8761C50.3973 3.87712 49.8689 2.95529 48.9567 2.31406C47.1603 1.04703 44.5684 1.25242 43.2126 1.66512V10.0031ZM49.9885 10.5912C53.7327 11.8766 54.8001 14.5196 54.1049 17.2427C53.2891 20.444 49.6789 21.0949 48.5083 21.2502C47.9799 21.3186 46.6309 21.3128 45.2973 21.3128C42.9176 21.3157 39.9071 21.308 37.4897 21.308V20.9252H38.7279C39.5147 20.9252 40.4134 20.2618 40.4134 19.2609V2.49052C40.4134 1.48866 39.5147 0.811749 38.7346 0.811749H37.4975V0.427974C39.6323 0.427974 42.7421 0.427012 44.9656 0.427974C46.762 0.427974 47.7379 0.600577 48.3685 0.723037C49.4282 0.928425 52.5225 1.84254 53.2582 4.72856C53.8281 6.96371 52.7134 9.78127 49.9885 10.5912Z" fill="#5E5E5E"/>
<path d="M73.7944 0.678833L74.0972 7.79312L73.67 7.80855C73.4637 6.01021 72.7858 4.74414 71.9314 3.91874C71.6856 3.68153 71.2189 3.20133 70.5458 2.77706C69.4244 2.07026 67.7562 1.44542 65.7747 1.79834C62.799 2.32868 61.2668 4.2948 60.5011 6.18763C59.5581 8.51439 58.9612 12.4939 60.5609 15.8514C61.8578 18.5764 64.3514 19.7113 66.2751 20.0045C67.9144 20.2542 71.5486 20.1771 74.318 16.4406L74.7596 16.7347C72.6084 19.7692 69.7513 21.7131 66.4815 21.6833C62.2985 21.6466 59.6699 19.3411 58.4685 17.9718C57.2014 16.5283 56.2295 13.7889 56.2169 11.4023C56.2073 9.28097 56.675 6.92047 57.4367 5.53966C58.7481 3.16855 61.4876 0.811901 65.0958 0.458019C67.7986 0.193812 69.5748 0.723188 71.0925 1.59198C71.8504 2.02687 72.2766 2.07701 72.6894 1.90151C73.1011 1.72409 73.4338 1.37117 73.4338 0.678833H73.7944Z" fill="#5E5E5E"/>
<path d="M81.0229 10.8243L91.517 21.3174V0.33032L81.0229 10.8243Z" fill="#5E5E5E"/>
<path d="M91.5181 21.3164H112.505L102.011 10.8234L91.5181 21.3164Z" fill="#5E5E5E"/>
<path d="M102.012 10.8232L112.506 0.329228H91.5186L102.012 10.8232Z" fill="#5E5E5E"/>
<path d="M112.506 0.33032V21.3174L123 10.8243L112.506 0.33032Z" fill="#5E5E5E"/>
</svg>
