<svg width="167" height="42" viewBox="0 0 167 42" fill="none" xmlns="http://www.w3.org/2000/svg">
<path d="M16.034 7.74825V8.48801H18.7931V22.8661C18.7931 27.1869 17.5947 28.4036 14.9228 28.4036C13.2424 28.4036 12.9654 27.1271 12.9654 26.4665C12.9654 24.8946 12.8781 23.9326 11.4463 23.9326C10.0063 23.9326 9.83789 25.3868 9.83789 25.8312C9.83789 27.811 10.7187 29.326 14.6529 29.326C19.3421 29.326 21.8486 27.743 21.8486 22.4856V8.48395L24.698 8.48801V7.74825H16.034ZM24.6563 26.4742C24.3224 26.807 24.157 27.2017 24.157 27.6807C24.157 28.1566 24.3224 28.5483 24.6603 28.8639C24.9962 29.1937 25.396 29.353 25.8628 29.353C26.3377 29.353 26.7386 29.1937 27.0815 28.8639C27.4113 28.5483 27.5788 28.1566 27.5788 27.6807C27.5788 27.1967 27.4113 26.8009 27.0815 26.4742C26.7507 26.1423 26.3519 25.9891 25.8628 25.9891C25.3798 25.9891 24.981 26.1423 24.6563 26.4742ZM43.8973 26.4742C43.5675 26.807 43.4082 27.2017 43.4082 27.6807C43.4082 28.1566 43.5675 28.5483 43.8973 28.8639C44.2484 29.1937 44.637 29.353 45.1038 29.353C45.5869 29.353 45.9897 29.1937 46.3297 28.8639C46.6645 28.5483 46.8299 28.1566 46.8299 27.6807C46.8299 27.1967 46.6645 26.8009 46.3317 26.4742C45.9948 26.1423 45.5909 25.9891 45.1038 25.9891C44.6269 25.9891 44.2261 26.1423 43.8973 26.4742ZM30.5826 7.75008V8.48781H33.0748V24.8893C33.0748 26.1791 32.9957 26.5139 32.8516 26.8874C32.6973 27.3044 32.3493 27.6332 31.8338 27.8473C31.4502 28.0087 30.8687 28.0939 30.0935 28.1152V28.7931H39.2263V28.1223C38.452 28.1031 37.8614 28.0148 37.4748 27.8768C36.9299 27.6616 36.5767 27.345 36.4042 26.9158C36.253 26.5464 36.1749 26.2217 36.1749 25.5733V19.9566L38.4348 19.9475C44.9982 19.9475 46.843 17.3578 46.843 13.8234C46.843 10.2515 45.7106 7.74805 39.0649 7.74805L30.5826 7.75008ZM36.1749 8.58218L37.7447 8.56087C42.8063 8.56087 43.9114 10.6431 43.9114 14.0172C43.9114 17.4126 41.9215 19.1448 37.9071 19.1448H36.1749V8.58218ZM70.5359 7.79757C70.4598 7.9924 64.1044 23.8297 64.1044 23.8297L63.9592 23.9241L63.807 23.8297C63.807 23.8297 57.0345 7.9924 56.9554 7.79757H50.9795V8.47542H53.5732V24.7633L53.5174 26.2469C53.4758 26.6386 53.354 26.9876 53.1622 27.2657C52.9603 27.5691 52.6315 27.7984 52.2043 27.9496C51.9222 28.042 51.5021 28.1039 50.9795 28.116V28.7939H56.9107V28.1252C56.4064 28.1039 56.1872 28.0541 55.8919 27.9557C55.4566 27.8126 55.1298 27.5965 54.9137 27.287C54.7209 26.9988 54.5961 26.6548 54.5524 26.2469L54.4865 24.7633V10.6947H54.8345C54.8345 10.6947 62.5041 28.597 62.5842 28.7939H63.2246L70.4831 10.8936H70.6658V25.3995C70.6658 26.0206 70.6029 26.4995 70.4831 26.8709C70.34 27.3053 70.0305 27.633 69.582 27.8542C69.2492 28.0024 68.7418 28.0897 68.0731 28.116V28.7939H76.3484V28.116C75.6878 28.0836 75.1764 27.9943 74.8293 27.839C74.3483 27.6046 74.0368 27.2657 73.8998 26.8324C73.7801 26.4539 73.7222 25.9911 73.7222 25.3995V8.48862L75.9222 8.46731V7.79757H70.5359ZM77.8458 21.4219C77.8458 28.9159 83.6766 29.4111 84.9349 29.4111C87.4271 29.4111 92.1518 27.8565 92.1518 21.2808C92.1518 16.1644 89.1299 13.3799 85.0343 13.3799C80.6171 13.3799 77.8458 16.3075 77.8458 21.4219ZM81.1437 21.5051C81.1437 17.3953 81.3995 14.3115 84.9755 14.3115C88.8397 14.3115 88.8579 17.5029 88.8579 21.2463C88.8579 26.6256 87.9386 28.4816 84.9755 28.4816C81.6552 28.4816 81.1437 26.8224 81.1437 21.5051ZM99.5125 16.7596L99.3055 16.7525C99.2831 16.7596 98.9249 14.4409 98.7899 13.758C97.759 13.758 93.6766 13.7478 93.6766 13.7478V14.5322H96.4438C96.4438 14.5322 96.4276 16.8814 96.4276 17.7277V24.9223C96.4276 25.9523 96.3139 26.6707 96.0917 27.1061C95.8086 27.6195 95.1744 27.8773 94.1241 27.8773H93.6766V28.7936H102.245V27.8773H101.783C100.659 27.8773 100.174 27.6327 99.8727 27.1456C99.5997 26.7164 99.478 25.9888 99.478 24.9223V19.5268C99.478 17.7074 100.848 15.6363 102.49 15.6363C104.206 15.6363 104.165 18.2797 106.11 17.2162C107.168 16.6378 106.989 13.6088 103.707 13.6088C101.065 13.6088 100.241 15.1695 99.5125 16.7596ZM126.265 14.5394C125.287 15.2842 124.906 15.9722 124.906 16.9576C124.906 17.4152 125.029 17.7379 125.287 17.9551C125.545 18.1844 125.848 18.2899 126.22 18.2899C127.071 18.2899 127.55 17.8566 127.726 16.7363C127.857 15.9053 128.039 15.4314 128.448 14.9981C128.885 14.5394 129.569 14.3101 130.493 14.3101C131.567 14.3101 132.327 14.5993 132.755 15.1777C133.145 15.7216 133.352 16.4613 133.352 17.3746V19.8983C130.606 20.1459 124.124 20.6665 124.412 25.6043C124.521 27.5364 126.225 29.2321 128.426 29.2321C130.859 29.2321 132.399 27.8459 133.445 26.7368C133.612 27.7881 134.588 29.0433 136.362 29.0433C138.357 29.0433 139.548 28.0651 139.687 25.6195H139.175C139.04 26.683 138.382 27.2563 137.842 27.2563C136.924 27.2563 136.633 26.7459 136.565 25.8966L136.511 23.9706V17.6679C136.511 16.3071 136.292 15.3928 135.489 14.5912C134.7 13.7895 133.172 13.3795 130.963 13.3795C128.842 13.3795 127.267 13.7712 126.265 14.5394ZM127.412 25.0259C127.412 22.2242 131.25 20.8228 133.352 20.8228V25.6632L133.301 25.7829L133.237 25.8438C131.768 27.1752 130.647 27.6501 129.827 27.6501C127.726 27.6501 127.412 25.9006 127.412 25.0259ZM145.718 16.4747L145.443 16.4635L144.906 13.7297L140.249 13.7216V14.506C141.123 14.5426 142.581 14.5588 142.581 14.5588V24.9053C142.581 25.7089 142.519 26.2874 142.4 26.6709C142.276 27.1286 141.979 27.4482 141.539 27.6329C141.257 27.7547 140.814 27.8217 140.249 27.847V28.7938H147.654V27.8399C146.909 27.7801 146.407 27.5781 146.139 27.1976C145.85 26.7907 145.718 26.0915 145.718 25.0696V21.0959C145.718 19.4337 145.709 17.8283 146.276 16.8349C146.888 15.7521 148.008 15.1555 149.263 15.1555C150.39 15.1555 150.984 15.5167 151.356 16.2321C151.66 16.8146 151.856 18.5478 151.856 19.7401L151.82 24.6648C151.82 25.4847 151.923 26.0915 151.856 26.4802C151.773 26.9338 151.567 27.2869 151.211 27.5213C150.952 27.6999 150.545 27.7922 150.024 27.8318V28.7938H157.162V27.847C156.258 27.7882 155.668 27.569 155.409 27.1469C155.116 26.7166 154.873 25.9921 154.873 24.9124L154.914 18.0952C154.914 17.1099 154.782 16.2666 154.412 15.5746C154.037 14.9018 153.511 14.3914 152.858 14.0555C152.193 13.7216 151.432 13.5572 150.596 13.5572C147.585 13.5572 146.377 15.395 145.718 16.4747ZM121.875 12.7722C121.434 12.9133 121.14 13.306 120.985 13.9696C120.869 14.5815 120.637 14.9357 120.328 15.0351C120.017 15.1264 119.671 15.1001 119.259 14.96C118.492 14.2466 117.019 13.38 114.428 13.38C110.256 13.38 108.417 16.3523 108.417 19.0637C108.417 22.2379 109.637 23.7742 112.321 24.3394C112.483 24.3739 112.483 24.5535 112.342 24.586C110.053 25.0497 108.025 25.7195 108.025 27.8951C108.025 29.2062 108.778 29.9246 109.741 30.3173C110.804 30.7496 112.299 30.9739 114.175 31.0074C115.816 31.0257 116.979 31.0835 117.736 31.1738C118.555 31.2672 119.203 31.5006 119.682 31.8496C120.175 32.2312 120.436 32.7934 120.436 33.5291C120.436 34.5357 119.898 35.3455 118.825 35.9452C117.826 36.5033 116.461 36.7945 114.764 36.7945C113.307 36.7945 112.116 36.6352 111.04 35.9655C110.244 35.4723 110.089 34.5022 110.256 33.8041C110.404 33.0978 110.152 32.353 109.333 32.2149C108.882 32.1388 108.315 32.3844 108.053 32.7934C107.807 33.1739 107.721 33.6265 107.721 34.1663C107.721 35.9564 109.103 36.7945 110.16 37.103C111.771 37.5942 112.84 37.7129 114.321 37.7129C116.286 37.7129 117.881 37.4125 119.022 36.8351C120.162 36.2588 120.958 35.5545 121.382 34.7447C121.829 33.9289 122.044 33.0968 122.044 32.2951C122.044 31.2134 121.806 30.3316 121.344 29.6821C119.854 27.6323 117.736 27.8951 112.977 27.6678C110.687 27.6678 110.246 27.2548 110.246 26.5506C110.246 25.5186 111.094 25.1116 114.409 24.6033C117.671 24.0959 120.711 22.8985 120.711 18.9145C120.711 17.7689 120.443 16.7845 120.12 16.0965C120.794 16.2467 121.423 16.2467 121.998 16.057C122.656 15.854 123.084 15.5242 123.331 15.0615C123.579 14.5977 123.635 14.1614 123.498 13.7352C123.279 13.0381 122.906 12.69 122.367 12.69C122.216 12.69 122.053 12.7174 121.875 12.7722ZM111.443 19.0637C111.443 16.266 112.42 14.1847 114.508 14.1847C116.938 14.1847 117.649 16.0813 117.649 19.0059C117.649 23.1887 116.331 23.7366 114.508 23.7366C112.559 23.7366 111.443 23.0283 111.443 19.0637Z" fill="#5E5E5E"/>
</svg>
