<svg width="64" height="63" viewBox="0 0 64 63" fill="none" xmlns="http://www.w3.org/2000/svg">
<path d="M19.5598 56.7149C20.3681 56.8119 21.2463 56.5432 21.8422 56.0481C22.5242 55.4685 23.1371 54.2724 23.1371 52.9739C23.1371 51.5396 22.2177 51.3689 21.8762 51.3689C21.3825 51.3689 21.0079 51.625 20.6503 51.864L19.5598 56.7149ZM20.9398 50.1737C21.3825 49.8664 22.1146 49.3532 23.2222 49.3532C24.9249 49.3532 26.0666 50.6338 26.0666 52.8031C26.0666 54.0333 25.6409 55.4846 24.7546 56.5612C23.069 58.6272 20.9398 58.6101 19.1341 58.6101L18.1645 62.6926L18.0462 62.778C17.6537 62.778 17.2791 62.76 16.8875 62.76C16.3086 62.76 15.7978 62.7951 15.1678 62.8121L15.0818 62.6926C15.0818 62.6926 15.6822 60.8819 16.4287 57.7699C17.2128 54.5042 17.9458 50.6787 18.0103 49.8996L18.1295 49.7801L21.042 49.3029L21.145 49.4215L20.9398 50.1737ZM14.7771 58.4223L14.6409 58.5589C14.0951 58.6622 13.4552 58.7467 13.1075 58.7467C11.8216 58.7467 9.93437 58.5517 10.7337 55.2986C11.2723 53.0988 11.6603 51.4543 11.6603 51.4543L10.4676 51.4884L10.3654 51.3518L10.86 49.6264L10.9793 49.542H12.103L12.5967 47.3376L12.716 47.219C13.9939 46.9287 14.3335 46.8425 15.5092 46.501L15.6113 46.6034L14.8622 49.5761L16.5989 49.542L16.6677 49.6606C16.4284 50.3777 16.3603 50.5664 16.139 51.3689L16.0028 51.4884L14.4363 51.4543C14.4363 51.4543 14.1182 52.7797 13.6728 54.6247C13.1916 56.6205 13.4443 56.5181 13.9264 56.7086C14.3386 56.8721 14.879 56.6637 15.1855 56.5612L15.2877 56.6466L14.7769 58.4223H14.7771ZM5.25749 51.1469C4.45635 51.1469 3.55032 51.5558 3.02698 54.0432C2.44542 56.811 3.60502 56.9881 4.16779 56.9881C4.67859 56.9881 5.76649 56.7086 6.30683 54.0585C6.68593 52.2055 6.38569 51.1469 5.25749 51.1469ZM9.23453 54.0585C8.50235 58.2471 5.90357 58.7808 3.70359 58.7808C1.53223 58.7808 -0.469733 57.281 0.0966951 54.0378C0.539313 51.5028 2.04037 49.1573 5.68943 49.3362C8.23444 49.4611 9.73185 51.2107 9.23453 54.0585Z" fill="#5E5E5E"/>
<path d="M59.543 53.3806L62.1821 58.4192L62.0799 58.5558L60.19 58.6071L60.0538 58.5037C59.612 57.3041 57.6862 53.5343 57.6862 53.5343C57.1924 55.7036 57.0903 56.2158 56.6638 58.4696L56.5455 58.5729L54.8248 58.6071L54.7567 58.5037C54.7567 58.5037 55.6655 54.7169 56.4513 51.2113C56.8196 49.5722 57.3914 46.9769 57.6181 45.4043L57.7364 45.3019L59.5932 44.9945L59.6962 45.1141C59.353 46.294 57.7364 53.2952 57.7364 53.2952C58.9578 52.2223 60.9902 50.0844 61.2627 49.7942L61.45 49.6917H63.4089L63.4598 49.8454C62.9759 50.2282 62.0798 51.0406 61.7563 51.3308L59.5429 53.3806L59.543 53.3806ZM53.0344 58.4741L52.8991 58.5765L51.1615 58.6277L51.0934 58.5091C51.3434 57.3588 52.3919 53.5064 52.4053 52.3085C52.4161 51.284 51.7753 50.9425 50.9742 50.9425C49.9186 50.9425 49.2196 51.4718 48.7088 51.8484C48.0788 54.7168 47.8745 55.6217 47.3296 58.474L47.2096 58.5765L45.4737 58.6276L45.3877 58.509C45.3877 58.509 45.9048 56.4179 46.3716 54.2441C46.7373 52.5421 47.0375 51.1402 47.1755 49.9693L47.2956 49.8498C48.0958 49.7473 48.2831 49.7132 49.1013 49.5424L49.1864 49.661L48.9481 50.5318C49.6121 50.0888 50.4634 49.4903 51.8766 49.4903C52.4385 49.4903 54.2783 49.6449 54.2783 51.7108C54.2783 52.9465 53.2011 57.268 53.0344 58.474V58.4741ZM43.3409 50.9767C43.0846 50.9767 42.8301 50.9597 42.5738 50.9597C42.012 50.9597 40.9052 50.9938 39.8998 51.6777C38.112 52.9061 38.0779 55.1096 38.0779 55.1959C38.0779 56.0154 38.5207 57.3301 40.07 57.3301C40.5306 57.3301 41.2906 57.2223 42.1141 56.4926L43.3409 50.9768V50.9767ZM44.6009 53.146C44.005 55.7763 43.8858 56.4252 43.5452 58.4579L43.4252 58.5765L41.8247 58.6106L41.7395 58.4911L41.8587 57.8091C41.5693 58.0472 40.8201 58.6789 39.372 58.6789C37.6343 58.6789 36.2212 57.4496 36.2212 55.3144C36.2212 53.9656 36.8681 52.4963 37.5842 51.6426C39.1677 49.7806 41.3649 49.6782 42.9323 49.6782L45.2819 49.6962L45.3671 49.8319L44.6009 53.146ZM28.2994 57.2447C29.2627 57.2896 30.684 57.2618 31.7907 56.5105C33.0507 55.6389 33.6475 54.1193 33.6475 53.0256C33.6475 51.4719 32.7101 50.8743 31.6204 50.8743C30.7512 50.8743 30.1382 51.2499 29.5934 51.5914C29.5934 51.5914 28.4051 56.826 28.2994 57.2447ZM26.2212 58.4911C26.335 57.9735 27.0689 54.9388 27.82 51.5258C28.4615 48.5989 28.9087 46.7729 29.0656 45.4088L29.2018 45.2883L31.0586 44.9648L31.1437 45.0844L30.6669 46.9805L29.8828 50.2596C30.5988 49.8669 31.279 49.4904 32.3696 49.4904C34.0553 49.4904 35.4694 50.6343 35.4694 52.7875C35.4694 53.6583 35.1969 55.2974 34.0553 56.613C32.5228 58.3725 30.6329 58.4911 28.4356 58.5765H27.4992L26.3064 58.5935L26.2212 58.4911V58.4911Z" fill="#5E5E5E"/>
<path d="M22.9238 19.9993C22.9238 15.0999 26.8838 11.1279 31.7695 11.1279C36.6553 11.1279 40.6144 15.0999 40.6144 19.9993C40.6144 24.8977 36.6553 28.8697 31.7695 28.8697C26.8838 28.8697 22.9238 24.8977 22.9238 19.9993Z" fill="#5E5E5E"/>
<path d="M37.9034 8.76171C37.9034 5.95437 40.1733 3.67812 42.9728 3.67812C45.7732 3.67812 48.044 5.95437 48.044 8.76171C48.044 11.57 45.7732 13.8462 42.9728 13.8462C40.1733 13.8462 37.9034 11.57 37.9034 8.76171ZM11.7793 19.9983C11.7793 8.96121 20.6949 0.0134795 31.6968 0V7.22684C24.6737 7.23942 18.9851 12.9521 18.9851 19.9983C18.9851 27.0517 24.6872 32.7688 31.7201 32.7688C38.7117 32.7688 44.4559 27.1056 44.4559 19.9497L51.6617 19.9541C51.6617 31.0423 42.7344 39.9946 31.7201 39.9946C20.7066 39.9946 11.7793 31.0423 11.7793 19.9981" fill="#5E5E5E"/>
</svg>
