<svg width="164" height="29" viewBox="0 0 164 29" fill="none" xmlns="http://www.w3.org/2000/svg">
<path d="M21.5819 13.0861C21.5133 12.0584 21.2393 11.0307 20.6912 10.14L16.0322 1.9869C15.6897 1.37028 15.4156 0.685139 15.2786 0L15.073 0.342569C13.9083 2.32947 13.9083 4.86448 15.073 6.85139L18.8413 13.3602C20.006 15.3471 20.006 17.8821 18.8413 19.869L18.6358 20.2116C18.4987 19.5264 18.2247 18.8413 17.8821 18.2247L14.4564 12.264L12.264 8.4272C11.9214 7.81058 11.6474 7.12544 11.5103 6.4403L11.3048 6.78287C10.14 8.76977 10.14 11.2363 11.3048 13.2917L15.073 19.8005C16.2378 21.7874 16.2378 24.3224 15.073 26.3093L14.8675 26.6519C14.7305 25.9667 14.4564 25.2816 14.1139 24.665L9.3864 16.5118C8.76977 15.4156 8.49572 14.1824 8.49572 12.9491C3.49421 14.2509 0 17.0599 0 20.2801C0 24.802 6.71436 28.4332 15.0045 28.4332C23.2947 28.4332 30.0091 24.802 30.0091 20.2801C30.0776 17.197 26.6519 14.3879 21.5819 13.0861ZM35.7642 26.9945C35.8327 25.8297 35.9698 25.0761 36.3123 24.1169C37.8882 24.8705 39.9436 25.2131 41.4509 25.2131C44.0544 25.2131 45.5617 24.3909 45.5617 22.6781C45.5617 21.0338 44.4655 20.2801 41.862 19.1154L40.4232 18.5673C37.7511 17.4025 35.9698 15.8952 35.9698 12.9491C35.9698 9.72897 38.2307 7.67355 42.7526 7.67355C44.6025 7.67355 46.3154 7.94761 47.8912 8.49572C47.8227 9.59194 47.6171 10.4826 47.3431 11.3048C45.8358 10.7567 43.9859 10.4826 42.6841 10.4826C40.2176 10.4826 39.1214 11.4418 39.1214 12.9491C39.1214 14.3879 40.2176 15.2786 42.2045 16.1008L43.7118 16.7174C47.2746 18.2247 48.7819 19.869 48.7819 22.6096C48.7819 25.8297 46.3154 28.0907 41.5194 28.0907C39.2584 28.0907 37.34 27.7481 35.7642 26.9945ZM63.9234 13.4972V27.6111H61.0458L60.9088 25.8982C60.0867 27.1315 58.9219 27.9537 56.935 27.9537C53.2353 27.9537 50.7003 25.2131 50.7003 20.4856C50.7003 15.5526 53.3723 12.6751 58.5793 12.6751C60.6348 12.7436 62.3476 12.9491 63.9234 13.4972ZM60.8403 24.3909V15.5526C60.2237 15.4156 59.47 15.4156 58.5793 15.4156C55.3592 15.4156 53.8519 17.4025 53.8519 20.5542C53.8519 23.4317 55.0166 25.4872 57.7572 25.4872C59.0589 25.4186 60.0181 25.0076 60.8403 24.3909ZM79.8186 18.1562V27.6111H76.7355V18.7043C76.7355 16.4433 75.9819 15.4156 72.8987 15.4156C72.1451 15.4156 71.3229 15.4841 70.4322 15.6212V27.6111H67.3491V13.4972C69.336 13.0176 71.5285 12.6751 72.9673 12.6751C78.1743 12.7436 79.8186 14.7305 79.8186 18.1562ZM88.4514 25.3501C89.3421 25.3501 90.2327 25.2131 90.8494 24.939C90.7809 25.7612 90.6438 26.7204 90.5068 27.5426C89.6846 27.8851 88.7254 28.0222 87.9033 28.0222C84.8887 28.0222 82.9703 26.6519 82.9703 23.2262V8.35869C83.9295 8.01612 85.0942 7.87909 86.0534 7.87909V13.2232H90.9864C90.9179 14.1824 90.8494 15.073 90.7123 15.8952H86.0534V22.8151C86.0534 24.5965 86.9441 25.3501 88.4514 25.3501ZM105.1 13.4972V27.6111H102.223L102.086 25.8982C101.263 27.1315 100.099 27.9537 98.1118 27.9537C94.4121 27.9537 91.8771 25.2131 91.8771 20.4856C91.8771 15.5526 94.5491 12.6751 99.7562 12.6751C101.812 12.7436 103.456 12.9491 105.1 13.4972ZM101.949 24.3909V15.5526C101.332 15.4156 100.578 15.4156 99.6877 15.4156C96.4675 15.4156 94.9602 17.4025 94.9602 20.5542C94.9602 23.4317 96.1249 25.4872 98.8655 25.4872C100.167 25.4186 101.195 25.0076 101.949 24.3909ZM120.995 18.1562V27.6111H117.844V18.7043C117.844 16.4433 117.09 15.4156 114.007 15.4156C113.253 15.4156 112.431 15.4841 111.541 15.6212V27.6111H108.457V13.4972C110.444 13.0176 112.637 12.6751 114.076 12.6751C119.283 12.7436 120.995 14.7305 120.995 18.1562ZM136.685 7.87909V27.6111H133.808L133.671 25.8297C132.848 27.1315 131.684 27.9537 129.628 27.9537C125.928 27.9537 123.393 25.2131 123.393 20.4856C123.393 15.5526 126.065 12.6751 131.273 12.6751C132.095 12.6751 132.848 12.7436 133.602 12.8806V8.22166C134.561 7.94761 135.657 7.87909 136.685 7.87909ZM133.602 24.3909V15.6897C132.78 15.5526 131.958 15.4156 131.136 15.4156C128.052 15.4156 126.614 17.334 126.614 20.5542C126.614 23.4317 127.778 25.4872 130.519 25.4872C131.752 25.4186 132.78 25.0076 133.602 24.3909ZM152.306 21.5819H142.372C142.783 24.1169 144.222 25.2816 147.031 25.2816C148.744 25.2816 150.456 24.939 151.964 24.1854C151.827 25.0076 151.69 26.1038 151.484 26.9945C150.045 27.6111 148.607 27.8851 146.894 27.8851C141.687 27.8851 139.22 25.0076 139.22 20.2116C139.22 16.0322 141.139 12.6751 146.072 12.6751C150.525 12.6751 152.443 15.5526 152.443 19.1154C152.443 20.0746 152.443 20.7597 152.306 21.5819ZM142.372 18.9783H149.36C149.36 16.6489 148.127 15.2786 146.003 15.2786C143.742 15.3471 142.577 16.5804 142.372 18.9783ZM163.2 12.8806C163.2 13.8398 163.063 14.936 162.926 15.5526C162.172 15.4841 161.487 15.4156 160.596 15.4156C159.843 15.4156 159.089 15.4841 158.336 15.5526V27.6111H155.252V13.4972C156.554 13.0176 158.815 12.6751 160.528 12.6751C161.419 12.7436 162.515 12.7436 163.2 12.8806Z" fill="#5E5E5E"/>
</svg>
