<svg width="98" height="37" viewBox="0 0 98 37" fill="none" xmlns="http://www.w3.org/2000/svg">
<path fill-rule="evenodd" clip-rule="evenodd" d="M15.9084 36.4347C15.8844 36.3001 15.8604 36.1664 15.8411 36.0323C15.8278 35.7788 15.8168 35.5253 15.8082 35.2717C15.1719 35.2717 14.2432 34.7883 13.7796 34.5732C12.0904 33.4394 11.3679 32.2764 11.0573 30.3533V30.0515V29.7211V29.4538C11.3679 26.8886 13.2153 24.9363 15.7748 24.5344H15.8416V24.2378H14.512C14.4066 24.0953 14.3445 23.9074 14.3445 23.7738V23.4392C14.4014 23.1609 14.4014 23.1609 14.512 22.9406C14.9328 22.9265 15.3535 22.9172 15.7748 22.9083H15.8416C15.8181 21.0661 15.7941 19.2286 15.7748 17.3911C11.6216 20.7069 11.6216 20.7069 11.5548 20.8119C12.3587 21.7927 12.6886 21.9264 11.4593 22.64C10.8992 22.6013 10.8845 21.9415 10.4925 21.6774C10.4257 21.7108 10.3584 21.7447 10.2962 21.7781C10.7081 22.6969 10.8992 23.2993 11.0573 24.3381V25.1994C10.8945 26.3087 10.7796 26.6584 10.2534 27.6628C9.36339 28.8598 7.81301 30.0844 6.27724 30.0844C6.18827 30.071 6.09898 30.0599 6.00944 30.051H5.61219C5.52418 30.0595 5.43644 30.0707 5.34909 30.0844C4.15263 30.0844 2.79383 29.2372 1.92833 28.592C1.6266 28.8123 1.3254 29.0315 1.02889 29.2518C0.440059 29.042 0 28.5727 0 27.9598C0.210372 27.8016 0.794508 27.4529 0.847231 27.2092C0.387336 26.2325 0.205674 25.7011 0.066818 24.7009V23.9027C0.440059 21.1225 2.15331 19.2474 5.01396 18.9832H5.61219C7.03781 19.1127 8.04739 19.6154 9.23393 20.5148C9.36287 20.3812 9.36287 20.3812 9.36287 20.2465C8.32928 19.0219 8.48223 19.2187 9.63119 18.4529C9.81285 18.682 10.2002 19.3612 10.5259 19.4196C15.21 15.6679 15.21 15.6679 15.2773 15.5625C10.7269 11.84 10.7269 11.84 10.5593 11.7732C10.3584 12.0076 10.1621 12.2419 9.9658 12.4768C10.6402 13.0845 10.6402 13.0845 10.7932 13.1372C10.7217 13.4243 10.3484 13.8597 10.0613 14.0032C9.3968 13.4342 9.3968 13.4342 9.23393 13.3721C9.05175 13.5825 8.67433 13.8889 8.67433 14.1708L9.43021 14.7977C9.43021 15.018 8.95152 15.5724 8.73593 15.6303C8.00406 15.0321 7.27742 14.4339 6.54973 13.8409V13.6921C7.31083 13.262 8.0714 12.8313 8.8325 12.4053C8.79909 12.0566 8.40184 11.9079 8.13822 11.9079C7.41628 12.2952 6.69798 12.6825 5.98073 13.0709C6.04755 12.6256 6.48761 10.951 6.7079 10.6451C6.54503 10.4441 6.54503 10.4441 6.10967 10.1043C5.73643 10.7886 5.47281 11.9131 5.24834 12.7071C4.55459 12.5348 3.36282 11.4438 2.85595 10.8461L3.5022 10.0275C3.8081 10.2619 4.07642 10.5303 4.48307 10.6785C4.67413 10.4102 4.93722 10.1617 4.93722 9.83649C4.69985 9.64157 4.46216 9.44703 4.22415 9.25288C4.22415 8.94176 4.65951 8.58313 4.85109 8.35292C5.1382 8.58261 5.42531 8.81752 5.71189 9.05138C5.90347 8.8264 6.29081 8.48238 6.29081 8.19997C5.67379 7.71711 5.06094 7.2332 4.44862 6.75504C4.58277 6.19491 4.82186 5.58729 5.44358 5.46305C8.88366 8.21877 12.3284 10.975 15.7737 13.7359C15.7931 11.875 15.8171 10.0135 15.8406 8.15247H14.8456C14.8216 8.5158 14.7976 8.88016 14.7788 9.24818H13.7165V8.1864C13.3819 8.17178 13.0467 8.16239 12.7163 8.15299C12.6928 8.51632 12.6688 8.88068 12.65 9.2487H11.6545V6.22519C12.5158 6.57912 13.3819 6.93357 14.2479 7.29219C14.2672 7.01448 14.286 6.73729 14.31 6.4601H14.2479C12.1859 5.62748 12.1859 5.62748 11.8889 5.46461C11.951 5.26886 13.9075 4.59859 14.2479 4.46443H14.31V3.63704H14.2479C11.7887 4.632 11.7887 4.632 11.6545 4.632V1.60849H12.65C12.6688 1.97181 12.6933 2.33565 12.7163 2.7042C13.0467 2.68958 13.3819 2.68071 13.7165 2.67079V1.60849H14.7788C14.7976 1.97181 14.8216 2.33565 14.8456 2.7042H15.7737C15.7931 1.87158 15.8171 1.03949 15.8406 0.211576C16.2232 -0.0849291 17.0177 -0.066137 17.4343 0.244984C17.4536 4.76146 17.4776 9.28316 17.5016 13.8049C20.9412 11.0105 24.3818 8.22085 27.8266 5.4312C28.3768 5.75642 28.8022 6.01012 28.8889 6.7566C28.2712 7.23581 27.6553 7.71746 27.0415 8.20154C27.018 8.47873 27.4199 8.83266 27.6256 9.08636C27.9216 8.84727 28.2186 8.61289 28.5151 8.3785C29.4772 9.69451 28.9891 8.76636 28.2901 9.91427C28.4723 10.1487 28.6534 10.3877 28.8356 10.6273C29.2903 10.6273 29.4432 10.0004 29.8838 10.0719L30.4147 10.8471C30.0368 11.1624 28.4243 12.6841 28.0604 12.7227C27.8067 11.8379 27.4768 10.9667 27.2184 10.1387C26.9934 10.1387 26.8071 10.3877 26.6442 10.5261C26.616 11.177 27.1563 12.3401 27.362 13.038C26.4385 12.9712 25.8309 12.0431 25.0077 11.8661C24.6057 12.1772 24.6057 12.1772 24.4382 12.373C25.2227 12.8083 26.0073 13.2437 26.7971 13.6837V13.8513C24.6872 15.5453 24.6872 15.5453 24.505 15.6314C24.2993 15.3876 23.9261 15.0566 23.9067 14.7988C24.5384 14.2339 24.5384 14.234 24.672 14.2005C24.4376 13.8033 24.4376 13.8033 24.0409 13.3392C23.8159 13.5256 23.3999 13.9709 23.141 13.9709C22.9113 13.679 22.6148 13.43 22.5907 13.1189C22.8157 12.9373 23.2605 12.6836 23.3085 12.4059C23.1075 12.1814 22.9066 11.9611 22.7103 11.7408C18.2272 15.3631 18.2272 15.3631 18.0649 15.564C18.2418 15.7796 18.2418 15.7796 22.7442 19.4212H22.8779C23.1316 19.096 23.3853 18.775 23.6437 18.4544C24.103 18.6398 24.3708 18.7175 24.6438 19.2437C24.6438 19.6258 24.0122 19.9281 23.9067 20.3828C23.9736 20.4151 24.0409 20.4491 24.1077 20.4825C25.2274 19.6222 26.237 19.1284 27.658 18.9848H28.2562C31.2134 19.2531 32.864 21.1809 33.2373 24.0713V24.5354C33.1365 25.4735 32.9548 26.234 32.5148 27.1189C32.5581 27.5166 32.9214 27.6743 33.2513 27.9426C33.2513 28.5685 32.8593 29.0905 32.2418 29.2528C31.6247 28.7032 31.6247 28.7032 31.3945 28.5737C30.4852 29.2382 29.1697 30.0855 27.9926 30.0855C27.9036 30.072 27.8143 30.0609 27.7248 30.0521H27.3275C27.2381 30.0606 27.149 30.0717 27.0602 30.0855C26.864 30.0855 26.237 29.9894 26.1316 29.8845C23.6771 29.1135 22.7922 27.655 22.2801 25.2667V24.9984V24.5344V24.2713C22.4477 23.1609 22.572 22.7877 23.0454 21.812C22.9786 21.764 22.9118 21.7212 22.8444 21.6774C22.586 21.9895 22.3329 22.3043 22.0792 22.6206C21.5384 22.6593 21.1844 22.2088 20.9835 21.812C21.2466 21.4764 21.5149 21.1423 21.7827 20.8119C17.629 17.4245 17.629 17.4245 17.5006 17.3911C17.4766 19.2286 17.4525 21.0661 17.4332 22.9083H18.7581C19.0885 23.0367 18.9403 23.9888 18.7581 24.2378H17.4332V24.5344H17.5006C20.1028 24.7974 21.9596 26.9414 22.2801 29.5201V30.252C21.9596 32.5917 20.8065 34.0079 18.6297 35.0034C18.2705 35.0034 17.8545 35.2717 17.5006 35.2717C17.4766 35.659 17.4525 36.0464 17.4332 36.4353C17.0803 36.6963 16.2002 36.6587 15.9084 36.4347ZM25.1382 23.8359H25.4681C27.1239 23.8359 27.4392 26.6344 25.6357 26.9936C25.6691 27.075 25.6691 27.075 26.5972 27.7928C27.8271 27.5208 28.3721 25.9892 28.0996 24.893C28.1292 24.873 28.1595 24.854 28.1904 24.8361H28.6592C29.5492 24.3762 30.7311 23.9988 30.6637 22.688C30.3479 22.4484 30.0321 22.2088 29.721 21.9744C29.7069 22.061 29.6969 22.1519 29.6875 22.2427C29.0319 24.076 26.9167 23.98 26.5106 22.0563C26.6593 21.1287 27.1949 20.3149 28.2572 20.3149H28.6592C29.2141 20.3149 29.7262 20.6453 30.2524 20.946C31.9317 22.4348 32.4438 24.2666 31.4436 26.411C31.0464 26.3671 30.9122 25.9031 30.4486 25.8321C29.9225 26.2533 29.841 26.3671 29.5539 26.9946C30.2816 27.6163 30.2816 27.6163 30.3479 27.7265C28.6733 29.2048 26.6593 28.9898 24.9367 27.8612C23.8932 26.7028 23.3435 26.1526 23.9991 24.608C24.2957 24.2619 24.6407 23.8359 25.1382 23.8359ZM12.3535 30.0844V29.6203C12.483 28.6964 12.5639 28.2704 13.1522 27.5579C14.239 26.9022 14.6451 26.8025 15.674 27.5485C15.9424 28.0553 15.9424 28.0553 16.004 28.3571V28.8211C15.7315 30.1272 14.4922 30.4149 13.4487 29.8213C13.4252 30.2515 13.4012 30.6827 13.3824 31.1133H13.4487C14.1524 31.6395 15.449 31.3764 16.1715 30.9165C16.4539 30.6299 16.5928 30.4096 16.7029 30.3668C17.3727 31.616 18.7315 31.4385 19.8893 31.1467V29.8213C19.5965 29.9729 19.2844 30.0841 18.9617 30.1518H18.6986C17.9954 30.1518 17.6175 29.482 17.3351 29.0221C17.2777 26.8792 18.7372 26.6198 20.2584 27.6153C20.6697 28.2955 20.89 28.6687 20.9855 29.4862V30.2854C20.8326 31.1561 20.6697 31.5006 20.1916 32.3092C19.5406 32.9936 18.4736 33.9405 17.5032 33.9405C17.4792 33.5866 17.4552 33.2332 17.4358 32.8793C16.7755 32.6877 16.4263 32.611 15.8327 32.908C15.8327 33.1283 15.8374 33.3475 15.8421 33.5725V33.9405C14.0135 33.9405 12.4156 31.6875 12.3535 30.0844ZM4.68352 20.3144H5.08078C5.57826 20.3144 5.9609 20.5775 6.37746 20.9126C7.59741 22.7162 5.55425 24.5443 3.93234 22.9224C3.67917 22.4145 3.67917 22.4144 3.65515 22.2422C3.64054 22.1514 3.63114 22.0605 3.62174 21.9739C2.66019 22.6969 2.66019 22.6969 2.59285 22.807C2.87526 23.6829 3.57842 24.6727 4.61671 24.8021V24.8695H5.1476V24.8021C5.17161 24.8115 5.19562 24.8267 5.21963 24.8397C5.18153 25.013 5.1476 25.1895 5.11419 25.367V25.7637C5.28175 26.4293 5.87998 27.7588 6.77472 27.7588C7.08062 27.5051 7.38704 27.2561 7.69346 27.0077C6.971 26.6783 6.62124 26.4334 6.44428 25.6301V25.2323C6.62124 24.5819 7.07592 23.8354 7.86991 23.8354H8.20504C8.93691 23.8354 9.49233 24.6826 9.63066 25.367V25.8984C8.87948 28.7021 4.9889 29.7592 2.95617 27.7254C3.20935 27.5156 3.46305 27.3042 3.72145 27.0943C3.72145 26.4674 3.34821 26.1275 2.88883 25.831C2.38666 25.8832 2.26189 26.3765 1.89335 26.41C0.931798 24.3047 1.37655 22.3429 3.13731 20.8933C3.62122 20.6302 4.10461 20.3144 4.68352 20.3144Z" fill="#5E5E5E"/>
<path fill-rule="evenodd" clip-rule="evenodd" d="M46.6369 6.14333V23.6522C46.6369 25.6228 46.9601 27.038 47.6063 27.8967C48.2526 28.756 49.3373 29.1856 50.8606 29.1856C52.613 29.1856 53.906 28.5607 54.7391 27.3095C55.5723 26.0592 55.9883 24.322 55.9883 22.0987V6.10835H53.36V5.30967H59.3073V6.10835H56.9368V22.5153C56.9368 24.8654 56.3485 26.7728 55.1698 28.2381C53.9921 29.7034 52.1823 30.4363 49.7408 30.4363C47.0681 30.4363 45.1001 29.7483 43.8363 28.3707C42.5725 26.9942 41.9545 24.8523 41.9832 21.9463V6.14333H39.4404V5.30967H49.1802V6.14333H46.6369ZM61.4183 5.30967H71.0286C73.7865 5.33473 75.8907 5.77739 77.3419 6.63611C78.7931 7.49482 79.5187 8.79621 79.5187 10.5397C79.49 12.1314 78.9367 13.3821 77.8587 14.2915C76.7823 15.2013 75.209 15.8706 73.1402 16.3002L73.183 16.4897C75.424 17.0456 77.1409 17.8605 78.3337 18.9337C79.5255 20.0086 80.1222 21.3909 80.1222 23.0843C80.1222 25.2825 79.3036 27.0067 77.665 28.2574C76.0275 29.5077 73.8731 30.1336 71.2009 30.1336H61.4183V29.2994H63.9183V6.14333H61.4183V5.30967ZM68.5726 15.8455H70.7269C71.8472 15.8455 72.7315 15.5172 73.3777 14.8599C74.024 14.2032 74.3471 13.3059 74.3471 12.1695V9.63039C74.3471 8.44332 74.0454 7.57156 73.4419 7.01509C72.8385 6.45967 72.0053 6.16891 70.943 6.14385H68.5726V15.8455ZM68.5726 29.2999H70.5119C72.0053 29.3255 73.0974 28.9971 73.7865 28.3138C74.4755 27.6315 74.8357 26.3563 74.8639 24.4864V21.8711C74.8352 20.1031 74.498 18.8011 73.8517 17.9675C73.2055 17.1338 72.2204 16.7042 70.8992 16.6792H68.5726V29.2999ZM82.7077 28.7868V22.8358H83.9517C84.3954 24.4295 85.0938 25.8577 86.047 27.121C87.2973 28.7758 88.7553 29.6027 90.4221 29.6027C90.5656 29.6283 90.7238 29.6283 90.896 29.6027C91.0683 29.5771 91.2552 29.5526 91.4557 29.527C92.4903 29.4007 93.3093 28.958 93.9117 28.2005C94.5152 27.4421 94.8169 26.4826 94.8169 25.3201C94.8169 24.334 94.5731 23.4502 94.084 22.6672C93.5954 21.8842 92.6187 21.1257 91.1539 20.3938L87.5771 18.6503C86.1984 17.9931 85.1497 17.1088 84.4309 15.9969C83.7131 14.885 83.3545 13.4703 83.3545 11.7519C83.3258 9.78125 83.9141 8.16405 85.1215 6.90077C86.3279 5.6375 87.8511 5.00586 89.6892 5.00586C91.973 5.08051 94.4353 5.9481 96.3255 6.85692V12.3584H95.3776C95.2252 11.849 95.06 11.3436 94.8822 10.8425C94.7417 10.4346 94.5911 10.0303 94.4306 9.62986C93.8554 8.41722 93.1663 7.4823 92.3619 6.82508C91.5574 6.16786 90.6951 5.83952 89.7763 5.83952C88.6274 5.83952 87.7149 6.09217 87.0399 6.59748C86.365 7.10279 86.0267 7.86076 86.0267 8.87138C85.998 9.93264 86.2 10.8295 86.6301 11.5624C87.0613 12.2948 87.8517 12.9269 89.0006 13.4573L92.922 15.3517C94.4165 16.1096 95.5728 17.1458 96.3913 18.4597C97.2098 19.7731 97.6342 21.1883 97.6629 22.7043C97.6629 24.8268 97.0308 26.646 95.7665 28.1619C94.5021 29.6778 92.7497 30.6853 90.5087 30.6853C88.8325 30.6864 83.9344 29.9676 82.7077 28.7868Z" fill="#5E5E5E"/>
</svg>
