<svg width="158" height="33" viewBox="0 0 158 33" fill="none" xmlns="http://www.w3.org/2000/svg">
<path d="M52.2789 22.6646C52.2789 27.6073 49.4681 29.7734 45.1307 29.7734C40.7933 29.7734 38.0693 27.5858 38.0693 22.7744V13.6554H42.3628V22.7088C42.3628 24.8944 43.4742 25.9461 45.1746 25.9461C46.874 25.9461 47.9855 24.961 47.9855 22.8175V13.6554H52.2789V22.6646ZM58.6869 29.5314H54.5458V17.6994H58.6869V19.3616C59.4487 18.3776 60.5387 17.4808 62.2166 17.4808C64.7227 17.4808 66.2268 19.1431 66.2268 21.8335V29.5323H62.0857V23.1684C62.0857 21.8551 61.4118 21.1562 60.4293 21.1562C59.4272 21.1562 58.6859 21.8561 58.6859 23.1684L58.6869 29.5314ZM68.4497 29.5323H72.5908V17.7003H68.4497V29.5323ZM68.4497 16.3517H72.5908V13.6554H68.4497V16.3517ZM80.5878 20.9808C79.0642 20.9808 78.1266 22.1403 78.1266 23.6056C78.1266 25.0924 79.1716 26.2734 80.6308 26.2734C82.1573 26.2734 83.0939 25.114 83.0939 23.6487C83.0939 22.1609 82.0489 20.9808 80.5878 20.9808ZM80.5878 29.7734C76.8178 29.7734 74.0929 27.0389 74.0929 23.6487C74.0929 20.2594 76.8393 17.4808 80.6308 17.4808C84.4017 17.4808 87.1256 20.2153 87.1256 23.6056C87.1256 26.9948 84.3792 29.7734 80.5878 29.7734ZM92.6653 29.5314H88.5242V17.6994H92.6653V19.3616C93.4271 18.3776 94.5191 17.4808 96.197 17.4808C98.7022 17.4808 100.206 19.1431 100.206 21.8335V29.5323H96.0651V23.1684C96.0651 21.8551 95.3902 21.1562 94.4097 21.1562C93.4066 21.1562 92.6663 21.8561 92.6663 23.1684L92.6653 29.5314ZM113.672 24.9963C113.667 26.5773 112.368 27.5378 110.064 27.5544H105.06V22.5039H109.754C111.081 22.5029 112.075 22.745 112.717 23.1665C113.356 23.5909 113.667 24.1701 113.672 24.9522V24.9963ZM105.06 15.6313H109.575C111.743 15.65 112.797 16.5546 112.807 17.9464V17.9905C112.804 18.8422 112.474 19.4567 111.896 19.887C111.315 20.3163 110.466 20.5495 109.444 20.5486H105.06V15.6313ZM112.867 21.2905C113.969 20.6877 114.994 19.5969 114.989 17.7474V17.7033C114.996 17.2185 114.906 16.7373 114.725 16.2879C114.544 15.8385 114.275 15.4299 113.934 15.0864C112.995 14.1729 111.541 13.6544 109.732 13.6544H102.92V29.5323H110.018C111.746 29.5323 113.195 29.1334 114.226 28.3758C115.259 27.6191 115.854 26.491 115.853 25.1071V25.063C115.857 23.0224 114.521 21.8913 112.866 21.2905H112.867ZM125.349 25.1296C125.347 25.9686 124.958 26.6733 124.31 27.184C123.663 27.6936 122.753 27.9975 121.742 27.9975C121.002 27.9975 120.323 27.7946 119.84 27.4368C119.358 27.0771 119.066 26.5772 119.064 25.9245V25.8794C119.066 24.6582 120.123 23.8016 122.207 23.7859C123.5 23.7859 124.537 23.9976 125.349 24.222V25.1287V25.1296ZM122.318 17.521C120.6 17.521 119.34 17.9326 118.066 18.5119L117.894 18.5903L118.544 20.3672L118.746 20.2751C119.794 19.7958 120.822 19.4773 122.14 19.4763C123.182 19.4763 123.976 19.7331 124.505 20.2085C125.032 20.6838 125.325 21.3895 125.326 22.3657V22.452C124.379 22.2001 123.386 22.0286 122.029 22.0305C120.548 22.0305 119.282 22.3549 118.37 23.0165C117.458 23.6761 116.925 24.6866 116.926 25.9686V26.0127C116.924 27.2477 117.496 28.2082 118.342 28.8335C119.186 29.4617 120.295 29.7744 121.409 29.7744H121.417C123.214 29.7744 124.483 29.0501 125.326 28.1729V29.5314H127.42V22.3442C127.422 20.8505 127.007 19.6802 126.163 18.8412C125.294 17.9738 123.971 17.521 122.318 17.521ZM135.325 17.4553C133.584 17.4514 132.397 18.2159 131.607 19.2313V17.6984H129.491V29.5323H131.607V22.7871C131.616 20.7387 132.971 19.4195 134.838 19.4097C136.752 19.4273 137.782 20.6044 137.802 22.6539V29.5323H139.919V22.2334C139.919 20.8357 139.501 19.6361 138.708 18.7883C137.917 17.9385 136.754 17.4533 135.325 17.4553ZM147.584 22.8264L152.61 17.6984H149.907L144.016 23.8251V13.6544H141.9V29.5323H144.016V26.4283L146.12 24.3112L150.138 29.5314H152.691" fill="#5E5E5E"/>
<path d="M26.2045 8.6924V20.542C26.2045 30.2941 17.436 33.9774 9.42627 32.7827C12.2362 32.0652 14.8322 30.1726 14.8322 25.0182V19.5844C14.8322 14.4574 16.43 9.54805 26.2045 8.6924Z" fill="#5E5E5E"/>
<path d="M-0.000488281 0.0679733V20.6975C-0.000488281 30.0557 5.58705 31.4592 7.40854 31.7493C9.32086 32.0531 11.7616 31.1485 12.8251 29.5313C11.492 28.7237 11.3719 26.0038 11.3719 22.8018V10.5925C11.3719 2.71334 5.8068 0.0679733 -0.000488281 0.0679733Z" fill="#5E5E5E"/>
<path d="M155.575 19.2149C155.783 19.2149 155.901 19.1051 155.901 18.9531C155.901 18.7806 155.783 18.6885 155.575 18.6885H155.189V19.2149H155.575ZM154.88 18.418H155.603C155.956 18.418 156.219 18.5905 156.219 18.9257C156.219 19.1883 156.065 19.3511 155.847 19.4148L156.272 20.0224H155.901L155.522 19.4696H155.189V20.0224H154.88V18.418ZM156.887 19.2511V19.2423C156.887 18.4719 156.29 17.8378 155.494 17.8378C155.31 17.8383 155.128 17.8753 154.959 17.9468C154.789 18.0182 154.635 18.1226 154.506 18.2539C154.377 18.3853 154.274 18.541 154.205 18.7122C154.136 18.8833 154.102 19.0665 154.104 19.2511V19.2609C154.104 20.0313 154.698 20.6664 155.494 20.6664C155.679 20.6659 155.861 20.6288 156.031 20.5572C156.201 20.4857 156.355 20.3812 156.484 20.2496C156.614 20.1181 156.716 19.9621 156.785 19.7908C156.854 19.6194 156.889 19.436 156.887 19.2511ZM153.924 19.2609V19.2511C153.924 18.3906 154.618 17.6643 155.494 17.6643C156.38 17.6643 157.067 18.3807 157.067 19.2423V19.2511C157.067 19.6707 156.902 20.0733 156.607 20.371C156.313 20.6687 155.912 20.8373 155.494 20.8398C154.608 20.8398 153.924 20.1224 153.924 19.2609Z" fill="#5E5E5E"/>
</svg>
