<svg width="19" height="5" viewBox="0 0 19 5" fill="none" xmlns="http://www.w3.org/2000/svg">
<path d="M0.428223 2.25439C0.428223 1.5708 0.611328 1.05404 0.977539 0.704102C1.34375 0.354167 1.87679 0.179199 2.57666 0.179199C3.25212 0.179199 3.77295 0.358236 4.13916 0.716309C4.51351 1.07438 4.70068 1.58708 4.70068 2.25439C4.70068 2.8973 4.51351 3.40592 4.13916 3.78027C3.76481 4.14648 3.24398 4.32959 2.57666 4.32959C1.89307 4.32959 1.3641 4.15055 0.989746 3.79248C0.615397 3.42627 0.428223 2.91357 0.428223 2.25439ZM7.55713 2.25439C7.55713 1.5708 7.74023 1.05404 8.10645 0.704102C8.47266 0.354167 9.0057 0.179199 9.70557 0.179199C10.381 0.179199 10.9019 0.358236 11.2681 0.716309C11.6424 1.07438 11.8296 1.58708 11.8296 2.25439C11.8296 2.8973 11.6424 3.40592 11.2681 3.78027C10.8937 4.14648 10.3729 4.32959 9.70557 4.32959C9.02197 4.32959 8.493 4.15055 8.11865 3.79248C7.7443 3.42627 7.55713 2.91357 7.55713 2.25439ZM14.686 2.25439C14.686 1.5708 14.8691 1.05404 15.2354 0.704102C15.6016 0.354167 16.1346 0.179199 16.8345 0.179199C17.5099 0.179199 18.0308 0.358236 18.397 0.716309C18.7713 1.07438 18.9585 1.58708 18.9585 2.25439C18.9585 2.8973 18.7713 3.40592 18.397 3.78027C18.0226 4.14648 17.5018 4.32959 16.8345 4.32959C16.1509 4.32959 15.6219 4.15055 15.2476 3.79248C14.8732 3.42627 14.686 2.91357 14.686 2.25439Z" fill="#979797"/>
</svg>
