<svg width="79" height="20" viewBox="0 0 79 20" fill="none" xmlns="http://www.w3.org/2000/svg">
<path d="M18.1188 1.015H0.25V19.0614H18.1188V1.015Z" fill="#242424"/>
<path d="M26.6687 19.0905V18.2174C26.9689 18.1755 27.2622 18.0928 27.5404 17.9715C27.7405 17.8823 27.9077 17.7318 28.0183 17.5413C28.1333 17.322 28.2004 17.0804 28.2152 16.8327C28.2403 16.547 28.2546 16.1909 28.2546 15.7679V2.57163H27.1932C26.7832 2.55143 26.3733 2.61285 25.9868 2.7524C25.6997 2.88207 25.4493 3.08217 25.2583 3.33448C25.0212 3.657 24.8397 4.01757 24.7213 4.40103C24.571 4.84694 24.4486 5.26874 24.3544 5.66643H22.5645V1.01338H37.9954V5.6592H36.1965C36.0306 5.05663 35.9 4.61555 35.8045 4.33596C35.7219 4.0844 35.614 3.8421 35.4823 3.61287C35.3787 3.43204 35.253 3.26503 35.1082 3.11575C34.9851 2.9892 34.8439 2.88196 34.6894 2.79759C34.5145 2.70795 34.3266 2.64694 34.1327 2.61682C33.8443 2.57229 33.5527 2.55234 33.261 2.55717H32.3159V15.7535C32.3159 16.2217 32.3303 16.576 32.3553 16.8182C32.3719 17.0212 32.4209 17.2203 32.5003 17.4075C32.5609 17.5441 32.6479 17.667 32.7563 17.7691C32.881 17.8759 33.0225 17.9608 33.1751 18.0203C33.4101 18.1092 33.6546 18.1698 33.9036 18.2011V19.0905H26.6687Z" fill="#242424"/>
<path d="M39.7962 18.2172C40.2234 18.0967 40.5181 17.9467 40.6804 17.7671C40.8555 17.5499 40.9687 17.2887 41.008 17.0115C41.0802 16.4367 41.1089 15.8571 41.0939 15.2779V9.12082C41.0989 8.77096 41.0791 8.42118 41.0348 8.07416C41.0089 7.84824 40.9324 7.63124 40.8111 7.43965C40.6991 7.27919 40.5447 7.15387 40.3654 7.07811C40.1315 6.97928 39.8879 6.90595 39.6387 6.85938V5.95552L43.2436 5.84887H44.8813V15.2616C44.8813 15.7569 44.8879 16.139 44.901 16.4077C44.9093 16.6159 44.929 16.8235 44.9601 17.0296C44.9833 17.1635 45.0211 17.2945 45.0729 17.42C45.12 17.5351 45.1839 17.6423 45.2626 17.7382C45.3573 17.8487 45.4729 17.9391 45.6027 18.0039C45.7906 18.0978 45.9889 18.1688 46.1934 18.2154V19.0904H39.7962V18.2172ZM44.7775 0.682425V3.92727H41.1852V0.673386L44.7775 0.682425Z" fill="#242424"/>
<path d="M48.2257 18.2173C48.5373 18.1426 48.83 18.0028 49.0848 17.8069C49.2585 17.6356 49.3791 17.4171 49.4321 17.1778C49.5191 16.7133 49.5545 16.2403 49.5377 15.7678V7.61144H47.9375V6.69854C48.2313 6.66648 48.52 6.59724 48.7967 6.49246C48.9512 6.42381 49.0878 6.31985 49.1958 6.18877C49.3107 6.04142 49.3952 5.87241 49.4446 5.69165C49.515 5.43657 49.5594 5.1749 49.5771 4.91071C49.7167 3.32113 50.2996 2.11599 51.3258 1.29529C52.352 0.474589 53.8055 0.066648 55.6861 0.0714686C56.1733 0.0762077 56.6596 0.116079 57.1413 0.190778V2.74508H55.6717C55.5679 1.94245 55.2314 1.54114 54.6622 1.54114C54.5034 1.53436 54.3455 1.56767 54.2027 1.63805C54.0598 1.70844 53.9367 1.81368 53.8442 1.94426C53.6205 2.2857 53.4805 2.67612 53.4361 3.08312C53.3544 3.69961 53.3173 4.32131 53.3252 4.94325V5.95015H55.8561V7.60421H53.3252V15.7606C53.3089 16.2307 53.3443 16.7012 53.4308 17.1634C53.4859 17.4136 53.6167 17.6404 53.8049 17.8124C54.0872 18.0169 54.4125 18.153 54.7553 18.2101V19.0904H48.2257V18.2173Z" fill="#242424"/>
<path d="M57.7127 18.2172C58.1399 18.0967 58.4346 17.9467 58.5969 17.7671C58.7753 17.5514 58.8906 17.2897 58.9298 17.0115C59.0021 16.4367 59.0308 15.8571 59.0158 15.2779V9.12082C59.0207 8.77096 59.001 8.42118 58.9567 8.07416C58.9313 7.84838 58.8554 7.6314 58.7347 7.43965C58.6228 7.27919 58.4683 7.15387 58.289 7.07811C58.0546 6.9793 57.8104 6.90597 57.5605 6.85938V5.95552L61.1654 5.84887H62.805V15.2616C62.805 15.7569 62.805 16.1384 62.8247 16.4077C62.8311 16.6161 62.8508 16.8238 62.8838 17.0296C62.9056 17.1636 62.9428 17.2947 62.9947 17.42C63.0425 17.5347 63.1064 17.6419 63.1845 17.7382C63.2799 17.8487 63.3961 17.9391 63.5263 18.0039C63.7137 18.0975 63.9114 18.1685 64.1152 18.2154V19.0904H57.7127V18.2172ZM62.694 0.682425V3.92727H59.1088V0.673386L62.694 0.682425Z" fill="#242424"/>
<path d="M73.3789 17.3569L73.182 17.29C72.5749 17.9164 71.8682 18.4358 71.0914 18.8265C70.4156 19.1427 69.6793 19.305 68.9345 19.302C68.2582 19.3181 67.5873 19.1757 66.9745 18.8862C66.4517 18.635 66.0153 18.2314 65.7216 17.7275C65.4308 17.2068 65.2837 16.6168 65.2956 16.0192C65.2956 14.7212 65.9268 13.6969 67.1893 12.9461C68.4518 12.1953 70.3682 11.7253 72.9385 11.5361V10.2869C72.9385 9.46381 72.8467 8.83051 72.6629 8.38701C72.5484 8.01712 72.3144 7.69664 71.9984 7.47677C71.6824 7.2569 71.3025 7.15032 70.9195 7.17404C70.5603 7.16554 70.2037 7.23843 69.876 7.38735C69.5404 7.57102 69.2649 7.84925 69.0831 8.18817C68.8112 8.69351 68.6334 9.24496 68.5586 9.81511H66.076V7.41266C66.8803 7.05112 67.5491 6.77333 68.0825 6.5793C68.5995 6.38907 69.1265 6.22794 69.6612 6.09664C70.1214 5.98035 70.5874 5.88923 71.0573 5.82368C71.4664 5.77111 71.8783 5.74454 72.2906 5.74414C73.349 5.74414 74.1945 5.88575 74.8269 6.16895C75.4492 6.44033 75.9543 6.92856 76.2499 7.54462C76.5649 8.18094 76.7218 9.05949 76.7206 10.1803V15.3431C76.7206 15.927 76.735 16.3771 76.76 16.6953C76.7721 16.9353 76.8142 17.1727 76.8853 17.4021C76.9316 17.5393 77.0054 17.6654 77.1019 17.7727C77.1928 17.8687 77.3017 17.9455 77.4223 17.9986C77.6552 18.0894 77.8945 18.1626 78.1383 18.2174V19.0905H73.2607L73.3789 17.3569ZM72.9457 12.8376C71.5913 12.8738 70.5884 13.1298 69.9369 13.6059C69.2853 14.0819 68.9572 14.7803 68.9524 15.701C68.9524 16.2433 69.1027 16.6663 69.3999 16.952C69.5671 17.1018 69.7619 17.217 69.9732 17.2908C70.1845 17.3646 70.4082 17.3957 70.6313 17.3822C71.0337 17.3828 71.4284 17.2708 71.7715 17.0586C72.1241 16.8475 72.4174 16.5488 72.6235 16.1909C72.8297 15.8429 72.9385 15.4449 72.9385 15.0394L72.9457 12.8376Z" fill="#242424"/>
<path d="M9.12286 9.02857C10.9932 9.02857 12.5094 7.47059 12.5094 5.54872C12.5094 3.62686 10.9932 2.06888 9.12286 2.06888C7.25253 2.06888 5.73633 3.62686 5.73633 5.54872C5.73633 7.47059 7.25253 9.02857 9.12286 9.02857Z" fill="#5E5E5E"/>
<path d="M2.38379 7.70186H3.93565C3.93565 7.70186 5.48572 11.1528 9.18548 11.1528C13.0034 11.1528 14.2724 7.68739 14.2724 7.68739L16.0176 7.71812V12.4326H11.4963L11.482 16.9212L6.85859 16.9067L6.84427 12.3874L2.39811 12.373L2.38379 7.70186Z" fill="#5E5E5E"/>
</svg>
