<svg xmlns="http://www.w3.org/2000/svg" viewBox="0 0 178.17 50.12"><defs><style>.cls-1{fill:#e52525;}.cls-2{fill:#fff;}</style></defs><title>TifiaWhite0</title><g id="Layer_2" data-name="Layer 2"><g id="Layer_1-2" data-name="Layer 1"><rect class="cls-1" y="0.1" width="49.89" height="49.89"/><path class="cls-2" d="M57.76,9.83h3.79q.3-1.25.78-2.64A7.47,7.47,0,0,1,63.45,5,4,4,0,0,1,65,3.74a6.58,6.58,0,0,1,2.55-.39h2.24V31q0,1.33-.08,2.23a3.65,3.65,0,0,1-.42,1.48,2.2,2.2,0,0,1-1,.9,7.22,7.22,0,0,1-1.84.51V37.9H81.71V36.08a6.54,6.54,0,0,1-1.54-.37,3,3,0,0,1-.89-.53,2.38,2.38,0,0,1-.54-.76,3.92,3.92,0,0,1-.3-1.23A22.2,22.2,0,0,1,78.36,31V3.35h2a10.94,10.94,0,0,1,1.84.12,4,4,0,0,1,1.18.37,3.71,3.71,0,0,1,.89.66,5.37,5.37,0,0,1,.79,1,8,8,0,0,1,.68,1.51q.3.89.83,2.77h3.79V.11H57.76ZM96.7,14.26a3.13,3.13,0,0,1,.47,1.33,15.36,15.36,0,0,1,.12,2.19V29.93a24.12,24.12,0,0,1-.18,3.63,3.2,3.2,0,0,1-.69,1.58,3.77,3.77,0,0,1-1.87.94V37.9h13.51V36.08a5.61,5.61,0,0,1-1.25-.44,2.3,2.3,0,0,1-.72-.55,2.72,2.72,0,0,1-.4-.66,3.87,3.87,0,0,1-.24-.82,10.64,10.64,0,0,1-.12-1.3q0-.84,0-2.39v-19h-3.46l-7.61.22V13a7.75,7.75,0,0,1,1.54.46A2.2,2.2,0,0,1,96.7,14.26ZM105.07.11H97.49V6.89h7.59Zm18.27,33.78a13.3,13.3,0,0,1-.22-2.93V14.62h5.34V11.16h-5.34v-1a26.48,26.48,0,0,1,.24-3.89,5.36,5.36,0,0,1,.86-2.38,2,2,0,0,1,1.73-.84q1.8,0,2.13,2.52h3.1V.25A21.64,21.64,0,0,0,128.11,0q-6,0-9.21,2.56a10.25,10.25,0,0,0-3.7,7.54,2.55,2.55,0,0,1-1.65,2.17,6.78,6.78,0,0,1-1.81.43v1.91h3.38V31a13.29,13.29,0,0,1-.22,2.95,2.65,2.65,0,0,1-.73,1.32,4.79,4.79,0,0,1-1.81.86V37.9h13.79V36.08a4.77,4.77,0,0,1-2-.83A2.62,2.62,0,0,1,123.35,33.89ZM144.42.11h-7.59V6.89h7.59Zm-8,33.44a3.2,3.2,0,0,1-.69,1.58,3.77,3.77,0,0,1-1.87.94V37.9h13.51V36.08a5.61,5.61,0,0,1-1.25-.44,2.3,2.3,0,0,1-.72-.55,2.72,2.72,0,0,1-.4-.66,3.87,3.87,0,0,1-.24-.82,10.63,10.63,0,0,1-.12-1.3q0-.84,0-2.39v-19h-3.46l-7.61.22V13a7.75,7.75,0,0,1,1.54.46,2.2,2.2,0,0,1,.94.76,3.13,3.13,0,0,1,.47,1.33,15.3,15.3,0,0,1,.12,2.19V29.93A24.05,24.05,0,0,1,136.46,33.56Zm40.2,2a2.12,2.12,0,0,1-.68-.47,2.24,2.24,0,0,1-.46-.78,6,6,0,0,1-.26-1.48q-.08-1-.08-2.82V20a12.51,12.51,0,0,0-1-5.51,6,6,0,0,0-3-2.88,13.47,13.47,0,0,0-5.36-.89,20.52,20.52,0,0,0-2.6.17,27.11,27.11,0,0,0-2.95.57,32.62,32.62,0,0,0-3.34,1q-1.69.61-4.24,1.74v5h5.23A9.7,9.7,0,0,1,159,15.82a4.15,4.15,0,0,1,1.67-1.68,5.07,5.07,0,0,1,2.2-.44,4.06,4.06,0,0,1,2.19.57,4,4,0,0,1,1.5,2,10.71,10.71,0,0,1,.58,4v1.87Q159,22.69,155,25t-4,6.41a7,7,0,0,0,.9,3.57,6.12,6.12,0,0,0,2.66,2.42,9.21,9.21,0,0,0,4.14.87,10.68,10.68,0,0,0,4.55-1,16.37,16.37,0,0,0,4.42-3.21l.42.14-.25,3.63h10.3V36A10.47,10.47,0,0,1,176.66,35.58Zm-9.45-6.19a4.69,4.69,0,0,1-.66,2.41,5.06,5.06,0,0,1-1.8,1.81,4.62,4.62,0,0,1-2.41.68,3.61,3.61,0,0,1-2.6-.9,3.45,3.45,0,0,1-.94-2.62,5.06,5.06,0,0,1,2.06-4.37q2.06-1.5,6.35-1.61ZM71.94,47.31a3.53,3.53,0,0,0-.81-.63A2.38,2.38,0,0,0,72.61,46a2,2,0,0,0,.5-1.39,2.16,2.16,0,0,0-.33-1.18,1.72,1.72,0,0,0-.87-.72,5.46,5.46,0,0,0-1.75-.2H67V50h1.51V46.86h.31a2.49,2.49,0,0,1,.76.08,1.16,1.16,0,0,1,.45.31,10.57,10.57,0,0,1,.8,1.1L71.91,50h1.81l-.91-1.46A8.56,8.56,0,0,0,71.94,47.31Zm-2.33-1.65H68.49v-1.9h1.18q.92,0,1.1,0a.93.93,0,0,1,.57.29.9.9,0,0,1,.2.61,1,1,0,0,1-.15.56.81.81,0,0,1-.42.32A5.78,5.78,0,0,1,69.61,45.67Zm84.72,2.77a1.52,1.52,0,0,1-1,.38,1.66,1.66,0,0,1-1.33-.6,3.14,3.14,0,0,1-.51-2,2.93,2.93,0,0,1,.52-1.94,1.71,1.71,0,0,1,1.35-.6,1.55,1.55,0,0,1,1.58,1.26l1.5-.36a3,3,0,0,0-.77-1.38,3.12,3.12,0,0,0-2.23-.81,3.31,3.31,0,0,0-2.54,1,4.1,4.1,0,0,0-1,2.9,3.9,3.9,0,0,0,1,2.79,3.53,3.53,0,0,0,4.44.42,3.29,3.29,0,0,0,1.12-1.82L155,47.24A2.23,2.23,0,0,1,154.33,48.44ZM78.11,42.37a4.12,4.12,0,0,0-1.61.3,2.93,2.93,0,0,0-1,.67,3.53,3.53,0,0,0-.7,1,4.77,4.77,0,0,0-.34,1.92,3.87,3.87,0,0,0,1,2.81,3.94,3.94,0,0,0,5.29,0,3.92,3.92,0,0,0,1-2.84,3.94,3.94,0,0,0-1-2.86A3.52,3.52,0,0,0,78.11,42.37Zm1.5,5.8a2,2,0,0,1-3,0,3.51,3.51,0,0,1,0-3.86,2.09,2.09,0,0,1,3,0,2.82,2.82,0,0,1,.56,1.92A2.86,2.86,0,0,1,79.61,48.17Zm79.88-1.48h3.76V45.43h-3.76V43.77h4V42.5H158V50h5.7V48.73h-4.18ZM177,45.85a7.3,7.3,0,0,0-1.63-.54,4,4,0,0,1-1.39-.5.57.57,0,0,1-.22-.45.55.55,0,0,1,.24-.47,1.73,1.73,0,0,1,1-.27,1.53,1.53,0,0,1,1,.25,1.29,1.29,0,0,1,.42.83l1.51-.07a2.18,2.18,0,0,0-.75-1.65,3.16,3.16,0,0,0-2.12-.62,3.75,3.75,0,0,0-1.47.26,2,2,0,0,0-.93.76,1.92,1.92,0,0,0-.32,1.07A2,2,0,0,0,173,46a4.11,4.11,0,0,0,1.71.74q.95.24,1.21.33a1.25,1.25,0,0,1,.54.32.68.68,0,0,1,.16.45.92.92,0,0,1-.37.72,1.68,1.68,0,0,1-1.1.31,1.63,1.63,0,0,1-1.1-.35,1.8,1.8,0,0,1-.54-1.09l-1.47.14a2.86,2.86,0,0,0,.91,1.91,3.24,3.24,0,0,0,2.18.66,4.25,4.25,0,0,0,1.63-.27,2.14,2.14,0,0,0,1-.84,2.36,2.36,0,0,0,.06-2.4A2.1,2.1,0,0,0,177,45.85Zm-7.24,0a7.3,7.3,0,0,0-1.63-.54,4,4,0,0,1-1.39-.5.57.57,0,0,1-.22-.45.55.55,0,0,1,.24-.47,1.73,1.73,0,0,1,1-.27,1.53,1.53,0,0,1,1,.25,1.29,1.29,0,0,1,.42.83l1.51-.07A2.18,2.18,0,0,0,170,43a3.16,3.16,0,0,0-2.12-.62,3.75,3.75,0,0,0-1.47.26,2,2,0,0,0-.93.76,1.92,1.92,0,0,0-.32,1.07A2,2,0,0,0,165.8,46a4.11,4.11,0,0,0,1.71.74q.95.24,1.21.33a1.25,1.25,0,0,1,.54.32.68.68,0,0,1,.16.45.92.92,0,0,1-.37.72,1.68,1.68,0,0,1-1.1.31,1.63,1.63,0,0,1-1.1-.35,1.8,1.8,0,0,1-.54-1.09l-1.47.14a2.86,2.86,0,0,0,.91,1.91,3.24,3.24,0,0,0,2.18.66,4.25,4.25,0,0,0,1.63-.27,2.14,2.14,0,0,0,1-.84,2.36,2.36,0,0,0,.06-2.4A2.1,2.1,0,0,0,169.8,45.85ZM62.06,47.24h1.73v1a3.25,3.25,0,0,1-.82.45,2.6,2.6,0,0,1-1,.19,2,2,0,0,1-1.55-.67,2.93,2.93,0,0,1-.59-2,2.65,2.65,0,0,1,.58-1.86A2,2,0,0,1,62,43.66a1.8,1.8,0,0,1,1.09.32,1.58,1.58,0,0,1,.6.87l1.5-.28a2.64,2.64,0,0,0-1-1.62A3.58,3.58,0,0,0,62,42.37a3.87,3.87,0,0,0-1.79.37,3.3,3.3,0,0,0-1.44,1.39,4.31,4.31,0,0,0-.49,2.08,4.56,4.56,0,0,0,.44,2,3.14,3.14,0,0,0,1.31,1.41,4.1,4.1,0,0,0,2,.49,5,5,0,0,0,1.83-.35A4.11,4.11,0,0,0,65.32,49V46H62.06Zm69.8-1.38a7.3,7.3,0,0,0-1.63-.54,4,4,0,0,1-1.39-.5.57.57,0,0,1-.22-.45.55.55,0,0,1,.24-.47,1.73,1.73,0,0,1,1-.27,1.53,1.53,0,0,1,1,.25,1.29,1.29,0,0,1,.42.83l1.51-.07A2.18,2.18,0,0,0,132,43a3.16,3.16,0,0,0-2.12-.62,3.75,3.75,0,0,0-1.47.26,2,2,0,0,0-.93.76,1.92,1.92,0,0,0-.32,1.07,2,2,0,0,0,.69,1.51,4.11,4.11,0,0,0,1.71.74q.95.24,1.21.33a1.25,1.25,0,0,1,.54.32.68.68,0,0,1,.16.45.92.92,0,0,1-.37.72,1.68,1.68,0,0,1-1.1.31,1.63,1.63,0,0,1-1.1-.35,1.8,1.8,0,0,1-.54-1.09l-1.47.14a2.86,2.86,0,0,0,.91,1.91,3.24,3.24,0,0,0,2.18.66,4.25,4.25,0,0,0,1.63-.27,2.14,2.14,0,0,0,1-.84,2.36,2.36,0,0,0,.06-2.4A2.1,2.1,0,0,0,131.86,45.85Zm-10.6,1.46a3.53,3.53,0,0,0-.81-.63,2.38,2.38,0,0,0,1.48-.69,2,2,0,0,0,.5-1.39,2.16,2.16,0,0,0-.33-1.18,1.72,1.72,0,0,0-.87-.72,5.46,5.46,0,0,0-1.75-.2H116.3V50h1.51V46.86h.31a2.49,2.49,0,0,1,.76.08,1.16,1.16,0,0,1,.45.31,10.57,10.57,0,0,1,.8,1.1L121.22,50H123l-.91-1.46A8.55,8.55,0,0,0,121.26,47.31Zm-2.33-1.65h-1.12v-1.9H119q.92,0,1.1,0a.93.93,0,0,1,.57.29.9.9,0,0,1,.2.61,1,1,0,0,1-.15.56.82.82,0,0,1-.42.32A5.78,5.78,0,0,1,118.93,45.67Zm-31.28,1a8.42,8.42,0,0,1-.07,1.27,1,1,0,0,1-.39.65,1.53,1.53,0,0,1-1,.26,1.61,1.61,0,0,1-1-.28,1.21,1.21,0,0,1-.46-.74,8.42,8.42,0,0,1-.06-1.25V42.5H83.19v4a9.1,9.1,0,0,0,.15,1.9,2.06,2.06,0,0,0,.42.83,2.33,2.33,0,0,0,.88.64,4.15,4.15,0,0,0,1.63.25,3.84,3.84,0,0,0,1.44-.23,2.29,2.29,0,0,0,.88-.61,2.11,2.11,0,0,0,.45-.94,10.11,10.11,0,0,0,.12-1.91V42.5H87.65Zm23.56-4.27a4.12,4.12,0,0,0-1.61.3,2.92,2.92,0,0,0-1,.67,3.53,3.53,0,0,0-.7,1,4.77,4.77,0,0,0-.34,1.92,3.87,3.87,0,0,0,1,2.81,3.94,3.94,0,0,0,5.29,0,3.92,3.92,0,0,0,1-2.84,3.94,3.94,0,0,0-1-2.86A3.52,3.52,0,0,0,111.21,42.37Zm1.5,5.8a2,2,0,0,1-3,0,3.51,3.51,0,0,1,0-3.86,2.09,2.09,0,0,1,3,0,2.82,2.82,0,0,1,.56,1.92A2.86,2.86,0,0,1,112.71,48.17ZM101.25,50h1.51V46.81h3.13V45.54h-3.13V43.77h3.62V42.5h-5.14Zm-6-7.38a8.8,8.8,0,0,0-1.8-.11H91V50h1.51V47.16h1a8.64,8.64,0,0,0,1.57-.11,2.19,2.19,0,0,0,.78-.36A2.06,2.06,0,0,0,96.5,46a2.44,2.44,0,0,0,.25-1.16,2.33,2.33,0,0,0-.43-1.46A2,2,0,0,0,95.24,42.61ZM95,45.41a1,1,0,0,1-.47.37,3.9,3.9,0,0,1-1.2.12h-.83V43.77h.73a7.26,7.26,0,0,1,1.09.05,1,1,0,0,1,.61.33,1,1,0,0,1,.24.67A1,1,0,0,1,95,45.41Zm51.49,3a1.52,1.52,0,0,1-1,.38,1.66,1.66,0,0,1-1.33-.6,3.14,3.14,0,0,1-.51-2,2.93,2.93,0,0,1,.52-1.94,1.71,1.71,0,0,1,1.35-.6,1.55,1.55,0,0,1,1.58,1.26l1.5-.36a3,3,0,0,0-.77-1.38,3.12,3.12,0,0,0-2.23-.81,3.31,3.31,0,0,0-2.54,1,4.1,4.1,0,0,0-1,2.9,3.9,3.9,0,0,0,1,2.79,3.53,3.53,0,0,0,4.44.42,3.29,3.29,0,0,0,1.12-1.82l-1.47-.46A2.23,2.23,0,0,1,146.51,48.44ZM139,46.64a8.41,8.41,0,0,1-.07,1.27,1,1,0,0,1-.39.65,1.53,1.53,0,0,1-1,.26,1.61,1.61,0,0,1-1-.28,1.21,1.21,0,0,1-.46-.74,8.41,8.41,0,0,1-.06-1.25V42.5h-1.51v4a9.1,9.1,0,0,0,.15,1.9,2.07,2.07,0,0,0,.42.83,2.33,2.33,0,0,0,.88.64,4.15,4.15,0,0,0,1.63.25,3.84,3.84,0,0,0,1.44-.23,2.29,2.29,0,0,0,.88-.61,2.11,2.11,0,0,0,.45-.94,10.11,10.11,0,0,0,.12-1.91V42.5H139Z"/><path class="cls-2" d="M24.82,23.54a8.81,8.81,0,0,0,8.73-8.89,8.73,8.73,0,1,0-17.46,0A8.81,8.81,0,0,0,24.82,23.54Zm13.27-3.38S34.82,29,25,29c-9.54,0-13.54-8.81-13.54-8.81H5.67l0,12H19V44.33h12V32.16H44.23v-12Z"/></g></g></svg>