<svg width="191" height="32" viewBox="0 0 191 32" fill="none" xmlns="http://www.w3.org/2000/svg">
<path d="M146.278 11.4833C145.814 10.9091 145.118 10.5933 144.364 10.5933C143.552 10.5933 142.914 10.8804 142.45 11.4259C141.754 12.2584 141.638 13.378 141.638 14.4402H146.916C146.945 13.4354 146.945 12.3445 146.278 11.4833ZM19.8363 25.0048L18.9373 12.4593C18.8503 11.1388 18.7923 9.84691 18.7633 8.52633C18.5313 9.76078 18.2123 10.9378 17.8643 12.1436L14.1232 25.0048H10.0632L6.67011 12.6603C6.2931 11.2823 5.9451 9.90432 5.71309 8.49762C5.68409 9.90432 5.62609 11.311 5.53909 12.7177L4.72708 24.9761H0L2.23304 1.52154H8.35214L11.4552 13.2919C11.8032 14.5263 11.9482 15.7895 12.2672 16.9952C12.4992 15.7034 12.8762 14.4689 13.1082 13.177L16.3273 1.52154H22.3884L24.5054 25.0048H19.8363ZM32.3645 17.7704C32.3645 20.2106 33.4665 22.0192 36.1056 22.0192C37.7586 22.0192 39.2086 21.3015 40.4847 20.2967L42.2537 22.9952C40.3977 24.5168 38.0776 25.4067 35.6706 25.4067C32.2195 25.4067 29.4355 23.6268 28.1015 20.4689C27.1444 18.1723 27.1154 14.6412 28.0145 12.2871C29.2035 9.18662 31.7845 7.29187 35.0906 7.29187C41.4127 7.29187 42.4567 12.7751 42.4567 17.7704H32.3645ZM37.6426 12.8326C37.4976 11.5407 36.4826 10.5933 35.1776 10.5933C33.7856 10.5933 32.7995 11.5981 32.5965 12.9187C32.5095 13.4354 32.4515 13.9522 32.4515 14.4689H37.7296C37.7296 13.9235 37.7006 13.378 37.6426 12.8326ZM54.4339 24.6316C52.2009 25.6651 48.7208 25.8948 46.8068 24.0862C45.7047 23.024 45.6757 21.6173 45.6757 20.2106V10.823H43.9357V7.6938H45.6757C45.6757 6.34451 45.6177 4.96652 45.8498 3.61723L50.4898 2.4689C50.3448 4.2201 50.2288 5.9426 50.2288 7.6938H54.3179L53.1579 10.7943H50.2288V19.4641C50.2288 20.8421 50.3448 22.2201 52.0268 22.2201C52.5779 22.2201 53.3319 22.134 53.8249 21.8756L54.4339 24.6316ZM68.8471 25.8948C67.8321 25.4354 66.9331 24.7752 66.3821 23.7991C65.0481 25.1196 63.743 25.6651 61.8 25.6651C58.291 25.6651 55.7969 23.7991 55.7969 20.268C55.7969 19.1484 56.0289 18.1436 56.4929 17.2823C57.9719 14.5263 62.467 14.0096 65.2221 14.3541V13.6364C65.2221 12.0861 64.9611 11.0239 63.221 11.0239C61.394 11.0239 59.567 11.9426 58.146 13.0048L56.1739 9.76078C58.378 8.38279 61.017 7.29187 63.656 7.29187C68.1221 7.29187 69.6301 9.50241 69.6301 13.4354V19.2345C69.6301 20.8995 69.7461 22.0192 71.2832 23.0814L68.8471 25.8948ZM61.481 18.0861C60.872 18.5455 60.64 19.4067 60.698 20.2393C60.785 21.3589 61.481 22.3637 62.699 22.3637C63.627 22.3637 64.468 21.8756 65.0771 21.1866L65.1351 17.4546C64.062 17.4259 62.38 17.3684 61.481 18.0861ZM88.9734 5.39714H83.3184V25.0048H78.4753V5.39714H72.6752V1.52154H89.7855L88.9734 5.39714ZM98.8046 11.6555L100.081 7.66509C97.9056 6.54547 95.6146 8.03829 94.2805 9.76078C94.2225 8.89953 94.0195 8.03829 93.5555 7.29187L89.4665 8.38279C90.0465 9.99045 90.1045 11.7703 90.1045 13.4641V25.0048H94.6865V12.7751C95.6436 11.6555 97.4126 10.7656 98.8046 11.6555ZM113.45 25.8948C112.435 25.4354 111.536 24.7752 110.985 23.7991C109.622 25.1484 108.288 25.6651 106.403 25.6651C103.996 25.6651 102.024 24.9187 100.893 22.7656C100.545 22.1053 100.371 21.2728 100.371 20.268C100.371 18 101.299 16.2201 103.416 15.244C105.243 14.4115 107.824 14.1244 109.796 14.3541C109.796 12.8038 109.912 11.0526 107.795 11.0526C105.968 11.0526 104.141 11.9713 102.72 13.0335L100.777 9.76078C102.981 8.38279 105.62 7.29187 108.259 7.29187C112.638 7.29187 114.233 9.35887 114.233 13.4354V19.2345C114.233 20.957 114.378 22.0192 115.886 23.0814L113.45 25.8948ZM106.084 18.0861C105.475 18.5455 105.301 19.2632 105.301 19.9809C105.301 21.1866 105.968 22.335 107.302 22.335C108.23 22.335 109.071 21.8469 109.68 21.1579L109.738 17.4259C108.665 17.4259 106.983 17.3684 106.084 18.0861ZM129.458 25.0048C129.284 24.689 129.197 24.3445 129.197 24C128.008 24.9474 126.703 25.4067 125.166 25.4067C123.02 25.4067 121.106 24.6029 119.772 22.9091C118.322 21.1579 117.887 18.8613 117.887 16.6507C117.887 14.2967 118.38 11.7129 119.888 9.8182C121.222 8.18183 123.252 7.29187 125.369 7.29187C126.529 7.29187 127.66 7.57896 128.472 8.4402C128.327 7.60766 128.327 6.77513 128.327 5.9426V0L132.822 0.717704V18.689C132.822 20.7273 132.677 23.0814 133.46 25.0048H129.458ZM128.443 12.201C127.718 11.5407 126.877 11.0814 125.891 11.0814C123.165 11.0814 123.02 14.756 123.02 16.6794C123.02 18.7751 123.136 21.6173 126.036 21.6173C126.993 21.6173 127.834 21.244 128.472 20.4976V12.201H128.443ZM163.621 11.6555C162.229 10.7656 160.46 11.6555 159.503 12.7751V25.0048H154.921V13.4354C154.921 11.7704 154.834 9.96174 154.283 8.35408L158.372 7.26317C158.836 8.00959 159.039 8.87082 159.097 9.73207C160.431 8.00958 162.722 6.51676 164.897 7.63638L163.621 11.6555ZM141.58 17.7704C141.58 20.2106 142.682 22.0192 145.321 22.0192C146.945 22.0192 148.453 21.3015 149.7 20.2967L151.469 22.9952C149.613 24.5168 147.293 25.4067 144.886 25.4067C142.682 25.4067 140.536 24.6603 138.97 23.1101C137.201 21.2728 136.621 18.7752 136.621 16.3062C136.621 14.6699 136.824 13.3206 137.23 12.2871C138.419 9.21533 140.971 7.29187 144.306 7.29187C148.946 7.29187 151.295 10.5646 151.614 15.0144C151.672 15.933 151.672 16.8517 151.672 17.7704H141.58Z" fill="#737373"/>
<path d="M190.881 19.9522C190.881 23.2249 189.402 26.1532 186.85 28.2201C183.95 30.5168 180.151 31.4642 176.497 31.4642C174.728 31.4642 172.901 31.1484 171.248 30.4594L171.596 26.5838C173.017 27.0718 174.554 27.3015 175.975 27.3015C179.977 27.3015 184.24 25.0335 184.24 20.6986C184.24 18.1436 182.616 16.3062 180.093 15.9617C177.628 15.6172 174.641 16.5359 172.582 17.1675L174.09 0H189.663L189.17 5.16747H179.774L179.136 11.3971C185.023 10.3062 190.881 13.8373 190.881 19.9522Z" fill="#B2B2B2"/>
</svg>
