<svg width="194" height="34" viewBox="0 0 194 34" fill="none" xmlns="http://www.w3.org/2000/svg">
<path d="M146.279 11.4833C145.815 10.9091 145.119 10.5933 144.365 10.5933C143.553 10.5933 142.915 10.8804 142.451 11.4259C141.755 12.2584 141.639 13.378 141.639 14.4402H146.917C146.946 13.4355 146.946 12.3445 146.279 11.4833ZM19.8364 25.0049L18.9373 12.4594C18.8503 11.1388 18.7923 9.84692 18.7633 8.52634C18.5313 9.7608 18.2123 10.9378 17.8643 12.1436L14.1233 25.0049H10.0632L6.67012 12.6603C6.29311 11.2823 5.94511 9.90434 5.7131 8.49763C5.6841 9.90434 5.6261 11.311 5.5391 12.7177L4.72708 24.9761H0L2.23304 1.52154H8.35215L11.4552 13.2919C11.8032 14.5264 11.9482 15.7895 12.2672 16.9953C12.4992 15.7034 12.8762 14.4689 13.1082 13.1771L16.3273 1.52154H22.3884L24.5054 25.0049H19.8364ZM32.3646 17.7704C32.3646 20.2106 33.4666 22.0192 36.1056 22.0192C37.7587 22.0192 39.2087 21.3015 40.4847 20.2967L42.2538 22.9953C40.3977 24.5168 38.0777 25.4068 35.6706 25.4068C32.2196 25.4068 29.4355 23.6269 28.1015 20.469C27.1445 18.1723 27.1155 14.6412 28.0145 12.2871C29.2035 9.18663 31.7846 7.29189 35.0906 7.29189C41.4127 7.29189 42.4568 12.7752 42.4568 17.7704H32.3646ZM37.6427 12.8326C37.4977 11.5407 36.4827 10.5933 35.1776 10.5933C33.7856 10.5933 32.7996 11.5981 32.5966 12.9187C32.5096 13.4354 32.4516 13.9522 32.4516 14.4689H37.7297C37.7297 13.9235 37.7007 13.378 37.6427 12.8326ZM54.434 24.6317C52.2009 25.6652 48.7209 25.8948 46.8068 24.0862C45.7048 23.024 45.6758 21.6173 45.6758 20.2106V10.823H43.9358V7.69381H45.6758C45.6758 6.34452 45.6178 4.96652 45.8498 3.61724L50.4899 2.46891C50.3449 4.22011 50.2289 5.94261 50.2289 7.69381H54.318L53.158 10.7943H50.2289V19.4642C50.2289 20.8422 50.3449 22.2202 52.0269 22.2202C52.5779 22.2202 53.332 22.134 53.825 21.8757L54.434 24.6317ZM68.8472 25.8948C67.8322 25.4355 66.9332 24.7752 66.3822 23.7991C65.0482 25.1197 63.7431 25.6651 61.8001 25.6651C58.291 25.6651 55.797 23.7991 55.797 20.268C55.797 19.1484 56.029 18.1436 56.493 17.2824C57.972 14.5264 62.4671 14.0096 65.2222 14.3541V13.6364C65.2222 12.0862 64.9612 11.024 63.2211 11.024C61.3941 11.024 59.5671 11.9426 58.146 13.0048L56.174 9.76079C58.378 8.3828 61.0171 7.29189 63.6561 7.29189C68.1222 7.29189 69.6302 9.50243 69.6302 13.4355V19.2345C69.6302 20.8996 69.7462 22.0192 71.2833 23.0814L68.8472 25.8948ZM61.4811 18.0862C60.8721 18.5455 60.6401 19.4068 60.6981 20.2393C60.7851 21.3589 61.4811 22.3637 62.6991 22.3637C63.6271 22.3637 64.4681 21.8757 65.0772 21.1867L65.1352 17.4546C64.0621 17.4259 62.3801 17.3685 61.4811 18.0862ZM88.9736 5.39715H83.3185V25.0049H78.4754V5.39715H72.6753V1.52154H89.7856L88.9736 5.39715ZM98.8048 11.6555L100.081 7.6651C97.9057 6.54548 95.6147 8.0383 94.2807 9.76079C94.2227 8.89955 94.0197 8.0383 93.5557 7.29189L89.4666 8.3828C90.0466 9.99046 90.1046 11.7704 90.1046 13.4642V25.0049H94.6867V12.7752C95.6437 11.6555 97.4127 10.7656 98.8048 11.6555ZM113.45 25.8948C112.435 25.4355 111.536 24.7752 110.985 23.7991C109.622 25.1484 108.288 25.6651 106.403 25.6651C103.996 25.6651 102.024 24.9187 100.893 22.7656C100.545 22.1053 100.371 21.2728 100.371 20.268C100.371 18.0001 101.299 16.2201 103.416 15.2441C105.243 14.4115 107.824 14.1244 109.796 14.3541C109.796 12.8039 109.912 11.0527 107.795 11.0527C105.968 11.0527 104.141 11.9713 102.72 13.0335L100.777 9.76079C102.981 8.3828 105.62 7.29189 108.259 7.29189C112.638 7.29189 114.233 9.35888 114.233 13.4355V19.2345C114.233 20.957 114.378 22.0192 115.886 23.0814L113.45 25.8948ZM106.084 18.0862C105.475 18.5455 105.301 19.2632 105.301 19.9809C105.301 21.1867 105.968 22.335 107.302 22.335C108.23 22.335 109.071 21.847 109.68 21.158L109.738 17.4259C108.665 17.4259 106.983 17.3685 106.084 18.0862ZM129.458 25.0049C129.284 24.6891 129.197 24.3446 129.197 24.0001C128.008 24.9474 126.703 25.4068 125.166 25.4068C123.02 25.4068 121.106 24.6029 119.772 22.9092C118.322 21.158 117.887 18.8613 117.887 16.6508C117.887 14.2967 118.38 11.713 119.888 9.81821C121.222 8.18185 123.252 7.29189 125.369 7.29189C126.529 7.29189 127.66 7.57897 128.472 8.44021C128.327 7.60768 128.327 6.77514 128.327 5.9426V0L132.822 0.717705V18.6891C132.822 20.7273 132.677 23.0814 133.46 25.0049H129.458ZM128.443 12.201C127.718 11.5407 126.877 11.0814 125.891 11.0814C123.165 11.0814 123.02 14.756 123.02 16.6795C123.02 18.7752 123.136 21.6173 126.036 21.6173C126.993 21.6173 127.834 21.2441 128.472 20.4977V12.201H128.443ZM163.621 11.6555C162.229 10.7656 160.46 11.6555 159.503 12.7752V25.0049H154.921V13.4355C154.921 11.7704 154.834 9.96175 154.283 8.35409L158.372 7.26318C158.836 8.0096 159.039 8.87084 159.097 9.73208C160.431 8.00959 162.722 6.51677 164.897 7.63639L163.621 11.6555ZM141.581 17.7704C141.581 20.2106 142.683 22.0192 145.322 22.0192C146.946 22.0192 148.454 21.3015 149.701 20.2967L151.47 22.9953C149.614 24.5168 147.294 25.4068 144.887 25.4068C142.683 25.4068 140.537 24.6604 138.97 23.1101C137.201 21.2728 136.621 18.7752 136.621 16.3063C136.621 14.6699 136.824 13.3206 137.23 12.2871C138.419 9.21534 140.972 7.29189 144.307 7.29189C148.947 7.29189 151.296 10.5646 151.615 15.0144C151.673 15.9331 151.673 16.8517 151.673 17.7704H141.581Z" fill="#737373"/>
<path d="M169.048 22.0881L183.203 1.36766L188.289 2.02199V21.6519H193.376V25.3598H188.289V32.5574H183.733V25.3598H169.49L169.048 22.0881ZM183.733 7.25663L173.914 21.6519H183.733V7.25663Z" fill="#B2B2B2"/>
<path fill-rule="evenodd" clip-rule="evenodd" d="M168.398 21.9342L182.903 0.700195L188.913 1.47329V21.0281H194V25.9836H188.913V33.1812H183.11V25.9836H168.945L168.398 21.9342ZM183.733 25.3598V32.5574H188.289V25.3598H193.376V21.6519H188.289V2.02199L183.203 1.36766L169.048 22.0881L169.49 25.3598H183.733ZM173.914 21.6519H183.733V7.25663L173.914 21.6519ZM175.094 21.0281H183.11V9.27805L175.094 21.0281Z" fill="#B2B2B2"/>
</svg>
