<svg width="6" height="6" viewBox="0 0 6 6" fill="none" xmlns="http://www.w3.org/2000/svg">
<path d="M2.79205 0.135087C2.83127 0.0521149 2.91204 -0.000488281 3.00032 -0.000488281C3.0886 -0.000488281 3.1695 0.0521149 3.2086 0.135087L3.95561 1.72064C3.98939 1.79236 4.05489 1.84212 4.13061 1.85364L5.8012 2.10784C5.88883 2.12113 5.96132 2.18539 5.98863 2.27338C6.01594 2.36137 5.99316 2.45817 5.92986 2.5227L4.72113 3.75698C4.66638 3.81284 4.64139 3.89337 4.65421 3.97227L4.9395 5.71509C4.95426 5.80647 4.91866 5.89866 4.84695 5.95316C4.77537 6.00739 4.68074 6.01458 4.6023 5.97174L3.10802 5.1488C3.04045 5.11151 2.95955 5.11151 2.89185 5.1488L1.39757 5.9716C1.31939 6.01458 1.2245 6.00753 1.15292 5.95316C1.08134 5.8988 1.04561 5.80647 1.0605 5.71509L1.34579 3.97227C1.35874 3.89337 1.33362 3.81284 1.27887 3.75698L0.0701373 2.5227C0.00684 2.45803 -0.0159419 2.36137 0.0113705 2.27338C0.0386828 2.18539 0.1113 2.12113 0.198932 2.10784L1.86977 1.85364C1.94537 1.84212 2.01087 1.79236 2.04465 1.7205L2.79205 0.135087Z" fill="#5E5E5E"/>
</svg>
