<svg width="8" height="7" viewBox="0 0 8 7" fill="none" xmlns="http://www.w3.org/2000/svg">
<path d="M3.78525 0.261064C3.82829 0.170023 3.91692 0.112305 4.01378 0.112305C4.11064 0.112305 4.19941 0.170023 4.24231 0.261064L5.06196 2.00081C5.09903 2.0795 5.1709 2.1341 5.25399 2.14674L7.08703 2.42567C7.18319 2.44025 7.26273 2.51076 7.29269 2.6073C7.32266 2.70385 7.29767 2.81006 7.22821 2.88087L5.90193 4.23518C5.84185 4.29647 5.81444 4.38483 5.8285 4.47141L6.14154 6.38372C6.15773 6.48398 6.11867 6.58514 6.03999 6.64494C5.96144 6.70444 5.85762 6.71233 5.77155 6.66532L4.13195 5.76235C4.05781 5.72144 3.96904 5.72144 3.89476 5.76235L2.25516 6.66517C2.16937 6.71233 2.06526 6.70459 1.98672 6.64494C1.90818 6.58529 1.86898 6.48398 1.88531 6.38372L2.19835 4.47141C2.21255 4.38483 2.185 4.29647 2.12492 4.23518L0.798638 2.88087C0.729185 2.80991 0.704188 2.70385 0.734156 2.6073C0.764124 2.51076 0.843803 2.44025 0.939958 2.42567L2.77329 2.14674C2.85623 2.1341 2.9281 2.0795 2.96517 2.00066L3.78525 0.261064Z" fill="white"/>
</svg>
