<svg width="140" height="48" viewBox="0 0 140 48" fill="none" xmlns="http://www.w3.org/2000/svg">
<path d="M46.7867 5.50509e-07H1.7334C1.50572 -0.000180425 1.28023 0.0442611 1.06984 0.130783C0.859455 0.217304 0.668294 0.344208 0.507297 0.504233C0.346299 0.664259 0.218624 0.854265 0.131577 1.06338C0.04453 1.2725 -0.000181521 1.49663 5.53854e-07 1.72294V46.2784C4.81148e-07 46.5046 0.0448463 46.7286 0.131975 46.9376C0.219104 47.1465 0.346807 47.3364 0.507786 47.4963C0.668766 47.6561 0.859866 47.7829 1.07016 47.8694C1.28046 47.9558 1.50584 48.0002 1.7334 48H46.7867C47.2461 48 47.6868 47.8187 48.0119 47.4958C48.3369 47.173 48.5197 46.7352 48.5201 46.2784V1.72294C48.5201 1.26599 48.3374 0.82775 48.0124 0.504637C47.6873 0.181524 47.2464 5.50509e-07 46.7867 5.50509e-07Z" fill="#737373"/>
<path d="M24.3473 23.1451C25.7232 23.1451 27.0682 22.7428 28.2123 21.9892C29.3563 21.2356 30.248 20.1645 30.7745 18.9114C31.3011 17.6582 31.4388 16.2792 31.1704 14.9488C30.902 13.6185 30.2394 12.3965 29.2665 11.4373C28.2935 10.4782 27.054 9.82498 25.7045 9.56036C24.355 9.29573 22.9562 9.43155 21.685 9.95063C20.4138 10.4697 19.3273 11.3488 18.5629 12.4766C17.7985 13.6044 17.3905 14.9304 17.3905 16.2868C17.3905 18.1057 18.1234 19.8502 19.4281 21.1363C20.7327 22.4225 22.5022 23.1451 24.3473 23.1451ZM34.4259 20.5756C34.4259 20.5756 31.9035 27.1325 24.3674 27.1325C17.0516 27.1325 13.9855 20.5685 13.9855 20.5685H9.56525L9.60553 29.5128H19.7505V38.5714H28.9239V29.5174H39.1305V20.5685L34.4259 20.5756Z" fill="#2E2E2E"/>
<path d="M56.2622 7.46147H59.2306V17.8073H65.6616V20.2115H56.2622V7.46147Z" fill="#737373"/>
<path d="M66.3027 13.8371C66.3027 10.0486 69.2711 7.24403 73.3207 7.24403C77.3704 7.24403 80.3402 10.0307 80.3402 13.8371C80.3402 17.6436 77.3524 20.4303 73.3207 20.4303C69.2891 20.4303 66.3027 17.6257 66.3027 13.8371ZM77.3344 13.8371C77.3344 11.4138 75.6121 9.75687 73.3194 9.75687C71.0266 9.75687 69.3043 11.4082 69.3043 13.8371C69.3043 16.266 71.0266 17.916 73.3194 17.916C75.6121 17.916 77.3344 16.2592 77.3344 13.8371Z" fill="#737373"/>
<path d="M81.7676 13.8371C81.7676 9.99357 84.736 7.24403 88.7317 7.24403C90.9469 7.24403 92.7994 8.04494 94.0094 9.50228L92.103 11.25C91.239 10.2674 90.1605 9.75687 88.8854 9.75687C86.4846 9.75687 84.7803 11.433 84.7803 13.8371C84.7803 16.2413 86.4846 17.916 88.8854 17.916C90.1674 17.916 91.2487 17.4069 92.1099 16.4023L94.0081 18.1541C92.798 19.6293 90.9469 20.4303 88.7123 20.4303C84.7319 20.4303 81.7676 17.6793 81.7676 13.8371Z" fill="#737373"/>
<path d="M104.197 17.4771H98.2433L97.108 20.2087H94.0621L99.7787 7.45871H102.711L108.446 20.2087H105.331L104.197 17.4771ZM103.262 15.2367L101.228 10.3583L99.1944 15.2394L103.262 15.2367Z" fill="#737373"/>
<path d="M109.791 7.46147H112.76V17.8073H119.192V20.2115H109.791V7.46147Z" fill="#737373"/>
<path d="M56.2622 25.6748H62.0896C66.2847 25.6748 69.1617 28.189 69.1617 32.0491C69.1617 35.9092 66.2847 38.4248 62.0896 38.4248H56.2622V25.6748ZM61.9387 36.0028C64.4848 36.0028 66.1531 34.489 66.1531 32.0491C66.1531 29.6092 64.4917 28.0968 61.9387 28.0968H59.2306V36.0028H61.9387Z" fill="#737373"/>
<path d="M81.3288 36.055V38.4234H71.3963V25.6748H81.0878V28.0431H74.3481V30.8106H80.3014V33.106H74.3481V36.055H81.3288Z" fill="#737373"/>
<path d="M94.8152 30.3014C94.8152 33.1431 92.6706 34.9087 89.244 34.9087H86.6605V38.4248H83.6921V25.6748H89.244C92.6706 25.6748 94.8152 27.4418 94.8152 30.3014ZM91.8095 30.3014C91.8095 28.8991 90.8929 28.0734 89.0792 28.0734H86.6605V32.5046H89.0792C90.8929 32.5046 91.8095 31.6858 91.8095 30.3014Z" fill="#737373"/>
<path d="M96.298 32.0491C96.298 28.2619 99.2664 25.456 103.316 25.456C107.366 25.456 110.336 28.2427 110.336 32.0491C110.336 35.8555 107.348 38.6436 103.316 38.6436C99.2844 38.6436 96.298 35.839 96.298 32.0491ZM107.33 32.0491C107.33 29.6271 105.607 27.9702 103.315 27.9702C101.022 27.9702 99.2996 29.6216 99.2996 32.0491C99.2996 34.4766 101.022 36.1294 103.315 36.1294C105.607 36.1294 107.33 34.4725 107.33 32.0491Z" fill="#737373"/>
<path d="M111.562 37.1683L112.57 34.9459C113.65 35.7289 115.263 36.2752 116.803 36.2752C118.562 36.2752 119.277 35.6931 119.277 34.9087C119.277 32.5239 111.818 34.1628 111.818 29.4275C111.818 27.2601 113.578 25.456 117.218 25.456C118.831 25.456 120.48 25.8385 121.672 26.5858L120.755 28.8261C119.677 28.1921 118.452 27.8469 117.2 27.8243C115.442 27.8243 114.763 28.4794 114.763 29.2817C114.763 31.6307 122.222 30.0096 122.222 34.6913C122.222 36.8216 120.444 38.6436 116.779 38.6436C114.751 38.6436 112.699 38.0422 111.562 37.1683Z" fill="#737373"/>
<path d="M124.26 25.6748H127.228V38.4248H124.26V25.6748Z" fill="#737373"/>
<path d="M132.927 28.0734H128.821V25.6748H140V28.0734H135.895V38.4193H132.927V28.0734Z" fill="#737373"/>
</svg>
