<svg width="34" height="36" viewBox="0 0 34 36" fill="none" xmlns="http://www.w3.org/2000/svg">
<path d="M31.2196 9.56542H24.6343C25.1068 9.19293 25.5127 8.82284 25.7957 8.49121C27.4732 6.54226 27.4732 3.37011 25.7957 1.42116C24.1661 -0.472518 21.323 -0.474921 19.6912 1.42116C18.79 2.46653 16.3945 6.7225 16.7254 9.56542H16.5755C16.9044 6.7225 14.5109 2.46653 13.6097 1.42116C11.9779 -0.474921 9.13486 -0.472518 7.50519 1.42116C5.82766 3.37011 5.82766 6.54226 7.50311 8.49121C7.78825 8.82284 8.1941 9.19293 8.66656 9.56542H2.08131C0.934507 9.56542 0 10.6444 0 11.9686V17.9764C0 18.6397 0.466213 19.178 1.04065 19.178H2.08131V33.5969C2.08131 34.921 3.01581 36 4.16261 36H29.1383C30.2851 36 31.2196 34.921 31.2196 33.5969V19.178H32.2603C32.8347 19.178 33.3009 18.6397 33.3009 17.9764V11.9686C33.3009 10.6444 32.3664 9.56542 31.2196 9.56542ZM8.98084 3.11538C9.40334 2.62513 9.96321 2.35598 10.5585 2.35598C11.1516 2.35598 11.7115 2.62513 12.134 3.11538C13.5368 4.74471 14.9313 8.90695 14.4464 9.48611C14.4464 9.48611 14.3589 9.56542 14.0613 9.56542C12.6231 9.56542 9.87788 7.83996 8.98084 6.79699C8.10877 5.78287 8.10877 4.1295 8.98084 3.11538ZM15.6098 33.5969H4.16261V19.178H15.6098V33.5969ZM15.6098 16.7748H2.08131V11.9686H14.0613H15.6098V16.7748ZM21.1669 3.11538C22.0119 2.1373 23.4771 2.1397 24.3201 3.11538C25.1921 4.1295 25.1921 5.78287 24.3201 6.79699C23.423 7.83996 20.6778 9.56542 19.2396 9.56542C18.942 9.56542 18.8546 9.48851 18.8525 9.48611C18.3696 8.90695 19.7641 4.74471 21.1669 3.11538ZM29.1383 33.5969H17.6911V19.178H29.1383V33.5969ZM31.2196 16.7748H17.6911V11.9686H19.2396H31.2196V16.7748Z" fill="white"/>
</svg>
